<svg width="27" height="26" viewBox="0 0 27 26" fill="none" xmlns="http://www.w3.org/2000/svg">
<path d="M5.71763 10.6824C8.46118 10.6824 10.6853 8.45899 10.6853 5.71622C10.6853 2.97345 8.46118 0.75 5.71763 0.75C2.97408 0.75 0.75 2.97345 0.75 5.71622C0.75 8.45899 2.97408 10.6824 5.71763 10.6824Z" stroke="#0D2996" stroke-width="1.5" stroke-miterlimit="10"/>
<path d="M20.3683 10.6824C23.1118 10.6824 25.3359 8.45899 25.3359 5.71622C25.3359 2.97345 23.1118 0.75 20.3683 0.75C17.6247 0.75 15.4006 2.97345 15.4006 5.71622C15.4006 8.45899 17.6247 10.6824 20.3683 10.6824Z" stroke="#0D2996" stroke-width="1.5" stroke-miterlimit="10"/>
<path d="M5.71763 24.6991C8.46118 24.6991 10.6853 22.4756 10.6853 19.7328C10.6853 16.9901 8.46118 14.7666 5.71763 14.7666C2.97408 14.7666 0.75 16.9901 0.75 19.7328C0.75 22.4756 2.97408 24.6991 5.71763 24.6991Z" stroke="#0D2996" stroke-width="1.5" stroke-miterlimit="10"/>
<path d="M20.3683 24.6991C23.1118 24.6991 25.3359 22.4756 25.3359 19.7328C25.3359 16.9901 23.1118 14.7666 20.3683 14.7666C17.6247 14.7666 15.4006 16.9901 15.4006 19.7328C15.4006 22.4756 17.6247 24.6991 20.3683 24.6991Z" stroke="#0D2996" stroke-width="1.5" stroke-miterlimit="10"/>
</svg>
