<svg width="18" height="11" viewBox="0 0 18 11" fill="none" xmlns="http://www.w3.org/2000/svg">
<path d="M0.25 1.23145C0.247936 1.10785 0.26763 0.984313 0.308594 0.868164C0.349595 0.751954 0.41206 0.64403 0.492188 0.551758C0.572318 0.459598 0.669786 0.384445 0.779297 0.332031C0.889026 0.279554 1.00843 0.25113 1.12988 0.25C1.25125 0.248924 1.37089 0.27472 1.48145 0.325195C1.59204 0.375711 1.69077 0.450019 1.77246 0.541016L9 8.4209L16.2275 0.541016C16.3092 0.450019 16.408 0.375712 16.5186 0.325196C16.6291 0.274721 16.7487 0.248925 16.8701 0.25C16.9916 0.25113 17.111 0.279555 17.2207 0.332031C17.3302 0.384445 17.4277 0.459598 17.5078 0.551758C17.5879 0.644031 17.6504 0.751955 17.6914 0.868164C17.7324 0.984315 17.7521 1.10785 17.75 1.23145C17.7479 1.35515 17.7237 1.47812 17.6787 1.59277C17.634 1.70651 17.5689 1.81074 17.4863 1.89941L9.62891 10.4668C9.46583 10.6446 9.24061 10.75 9 10.75C8.75939 10.75 8.53417 10.6446 8.37109 10.4668L0.513672 1.89941C0.431098 1.81074 0.365951 1.70651 0.321289 1.59277C0.276277 1.47812 0.252102 1.35515 0.25 1.23145Z" fill="#AEBED2" stroke="#AEBED2" stroke-width="0.5"/>
</svg>
