<svg width="37" height="31" viewBox="0 0 37 31" fill="none" xmlns="http://www.w3.org/2000/svg">
<path d="M1.0531 13.8315C0.987663 13.5703 0.982637 13.2976 1.03841 13.0341C1.09417 12.7707 1.20927 12.5234 1.37494 12.3111C1.54062 12.0988 1.75251 11.927 1.99452 11.8089C2.23652 11.6908 2.50227 11.6294 2.77157 11.6294H33.6686C33.9377 11.6295 34.2032 11.6908 34.4451 11.8089C34.6869 11.9269 34.8987 12.0985 35.0643 12.3105C35.23 12.5226 35.3451 12.7697 35.401 13.0329C35.4569 13.2961 35.4522 13.5686 35.387 13.8297L32.1786 26.6616C31.987 27.4281 31.5447 28.1086 30.922 28.5949C30.2992 29.0812 29.5318 29.3454 28.7417 29.3456H7.69844C6.90831 29.3454 6.1409 29.0812 5.51816 28.5949C4.89543 28.1086 4.45311 27.4281 4.2615 26.6616L1.0531 13.8315Z" stroke="#0E2CA4" stroke-width="2" stroke-linejoin="round"/>
<path d="M12.9047 18.7162V22.2594M23.5344 18.7162V22.2594M7.58984 11.6297L14.6763 1M28.8492 11.6297L21.7628 1" stroke="#0E2CA4" stroke-width="2" stroke-linecap="round"/>
</svg>
