<svg width="20" height="20" viewBox="0 0 20 20" fill="none" xmlns="http://www.w3.org/2000/svg">
<path d="M5.75 19.1667C5.22292 19.1667 4.7717 18.979 4.39635 18.6036C4.02101 18.2283 3.83333 17.7771 3.83333 17.25C3.83333 16.7229 4.02101 16.2717 4.39635 15.8964C4.7717 15.521 5.22292 15.3333 5.75 15.3333C6.27708 15.3333 6.7283 15.521 7.10365 15.8964C7.47899 16.2717 7.66667 16.7229 7.66667 17.25C7.66667 17.7771 7.47899 18.2283 7.10365 18.6036C6.7283 18.979 6.27708 19.1667 5.75 19.1667ZM15.3333 19.1667C14.8062 19.1667 14.355 18.979 13.9797 18.6036C13.6043 18.2283 13.4167 17.7771 13.4167 17.25C13.4167 16.7229 13.6043 16.2717 13.9797 15.8964C14.355 15.521 14.8062 15.3333 15.3333 15.3333C15.8604 15.3333 16.3116 15.521 16.687 15.8964C17.0623 16.2717 17.25 16.7229 17.25 17.25C17.25 17.7771 17.0623 18.2283 16.687 18.6036C16.3116 18.979 15.8604 19.1667 15.3333 19.1667ZM4.93542 3.83333L7.23542 8.625H13.9437L16.5792 3.83333H4.93542ZM4.025 1.91667H18.1604C18.5278 1.91667 18.8073 2.08038 18.999 2.40781C19.1906 2.73524 19.1986 3.06667 19.0229 3.40208L15.6208 9.53542C15.4451 9.85486 15.2095 10.1024 14.9141 10.2781C14.6186 10.4538 14.2951 10.5417 13.9437 10.5417H6.80417L5.75 12.4583H17.25V14.375H5.75C5.03125 14.375 4.48819 14.0595 4.12083 13.4286C3.75347 12.7977 3.7375 12.1708 4.07292 11.5479L5.36667 9.2L1.91667 1.91667H0V0H3.11458L4.025 1.91667Z" fill="#061F7C"/>
</svg>
