<svg width="29" height="31" viewBox="0 0 29 31" fill="none" xmlns="http://www.w3.org/2000/svg">
<path d="M22.8746 15.0278L27.0101 20.6495C27.2118 20.9268 27.1361 21.3049 26.884 21.4814L15.9905 29.2963C15.7131 29.4979 15.3601 29.4223 15.1583 29.1702L11.4515 24.0023" stroke="#0D2996" stroke-width="1.5" stroke-miterlimit="10"/>
<path d="M19.798 10.0113L16.3181 5.27195L13.3678 1.26369C12.9644 0.709086 12.2079 0.583038 11.6531 0.986386L6.38289 4.76778L1.26396 8.42311C0.709196 8.82646 0.583114 9.60795 0.986576 10.1626L4.11341 14.549L7.56806 19.3639" stroke="#0D2996" stroke-width="1.5" stroke-miterlimit="10"/>
<path d="M4.08813 14.549L16.2929 5.27197" stroke="#0D2996" stroke-width="1.5" stroke-miterlimit="10"/>
<path d="M6.35779 4.76758L13.7714 14.5992" stroke="#0D2996" stroke-width="1.5" stroke-miterlimit="10"/>
<path d="M5.87858 20.952L21.4119 9.07844C21.6388 8.90198 21.9414 8.87678 22.1936 9.02803L27.6151 12.1035C28.4473 12.5825 28.2707 13.843 27.3377 14.0447L16.646 16.4143C16.4695 16.4647 16.2929 16.5656 16.1921 16.7168L10.6949 25.5401C10.2662 26.2459 9.25757 26.2964 8.75325 25.6661L5.75249 21.9604C5.50033 21.6579 5.55076 21.2041 5.87858 20.952Z" stroke="#0D2996" stroke-width="1.5" stroke-miterlimit="10"/>
</svg>
