<svg width="31" height="20" viewBox="0 0 31 20" fill="none" xmlns="http://www.w3.org/2000/svg">
<path d="M2.46383 0.850098H23.2421C24.1751 0.850098 24.9064 1.70721 24.856 2.74079C24.5786 7.45492 23.6708 19.2781 21.1492 18.8747C18.4258 18.4462 7.83492 18.7739 5.21241 18.8747C4.75852 18.8747 4.30462 18.6983 4.00203 18.3201C2.96815 17.0849 1.05171 13.3539 0.849976 2.66517C0.849976 1.68201 1.55603 0.850098 2.46383 0.850098Z" stroke="#0D2996" stroke-width="1.7" stroke-miterlimit="10"/>
<path d="M24.6541 5.41295C26.1671 5.21128 28.0079 5.33731 29.1931 6.52215C29.9748 7.30363 30.0252 8.46327 30.0252 9.54727C30.0252 11.9674 28.6383 13.1522 26.5454 13.3791C25.4863 13.5051 24.402 13.4043 23.3429 13.253" stroke="#0D2996" stroke-width="1.7" stroke-miterlimit="10"/>
</svg>
