<svg width="30" height="30" viewBox="0 0 30 30" fill="none" xmlns="http://www.w3.org/2000/svg">
<path d="M6.24158 3.02829C6.4181 3.6081 6.94764 4.16271 7.60327 4.4148C8.8893 4.9442 10.9318 4.13749 11.5118 5.49879C11.8901 6.40633 11.4362 7.692 10.8058 8.44828C9.16668 10.339 6.69548 11.423 4.70338 12.9355C2.98867 14.2464 1.60176 15.9354 1.14787 17.9522C0.618324 20.3723 0.315727 22.8932 2.25739 24.8343C5.73725 28.3636 11.2092 29.2963 16.2021 28.7165C21.1949 28.1367 26.8938 26.1452 28.5329 21.305C29.1381 19.4899 28.9868 17.5236 28.1042 15.7842L28.0286 15.6581C26.1373 11.9524 22.2288 10.1121 18.7489 7.86847C16.1768 6.20466 18.9759 2.87704 16.5299 1.38969C16.1516 1.16281 15.6725 1.08718 15.2186 1.01155C13.2013 0.759455 11.1588 0.683832 9.11625 0.809878C8.03195 0.885506 6.77113 1.11238 6.31723 1.99471C6.14072 2.32243 6.14072 2.67536 6.24158 3.00308V3.02829Z" stroke="#0D2996" stroke-width="1.5" stroke-miterlimit="10"/>
<path d="M9.64575 13.4902L11.3857 15.8095" stroke="#0D2996" stroke-width="1.5" stroke-linecap="round" stroke-linejoin="round"/>
<path d="M12.8483 16.4901L15.2943 15.1792C15.2943 15.1792 15.1177 15.3053 15.0421 15.3557" stroke="#0D2996" stroke-width="1.5" stroke-linecap="round" stroke-linejoin="round"/>
<path d="M12.6213 13.8682L12.9492 14.4984" stroke="#0D2996" stroke-width="1.5" stroke-linecap="round" stroke-linejoin="round"/>
<path d="M15.4961 12.9858L16.2526 14.0698" stroke="#0D2996" stroke-width="1.5" stroke-linecap="round" stroke-linejoin="round"/>
<path d="M16.2777 16.5151V18.5571" stroke="#0D2996" stroke-width="1.5" stroke-linecap="round" stroke-linejoin="round"/>
<path d="M13.8821 19.6162L11.9657 21.5069" stroke="#0D2996" stroke-width="1.5" stroke-linecap="round" stroke-linejoin="round"/>
<path d="M8.38501 17.3975L11.764 18.8848" stroke="#0D2996" stroke-width="1.5" stroke-linecap="round" stroke-linejoin="round"/>
<path d="M15.4456 20.0195L15.8995 22.6917" stroke="#0D2996" stroke-width="1.5" stroke-linecap="round" stroke-linejoin="round"/>
<path d="M18.1941 20.2212L18.8497 22.1119" stroke="#0D2996" stroke-width="1.5" stroke-linecap="round" stroke-linejoin="round"/>
<path d="M17.7908 18.6075L18.6229 18.4814" stroke="#0D2996" stroke-width="1.5" stroke-linecap="round" stroke-linejoin="round"/>
<path d="M18.0176 15.8852L19.6314 14.4482" stroke="#0D2996" stroke-width="1.5" stroke-linecap="round" stroke-linejoin="round"/>
<path d="M19.0768 17.0444H19.5307" stroke="#0D2996" stroke-width="1.5" stroke-linecap="round" stroke-linejoin="round"/>
<path d="M20.2115 19.2378L21.0437 19.3638" stroke="#0D2996" stroke-width="1.5" stroke-linecap="round" stroke-linejoin="round"/>
<path d="M13.5795 17.8516H14.4116" stroke="#0D2996" stroke-width="1.5" stroke-linecap="round" stroke-linejoin="round"/>
<path d="M10.5283 22.8174L13.1256 23.5989" stroke="#0D2996" stroke-width="1.5" stroke-linecap="round" stroke-linejoin="round"/>
<path d="M9.2676 19.6162L9.21716 22.7169" stroke="#0D2996" stroke-width="1.5" stroke-linecap="round" stroke-linejoin="round"/>
<path d="M14.7646 23.6997L15.1429 24.2039" stroke="#0D2996" stroke-width="1.5" stroke-linecap="round" stroke-linejoin="round"/>
<path d="M17.0089 23.8258L19.9844 23.5737" stroke="#0D2996" stroke-width="1.5" stroke-linecap="round" stroke-linejoin="round"/>
<path d="M21.4976 16.2378L21.6236 17.8512" stroke="#0D2996" stroke-width="1.5" stroke-linecap="round" stroke-linejoin="round"/>
<path d="M20.9175 21.8345L22.1783 20.8262" stroke="#0D2996" stroke-width="1.5" stroke-linecap="round" stroke-linejoin="round"/>
<path d="M17.0342 11.7505L20.6149 13.0614" stroke="#0D2996" stroke-width="1.5" stroke-linecap="round" stroke-linejoin="round"/>
</svg>
