<svg width="105" height="84" viewBox="0 0 105 84" fill="none" xmlns="http://www.w3.org/2000/svg">
<path fill-rule="evenodd" clip-rule="evenodd" d="M84.3341 66.7804L97.483 79.9472L93.4309 84L13.6023 4.06236L17.6448 0L31.2709 13.6447C37.8573 11.0066 45.0164 9.55849 52.5 9.55849C75.4473 9.55849 95.3209 23.1698 105 43.0132C100.331 52.6257 93.1998 60.8267 84.3341 66.7804ZM35.7286 18.1133L43.6705 26.066C47.2736 24.1798 51.3839 23.4947 55.4029 24.1105C59.4219 24.7263 63.1396 26.6109 66.0145 29.4898C68.8895 32.3686 70.7715 36.0914 71.3865 40.1159C72.0014 44.1404 71.3173 48.2563 69.4336 51.8644L80.1961 62.6416C87.7084 57.8623 94.0561 51.157 98.5473 43.018C89.1832 26.0469 71.7532 15.2936 52.5 15.2936C46.7922 15.2972 41.1246 16.2501 35.7286 18.1133ZM65.0905 47.5153C65.9421 45.129 66.0997 42.5496 65.5448 40.0772C64.9899 37.6048 63.7453 35.341 61.9559 33.5492C60.1665 31.7573 57.9058 30.5111 55.4367 29.9554C52.9677 29.3997 50.3919 29.5575 48.0089 30.4103L65.0905 47.5153ZM73.7291 72.3864C67.1427 75.0246 59.9836 76.4727 52.5 76.4727C29.5527 76.4727 9.67909 62.8614 0 43.018C4.66926 33.4055 11.8002 25.2044 20.6659 19.2508L24.8039 23.3944C17.1412 28.2903 10.8308 35.0366 6.45273 43.0132C15.8168 59.9795 33.2468 70.7328 52.5 70.7328C58.2078 70.7292 63.8754 69.7763 69.2714 67.9131L73.7291 72.3864ZM35.5711 34.1716L39.9095 38.5207C39.0579 40.907 38.9003 43.4863 39.4552 45.9587C40.0101 48.4311 41.2547 50.6949 43.0441 52.4868C44.8335 54.2786 47.0942 55.5249 49.5633 56.0806C52.0323 56.6362 54.6081 56.4785 56.9911 55.6256L61.3343 59.9652C57.7312 61.8514 53.6209 62.5365 49.6019 61.9207C45.5829 61.3048 41.8652 59.4203 38.9903 56.5414C36.1153 53.6625 34.2333 49.9398 33.6183 45.9153C33.0033 41.8908 33.6875 37.7796 35.5711 34.1716Z" fill="black"/>
</svg>
