<svg width="35" height="22" viewBox="0 0 35 22" fill="none" xmlns="http://www.w3.org/2000/svg">
<path fill-rule="evenodd" clip-rule="evenodd" d="M17.2097 20.1143C23.5209 20.1143 29.2346 16.5786 32.3041 11C29.2346 5.42143 23.5209 1.88571 17.2097 1.88571C10.8984 1.88571 5.18481 5.42143 2.11523 11C5.18481 16.5786 10.8984 20.1143 17.2097 20.1143ZM17.2097 0C24.7319 0 31.2465 4.47543 34.4194 11C31.2465 17.5246 24.7319 22 17.2097 22C9.68748 22 3.17284 17.5246 0 11C3.17284 4.47543 9.68748 0 17.2097 0ZM17.2097 15.4C18.3715 15.4 19.4857 14.9364 20.3073 14.1113C21.1288 13.2861 21.5903 12.167 21.5903 11C21.5903 9.83305 21.1288 8.71389 20.3073 7.88873C19.4857 7.06357 18.3715 6.6 17.2097 6.6C16.0479 6.6 14.9336 7.06357 14.1121 7.88873C13.2906 8.71389 12.829 9.83305 12.829 11C12.829 12.167 13.2906 13.2861 14.1121 14.1113C14.9336 14.9364 16.0479 15.4 17.2097 15.4ZM17.2097 17.2857C15.5499 17.2857 13.9582 16.6235 12.7846 15.4447C11.6109 14.2659 10.9516 12.6671 10.9516 11C10.9516 9.33292 11.6109 7.73413 12.7846 6.55533C13.9582 5.37653 15.5499 4.71429 17.2097 4.71429C18.8694 4.71429 20.4612 5.37653 21.6348 6.55533C22.8084 7.73413 23.4677 9.33292 23.4677 11C23.4677 12.6671 22.8084 14.2659 21.6348 15.4447C20.4612 16.6235 18.8694 17.2857 17.2097 17.2857Z" fill="black"/>
</svg>
