<svg width="28" height="29" viewBox="0 0 28 29" fill="none" xmlns="http://www.w3.org/2000/svg">
<path d="M26.46 0H1.54C1.13157 0 0.739862 0.168044 0.451056 0.467165C0.16225 0.766285 0 1.17198 0 1.595V27.405C0 27.828 0.16225 28.2337 0.451056 28.5328C0.739862 28.832 1.13157 29 1.54 29H14.952V17.7625H11.312V13.4125H14.952V10.15C14.8766 9.38405 14.9639 8.61028 15.2078 7.88298C15.4517 7.15567 15.8463 6.49244 16.3639 5.9398C16.8814 5.38715 17.5095 4.95848 18.204 4.68385C18.8984 4.40921 19.6425 4.29527 20.384 4.35C21.4737 4.34221 22.5629 4.40031 23.646 4.524V8.439H21.42C19.656 8.439 19.32 9.309 19.32 10.5705V13.369H23.52L22.974 17.719H19.32V29H26.46C26.6622 29 26.8625 28.9587 27.0493 28.8786C27.2362 28.7984 27.4059 28.6809 27.5489 28.5328C27.6919 28.3847 27.8054 28.2089 27.8828 28.0154C27.9602 27.8219 28 27.6145 28 27.405V1.595C28 1.38554 27.9602 1.17813 27.8828 0.98462C27.8054 0.791106 27.6919 0.615274 27.5489 0.467165C27.4059 0.319055 27.2362 0.201569 27.0493 0.121412C26.8625 0.041256 26.6622 0 26.46 0Z" fill="#05299B"/>
</svg>
