<svg width="20" height="19" viewBox="0 0 20 19" fill="none" xmlns="http://www.w3.org/2000/svg">
<path d="M10.0781 15.5625C11.5781 14.2188 12.6875 13.2031 13.4062 12.5156C14.125 11.8281 14.9062 11.0156 15.75 10.0781C16.5938 9.14062 17.1719 8.3125 17.4844 7.59375C17.8281 6.875 18 6.17188 18 5.48438C18 4.48438 17.6562 3.65625 16.9688 3C16.3125 2.34375 15.4844 2.01562 14.4844 2.01562C13.7031 2.01562 12.9688 2.23438 12.2812 2.67188C11.625 3.10937 11.1719 3.67187 10.9219 4.35938H9.04688C8.79688 3.67187 8.32812 3.10937 7.64062 2.67188C6.98438 2.23438 6.26562 2.01562 5.48438 2.01562C4.48438 2.01562 3.64062 2.34375 2.95312 3C2.29688 3.65625 1.96875 4.48438 1.96875 5.48438C1.96875 6.17188 2.125 6.875 2.4375 7.59375C2.78125 8.3125 3.375 9.14062 4.21875 10.0781C5.0625 11.0156 5.84375 11.8281 6.5625 12.5156C7.28125 13.2031 8.39062 14.2188 9.89062 15.5625L9.98438 15.6562L10.0781 15.5625ZM14.4844 0C16.0469 0 17.3438 0.53125 18.375 1.59375C19.4375 2.65625 19.9688 3.95312 19.9688 5.48438C19.9688 6.39062 19.7969 7.28125 19.4531 8.15625C19.1094 9 18.4688 9.95312 17.5312 11.0156C16.625 12.0781 15.7969 12.9688 15.0469 13.6875C14.2969 14.4062 13.0938 15.5156 11.4375 17.0156L9.98438 18.3281L8.53125 17.0625C6.375 15.125 4.8125 13.6719 3.84375 12.7031C2.90625 11.7344 2.03125 10.5938 1.21875 9.28125C0.40625 7.96875 0 6.70312 0 5.48438C0 3.95312 0.515625 2.65625 1.54688 1.59375C2.60938 0.53125 3.92188 0 5.48438 0C7.29688 0 8.79688 0.703125 9.98438 2.10938C11.1719 0.703125 12.6719 0 14.4844 0Z" fill="#061F7C"/>
</svg>
