<svg width="26" height="29" viewBox="0 0 26 29" fill="none" xmlns="http://www.w3.org/2000/svg">
<path d="M4.19945 27.9126C2.43248 27.9126 1 26.4474 1 24.6383V11.4782C1 10.484 1.44249 9.54204 2.19998 8.92156L11.0003 1.71807C11.5626 1.25396 12.2698 1 12.9998 1C13.7299 1 14.437 1.25396 14.9993 1.71807L23.7982 8.92156C24.5571 9.54204 24.9996 10.484 24.9996 11.4782V24.6383C24.9996 26.4474 23.5672 27.9126 21.8002 27.9126H4.19945Z" stroke="#0E2CA4" stroke-width="2" stroke-linecap="round" stroke-linejoin="round"/>
<path d="M9.25 27.9126V19.6895C9.25 18.8964 9.56607 18.1358 10.1287 17.575C10.6913 17.0143 11.4543 16.6992 12.25 16.6992H13.7499C14.5456 16.6992 15.3086 17.0143 15.8712 17.575C16.4338 18.1358 16.7499 18.8964 16.7499 19.6895V27.9126" stroke="#0E2CA4" stroke-width="2" stroke-linecap="round" stroke-linejoin="round"/>
</svg>
