<svg width="24" height="31" viewBox="0 0 24 31" fill="none" xmlns="http://www.w3.org/2000/svg">
<path d="M11.1042 16.3467H12.8125V8.33333H11.1042V16.3467ZM11.9583 21.025C12.2567 21.025 12.5067 20.9267 12.7083 20.73C12.9099 20.5333 13.0101 20.29 13.009 20C13.0078 19.71 12.907 19.4667 12.7066 19.27C12.5061 19.0733 12.2567 18.975 11.9583 18.975C11.6599 18.975 11.4105 19.0733 11.2101 19.27C11.0096 19.4667 10.9088 19.71 10.9077 20C10.9066 20.29 11.0074 20.5339 11.2101 20.7317C11.4128 20.9294 11.6622 21.0272 11.9583 21.025ZM0 26.2833V24.6167H2.76067V11.41C2.76067 9.23222 3.46678 7.31722 4.879 5.665C6.29122 4.01278 8.08156 2.98333 10.25 2.57667V1.66667C10.25 1.20333 10.4157 0.81 10.7471 0.486667C11.0785 0.162222 11.4811 0 11.9549 0C12.4287 0 12.8324 0.162222 13.1661 0.486667C13.4998 0.811111 13.6667 1.20444 13.6667 1.66667V2.57667C15.8351 2.98222 17.6254 4.01167 19.0377 5.665C20.4499 7.31833 21.156 9.23333 21.156 11.41V24.615H23.9167V26.2817L0 26.2833ZM11.9532 30.6433C11.1924 30.6433 10.5433 30.3794 10.0057 29.8517C9.46815 29.3239 9.19938 28.6906 9.19938 27.9517H14.7173C14.7173 28.6961 14.4468 29.3306 13.9058 29.855C13.3637 30.3794 12.7128 30.6433 11.9532 30.6433ZM4.469 24.6167H19.4494V11.41C19.4494 9.38444 18.7199 7.66 17.261 6.23667C15.8021 4.81333 14.0345 4.10222 11.9583 4.10333C9.88214 4.10444 8.11458 4.81556 6.65567 6.23667C5.19675 7.65778 4.46786 9.38222 4.469 11.41V24.6167Z" fill="#061F7C"/>
</svg>
