<svg width="31" height="32" viewBox="0 0 31 32" fill="none" xmlns="http://www.w3.org/2000/svg">
<path d="M23.2772 7.00342C23.6965 7.00342 24.1111 7.36598 24.1111 7.90576C24.1111 8.44551 23.6965 8.80811 23.2772 8.80811C22.8579 8.80792 22.4442 8.44537 22.4442 7.90576C22.4442 7.36612 22.8579 7.00361 23.2772 7.00342Z" stroke="#05299B" stroke-width="3"/>
<path d="M21.7222 1.5C26.0156 1.5 29.5 5.0874 29.5 9.50758V22.3197C29.5 26.7399 26.0156 30.3273 21.7222 30.3273H9.27778C4.98444 30.3273 1.5 26.7399 1.5 22.3197V9.50758C1.5 5.0874 4.98444 1.5 9.27778 1.5H15.5H21.7222Z" stroke="#05299B" stroke-width="3" stroke-linecap="round" stroke-linejoin="round"/>
<path d="M15.4994 9.50781C18.9372 9.50781 21.7217 12.3745 21.7217 15.9139C21.7217 19.4532 18.9372 22.3199 15.4994 22.3199C12.0617 22.3199 9.27722 19.4532 9.27722 15.9139C9.27722 12.3745 12.0617 9.50781 15.4994 9.50781Z" stroke="#05299B" stroke-width="3" stroke-linecap="round" stroke-linejoin="round"/>
</svg>
