<svg width="76" height="61" viewBox="0 0 76 61" fill="none" xmlns="http://www.w3.org/2000/svg">
<path d="M75.8825 2.50452C75.8463 1.8827 75.5837 1.29586 75.1447 0.855411C74.7056 0.414965 74.1206 0.151582 73.5008 0.115268C57.1074 -0.837892 43.9446 4.16302 38.288 13.5294C34.5508 19.7218 34.5571 27.2422 38.2374 34.4163C36.1423 36.9177 34.6113 39.8441 33.7495 42.9948L28.5965 37.8064C31.0732 32.618 30.9782 27.2105 28.2797 22.7179C24.0991 15.7948 14.4487 12.0838 2.46721 12.7891C1.84735 12.8254 1.26236 13.0888 0.8233 13.5293C0.384243 13.9697 0.121692 14.5566 0.0854926 15.1784C-0.620789 27.1977 3.08165 36.8787 9.98294 41.0726C12.2602 42.4687 14.8773 43.2075 17.5462 43.2077C20.1366 43.1754 22.6867 42.5598 25.008 41.4062L32.926 49.3492V58.4582C32.926 59.1324 33.1929 59.7789 33.6681 60.2555C34.1433 60.7322 34.7878 61 35.4597 61C36.1317 61 36.7762 60.7322 37.2514 60.2555C37.7265 59.7789 37.9935 59.1324 37.9935 58.4582V49.0887C37.982 45.045 39.3537 41.1198 41.8796 37.9685C45.1384 39.6771 48.7527 40.5914 52.4295 40.6373C55.9843 40.6488 59.473 39.6746 62.5106 37.8223C71.8475 32.1542 76.8453 18.9497 75.8825 2.50452ZM12.5959 36.7262C7.7374 33.7746 4.98829 26.7879 5.0548 17.79C14.0243 17.7138 20.9889 20.4811 23.9312 25.355C25.4673 27.8967 25.7175 30.8611 24.7103 33.9143L16.9792 26.1588C16.5002 25.7022 15.8623 25.4515 15.2016 25.46C14.5409 25.4685 13.9097 25.7355 13.4424 26.2042C12.9752 26.6729 12.709 27.3062 12.7005 27.969C12.6921 28.6318 12.942 29.2717 13.3972 29.7522L21.1282 37.5078C18.0846 38.5181 15.1328 38.2671 12.5959 36.7262ZM59.885 33.4791C55.641 36.0558 50.6527 36.2528 45.5852 34.1145L62.5898 17.0529C63.0449 16.5724 63.2949 15.9325 63.2864 15.2697C63.278 14.6069 63.0118 13.9736 62.5445 13.5049C62.0773 13.0362 61.446 12.7692 60.7853 12.7607C60.1246 12.7522 59.4868 13.003 59.0077 13.4595L42 30.4989C39.859 25.4153 40.0522 20.4081 42.6334 16.1538C47.0485 8.84622 57.5192 4.77305 70.9258 5.08759C71.2299 18.5335 67.1759 29.0501 59.885 33.4791Z" fill="#0E2CA4"/>
</svg>
