<svg width="13" height="21" viewBox="0 0 13 21" fill="none" xmlns="http://www.w3.org/2000/svg">
<path d="M11.623 0.25C11.7649 0.247661 11.9067 0.270304 12.04 0.316406C12.1733 0.362528 12.2965 0.432325 12.4023 0.522461C12.5084 0.612715 12.5959 0.722071 12.6562 0.845703C12.7166 0.969374 12.7487 1.10415 12.75 1.24121C12.7513 1.37824 12.7211 1.51303 12.6631 1.6377C12.605 1.76237 12.5205 1.87389 12.416 1.96582L2.92383 10.5L12.416 19.0342C12.5205 19.1261 12.605 19.2376 12.6631 19.3623C12.7211 19.487 12.7513 19.6218 12.75 19.7588C12.7487 19.8958 12.7166 20.0306 12.6562 20.1543C12.5959 20.2779 12.5084 20.3873 12.4023 20.4775C12.2965 20.5677 12.1733 20.6375 12.04 20.6836C11.9067 20.7297 11.7649 20.7523 11.623 20.75C11.4812 20.7476 11.3404 20.7205 11.209 20.6699C11.0781 20.6196 10.9574 20.5464 10.8555 20.4531L0.575195 11.209C0.371141 11.0255 0.25 10.7717 0.25 10.5C0.25 10.2283 0.371141 9.97452 0.575195 9.79102L10.8555 0.546875C10.9574 0.453623 11.0781 0.380437 11.209 0.330078C11.3404 0.279534 11.4812 0.252363 11.623 0.25Z" fill="#061F7C" stroke="#061F7C" stroke-width="0.5"/>
</svg>
