<svg width="34" height="30" viewBox="0 0 34 30" fill="none" xmlns="http://www.w3.org/2000/svg">
<path d="M2.21838 12.1641H7.9934V27.5412H2.22084C2.06063 27.5415 1.90193 27.5102 1.75383 27.4492C1.60572 27.3881 1.47112 27.2984 1.35772 27.1852C1.24433 27.072 1.15436 26.9376 1.09298 26.7896C1.0316 26.6417 1 26.483 1 26.3228V13.3824C1 13.0593 1.12836 12.7494 1.35686 12.5209C1.58535 12.2924 1.89525 12.1641 2.21838 12.1641Z" stroke="#0E2CA4" stroke-width="2" stroke-linecap="round" stroke-linejoin="round"/>
<path d="M8.0187 27.6121L9.77504 28.489C10.4555 28.828 11.2047 29.0024 11.9662 29H27.9549C28.6322 28.9996 29.2859 28.7517 29.7931 28.3029C30.3003 27.8541 30.6259 27.2354 30.7086 26.5632L32.6565 13.9888C32.7157 13.5976 32.6913 13.1983 32.585 12.8172C32.4786 12.4361 32.2927 12.0818 32.0395 11.7778C31.7863 11.4737 31.4715 11.2268 31.116 11.0533C30.7604 10.8797 30.372 10.7835 29.9766 10.7709H19.2764V3.67928C19.2734 3.31809 19.198 2.96118 19.0546 2.62964C18.9113 2.29811 18.7029 1.99868 18.4418 1.74906C18.1807 1.49945 17.8723 1.3047 17.5347 1.17635C17.197 1.048 16.8371 0.988643 16.4761 1.00179C16.0171 0.996722 15.5646 1.11085 15.1629 1.33302C14.7612 1.55519 14.424 1.87779 14.1843 2.2693L7.99414 12.1637V27.5409" stroke="#0E2CA4" stroke-width="2" stroke-linecap="round" stroke-linejoin="round"/>
</svg>
