<svg width="41" height="34" viewBox="0 0 41 34" fill="none" xmlns="http://www.w3.org/2000/svg">
<path d="M8.9322 5.11494H23.4746C24.2678 5.11494 24.7966 5.54321 24.7966 6.18562V11.539M8.9322 28.6699H23.4746C24.2678 28.6699 24.7966 28.2417 24.7966 27.5993V22.2459M39.339 16.8924H18.1864M32.7288 10.4684L39.6034 16.0359C40.1322 16.4642 40.1322 17.1066 39.6034 17.5349L32.7288 23.3165M1.52881 4.9008L6.81695 1.26049C7.61017 0.618076 8.9322 1.26049 8.9322 2.11703V31.882C8.9322 32.7385 7.61017 33.3809 6.81695 32.7385L1.52881 29.0982C1.26441 28.8841 1 28.6699 1 28.2417V5.54321C1 5.32908 1.26441 4.9008 1.52881 4.9008Z" stroke="#0E2CA4" stroke-width="2" stroke-linecap="round" stroke-linejoin="round"/>
</svg>
