<svg width="11" height="18" viewBox="0 0 11 18" fill="none" xmlns="http://www.w3.org/2000/svg">
<path d="M1.23145 17.75C1.10785 17.7521 0.984313 17.7324 0.868164 17.6914C0.751956 17.6504 0.644031 17.5879 0.551758 17.5078C0.459598 17.4277 0.384445 17.3302 0.332031 17.2207C0.279557 17.111 0.25113 16.9916 0.25 16.8701C0.248925 16.7488 0.274719 16.6291 0.325195 16.5186C0.375711 16.408 0.450019 16.3092 0.541016 16.2275L8.4209 9L0.541016 1.77246C0.450019 1.69077 0.375712 1.59204 0.325195 1.48145C0.274719 1.37089 0.248925 1.25125 0.25 1.12988C0.25113 1.00843 0.279556 0.889024 0.332031 0.779297C0.384445 0.669787 0.459598 0.572318 0.551758 0.492188C0.644031 0.412059 0.751956 0.349595 0.868164 0.308594C0.984314 0.267629 1.10785 0.247935 1.23145 0.25C1.35514 0.252102 1.47811 0.276275 1.59277 0.321289C1.70651 0.365949 1.81074 0.431093 1.89941 0.513672L10.4668 8.37109C10.6446 8.53417 10.75 8.75939 10.75 9C10.75 9.24061 10.6446 9.46583 10.4668 9.62891L1.89941 17.4863C1.81074 17.5689 1.70651 17.634 1.59277 17.6787C1.47812 17.7237 1.35515 17.7479 1.23145 17.75Z" fill="#AEBED2" stroke="#AEBED2" stroke-width="0.5"/>
</svg>
