<svg width="30" height="29" viewBox="0 0 30 29" fill="none" xmlns="http://www.w3.org/2000/svg">
<path d="M25.3172 5.99352C24.7373 7.75817 21.7113 8.11111 20.1731 7.95985C17.954 7.75818 15.7854 7.12794 13.7933 6.16999C12.6082 5.59017 11.4734 4.90953 10.4396 4.07762C9.78394 3.54823 7.99357 2.43902 8.52312 1.40544C8.87615 0.724786 11.6752 0.775209 12.3812 0.75C13.7177 0.75 15.0542 0.850831 16.3654 1.12813C22.8965 2.3886 29.0493 7.73296 28.671 14.6403C28.6458 15.2453 28.5449 15.8503 28.4189 16.4554C27.8389 19.0519 26.1746 21.2703 24.0564 22.8585C21.7113 24.598 18.2062 25.2786 15.4072 26.0601C14.1968 26.3878 12.9864 26.6903 11.776 26.9676C11.1456 27.1189 9.48134 27.7239 8.90136 27.1693C8.90136 27.1693 7.48924 25.9088 6.9597 25.1274C3.20246 19.6822 -1.66431 12.674 2.11815 6.09436C3.4294 3.80032 5.77453 2.16172 8.3466 1.38023C8.39704 1.38023 8.44747 1.35502 8.4979 1.32981" stroke="#0D2996" stroke-width="1.5" stroke-miterlimit="10"/>
<path d="M10.4396 4.10303C3.60595 7.50628 4.63982 16.6825 7.11103 22.7075C7.71622 24.1948 7.96838 25.783 8.87617 27.1947" stroke="#0D2996" stroke-width="1.5" stroke-miterlimit="10"/>
<path d="M14.3985 6.47266C10.843 11.6658 8.49785 16.1782 9.50651 27.1695" stroke="#0D2996" stroke-width="1.5" stroke-miterlimit="10"/>
<path d="M20.1731 7.95996C20.854 11.3128 19.5427 15.2454 17.9541 18.2201C16.2394 21.4469 12.4821 25.3291 9.50659 27.1694" stroke="#0D2996" stroke-width="1.5" stroke-miterlimit="10"/>
<path d="M23.5774 7.53125C23.9052 8.08585 23.9557 8.38837 24.1574 8.99339C26.4016 15.573 19.9967 22.0014 14.6508 24.7744C13.6674 25.2786 11.4988 26.4886 10.364 26.5642" stroke="#0D2996" stroke-width="1.5" stroke-miterlimit="10"/>
</svg>
