<svg width="13" height="21" viewBox="0 0 13 21" fill="none" xmlns="http://www.w3.org/2000/svg">
<path d="M1.37695 20.75C1.23505 20.7523 1.09329 20.7297 0.959961 20.6836C0.826658 20.6375 0.703539 20.5677 0.597656 20.4775C0.491644 20.3873 0.404107 20.2779 0.34375 20.1543C0.283443 20.0306 0.251302 19.8958 0.25 19.7588C0.248737 19.6218 0.278881 19.487 0.336914 19.3623C0.394999 19.2376 0.479531 19.1261 0.583984 19.0342L10.0762 10.5L0.583984 1.96582C0.47953 1.87389 0.394999 1.76237 0.336914 1.6377C0.278881 1.51303 0.248737 1.37824 0.25 1.24121C0.251302 1.10415 0.283443 0.969373 0.34375 0.845703C0.404106 0.722072 0.491644 0.612716 0.597656 0.522461C0.703542 0.432321 0.826661 0.362528 0.959961 0.316406C1.09329 0.270306 1.23505 0.247661 1.37695 0.25C1.51879 0.252362 1.65956 0.279534 1.79102 0.330078C1.92186 0.380437 2.04258 0.453622 2.14453 0.546875L12.4248 9.79102C12.6289 9.97452 12.75 10.2283 12.75 10.5C12.75 10.7717 12.6289 11.0255 12.4248 11.209L2.14453 20.4531C2.04258 20.5464 1.92186 20.6196 1.79102 20.6699C1.65955 20.7205 1.51879 20.7476 1.37695 20.75Z" fill="#061F7C" stroke="#061F7C" stroke-width="0.5"/>
</svg>
