<svg width="24" height="23" viewBox="0 0 24 23" fill="none" xmlns="http://www.w3.org/2000/svg">
<path d="M11.376 1.34536C11.5257 0.884705 12.1774 0.884706 12.3271 1.34536L14.5457 8.17363C14.6127 8.37964 14.8046 8.51912 15.0213 8.51912H22.2009C22.6853 8.51912 22.8867 9.13893 22.4948 9.42363L16.6863 13.6437C16.5111 13.7711 16.4378 13.9967 16.5047 14.2028L18.7234 21.031C18.873 21.4917 18.3458 21.8747 17.9539 21.59L12.1455 17.3699C11.9702 17.2426 11.7329 17.2426 11.5577 17.3699L5.7492 21.59C5.35734 21.8747 4.8301 21.4917 4.97977 21.031L7.19841 14.2028C7.26535 13.9967 7.19202 13.7711 7.01678 13.6437L1.2083 9.42363C0.816447 9.13893 1.01784 8.51912 1.5022 8.51912H8.68187C8.89848 8.51912 9.09046 8.37964 9.15739 8.17363L11.376 1.34536Z" stroke="#F0D051" stroke-width="2"/>
</svg>
