<svg width="13" height="12" viewBox="0 0 13 12" fill="none" xmlns="http://www.w3.org/2000/svg">
<path d="M5.61956 0.345362C5.76924 -0.115294 6.42095 -0.115294 6.57062 0.345361L7.66669 3.71872C7.73363 3.92473 7.92561 4.06421 8.14222 4.06421H11.6892C12.1735 4.06421 12.3749 4.68402 11.9831 4.96872L9.11352 7.05357C8.93828 7.18089 8.86495 7.40657 8.93188 7.61258L10.028 10.9859C10.1776 11.4466 9.65039 11.8297 9.25853 11.545L6.38899 9.46011C6.21374 9.33278 5.97644 9.33278 5.8012 9.46011L2.93165 11.545C2.5398 11.8297 2.01256 11.4466 2.16223 10.9859L3.2583 7.61258C3.32524 7.40657 3.25191 7.18089 3.07667 7.05357L0.207118 4.96872C-0.184739 4.68402 0.0166487 4.06421 0.50101 4.06421H4.04797C4.26458 4.06421 4.45656 3.92473 4.52349 3.71872L5.61956 0.345362Z" fill="#F0D051"/>
</svg>
