<svg width="33" height="27" viewBox="0 0 33 27" fill="none" xmlns="http://www.w3.org/2000/svg">
<path d="M8.24294 13.9935C6.78038 13.6406 5.34305 13.2876 3.8805 12.9347C3.19966 12.7582 2.51881 12.607 1.91362 12.733C1.30843 12.8591 0.804097 13.3381 0.753665 14.1448C0.703232 15.0271 1.18234 16.0606 1.63624 16.9934C2.41795 18.632 3.22487 20.2706 4.00658 21.9344C4.53612 23.0436 5.14132 24.2537 6.02389 24.9343C6.90647 25.6402 7.86469 25.5898 8.52032 25.1108C9.17594 24.657 9.57941 23.8251 9.98287 23.0184C10.5124 21.9596 11.042 20.9008 11.5715 19.8168" stroke="#0D2996" stroke-width="1.5" stroke-miterlimit="10"/>
<path d="M21.5571 7.11143C22.1875 5.72492 22.8432 4.31322 23.4736 2.92671C23.7762 2.27127 24.104 1.5906 24.5831 1.16205C25.0622 0.73349 25.8187 0.582235 26.5248 0.985583C27.3065 1.43935 27.8864 2.42252 28.3656 3.35526C29.2481 4.94344 30.1055 6.55684 30.9881 8.14502C31.5933 9.22902 32.1984 10.4139 32.2237 11.5483C32.2237 12.7079 31.568 13.4642 30.7611 13.7667C29.9542 14.0692 28.9707 13.9432 28.0377 13.8171C26.8274 13.6659 25.617 13.5146 24.3814 13.3381" stroke="#0D2996" stroke-width="1.5" stroke-miterlimit="10"/>
<path d="M19.9035 20.2965C23.932 18.2338 25.5869 13.4173 23.5999 9.53867C21.6128 5.65999 16.7361 4.18783 12.7076 6.25052C8.67909 8.31321 7.02419 13.1297 9.01128 17.0083C10.9984 20.887 15.875 22.3592 19.9035 20.2965Z" stroke="#0D2996" stroke-width="1.5" stroke-miterlimit="10"/>
<path d="M4.66223 17.5731C6.12478 17.4471 7.58733 17.3463 9.02467 17.2202C9.04988 17.2202 9.10032 17.2202 9.12553 17.2202" stroke="#0D2996" stroke-width="1.5" stroke-linecap="round" stroke-linejoin="round"/>
<path d="M9.1002 17.1699H9.04977C9.04977 17.1699 9.04977 17.2204 9.02455 17.2456C8.44458 18.6825 7.68808 20.0438 6.37683 20.5984" stroke="#0D2996" stroke-width="1.5" stroke-linecap="round" stroke-linejoin="round"/>
<path d="M27.937 9.80891C26.5753 10.061 25.138 10.061 23.6754 9.78369" stroke="#0D2996" stroke-width="1.5" stroke-linecap="round" stroke-linejoin="round"/>
<path d="M23.6501 9.65762C24.3058 8.29632 25.0623 7.21232 26.3735 6.65771" stroke="#0D2996" stroke-width="1.5" stroke-linecap="round" stroke-linejoin="round"/>
</svg>
