<svg width="27" height="28" viewBox="0 0 27 28" fill="none" xmlns="http://www.w3.org/2000/svg">
<path d="M24.699 0.247213C24.699 0.247213 27.1965 -0.964782 26.9876 1.9784C26.9188 3.1904 26.2946 7.43278 25.8086 12.0208L24.1436 25.6127C24.1436 25.6127 24.0047 27.6039 22.7556 27.9503C21.5072 28.2959 19.6339 26.7383 19.2867 26.3919C19.009 26.1319 14.0834 22.2359 12.3489 20.3319C11.8629 19.8119 11.3075 18.7735 12.4184 17.5615L19.7033 8.90398C20.5358 7.86398 21.3683 5.43999 17.8994 8.38398L8.18577 16.6079C8.18577 16.6079 7.07554 17.4743 4.99459 16.6951L0.484265 14.9632C0.484265 14.9632 -1.18075 13.6648 1.66392 12.3664C8.60234 8.29758 17.1364 4.1424 24.6983 0.246413" fill="#05299B"/>
</svg>
