<svg width="23" height="25" viewBox="0 0 23 25" fill="none" xmlns="http://www.w3.org/2000/svg">
<path d="M1 6.30769H22M7.125 6.30769V5.42308C7.125 4.25 7.58594 3.12498 8.40641 2.29549C9.22688 1.466 10.3397 1 11.5 1C12.6603 1 13.7731 1.466 14.5936 2.29549C15.4141 3.12498 15.875 4.25 15.875 5.42308V6.30769M8.875 11.6172V18.6976M14.125 11.6172V18.6976M3.625 6.30769H19.375V22.2308C19.375 22.7 19.1906 23.15 18.8624 23.4818C18.5342 23.8136 18.0891 24 17.625 24H5.375C4.91087 24 4.46575 23.8136 4.13756 23.4818C3.80937 23.15 3.625 22.7 3.625 22.2308V6.30769Z" stroke="#0E2CA4" stroke-width="2" stroke-linecap="round" stroke-linejoin="round"/>
</svg>
