<svg width="86" height="61" viewBox="0 0 86 61" fill="none" xmlns="http://www.w3.org/2000/svg">
<path d="M24.6448 61C21.6439 61 19.0888 59.9398 16.9795 57.8193C14.8702 55.7075 13.8156 53.1368 13.8156 50.1071H6.7996C6.18499 50.1071 5.67138 49.898 5.25876 49.4797C4.84614 49.0614 4.63838 48.5429 4.6355 47.9242C4.63261 47.3055 4.84037 46.7884 5.25876 46.3731C5.67715 45.9577 6.19076 45.75 6.7996 45.75H14.9236C15.7056 43.8125 16.968 42.2381 18.7108 41.0269C20.4536 39.8185 22.4287 39.2143 24.6361 39.2143C26.8435 39.2143 28.82 39.8185 30.5657 41.0269C32.3057 42.2381 33.5666 43.8125 34.3486 45.75H54.3362L63.8409 4.35714H19.0614C18.4468 4.35714 17.9317 4.148 17.5162 3.72971C17.1007 3.31143 16.8944 2.79293 16.8973 2.17421C16.9002 1.5555 17.1065 1.03845 17.5162 0.623072C17.9259 0.207691 18.441 0 19.0614 0H64.8407C65.9487 0 66.8519 0.447334 67.5502 1.342C68.2513 2.23667 68.4764 3.233 68.2254 4.331L65.7453 15.25H71.2464C72.3545 15.25 73.4033 15.4998 74.3931 15.9994C75.3857 16.4961 76.2022 17.1846 76.8428 18.0647L84.6206 28.5131C85.2496 29.3613 85.6579 30.2458 85.8455 31.1666C86.0359 32.0845 86.0503 33.0489 85.8887 34.0598L83.3005 47.2924C83.1389 48.1406 82.7292 48.8218 82.0713 49.3359C81.4134 49.8501 80.6661 50.1071 79.8293 50.1071H77.7387C77.7387 53.1252 76.6884 55.6959 74.5878 57.8193C72.4872 59.9427 69.9336 61.0029 66.9269 61C63.9203 60.9971 61.3652 59.9369 59.2617 57.8193C57.1553 55.7046 56.1021 53.1339 56.1021 50.1071H35.4566C35.4566 53.1252 34.4063 55.6959 32.3057 57.8193C30.205 59.9427 27.6514 61.0029 24.6448 61ZM60.9367 35.9464H81.0671L81.8332 32.0686L72.5795 19.6071H64.7109L60.9367 35.9464ZM55.3836 41.3841L55.9463 38.857C56.3214 37.1722 56.7975 35.1099 57.3746 32.6699C57.7006 31.3337 57.9863 30.0991 58.2316 28.9663C58.4739 27.8334 58.6673 26.8952 58.8115 26.1516L59.3742 23.6244C59.7493 21.9397 60.2254 19.8773 60.8025 17.4373C61.3796 14.9973 61.8557 12.9349 62.2308 11.2501L62.7935 8.723L63.8409 4.35714L54.3319 45.75L55.3836 41.3841ZM2.08186 34.8484C1.49034 34.8484 0.995485 34.6393 0.597291 34.221C0.199097 33.8027 0 33.2857 0 32.6699C0 32.054 0.206311 31.5355 0.618932 31.1144C1.03155 30.6932 1.54661 30.4855 2.1641 30.4913H17.2262C17.8408 30.4913 18.3559 30.7004 18.7714 31.1187C19.1869 31.537 19.3932 32.0555 19.3903 32.6742C19.3874 33.2929 19.1811 33.81 18.7714 34.2254C18.3617 34.6407 17.8466 34.8484 17.2262 34.8484H2.08186ZM10.7383 19.6159C10.1237 19.6159 9.6086 19.4067 9.19309 18.9884C8.77758 18.5701 8.56983 18.0516 8.56983 17.4329C8.56983 16.8142 8.77758 16.2972 9.19309 15.8818C9.6086 15.4664 10.1222 15.2587 10.7339 15.2587H30.2108C30.8254 15.2587 31.3405 15.4679 31.756 15.8861C32.1686 16.3044 32.3749 16.8229 32.3749 17.4416C32.3749 18.0604 32.1686 18.5774 31.756 18.9928C31.3434 19.4082 30.8283 19.6159 30.2108 19.6159H10.7383ZM24.6361 56.6429C26.4164 56.6429 27.9443 56.0024 29.2197 54.7214C30.4921 53.4374 31.1284 51.8994 31.1284 50.1071C31.1284 48.3149 30.4921 46.7768 29.2197 45.4929C27.9472 44.209 26.4193 43.5685 24.6361 43.5714C22.8529 43.5743 21.325 44.2148 20.0525 45.4929C18.78 46.7768 18.1438 48.3149 18.1438 50.1071C18.1438 51.8994 18.78 53.4374 20.0525 54.7214C21.3279 56.0024 22.8558 56.6429 24.6361 56.6429ZM66.9226 56.6429C68.7029 56.6429 70.2293 56.0024 71.5018 54.7214C72.7743 53.4374 73.4105 51.8994 73.4105 50.1071C73.4105 48.3149 72.7743 46.7768 71.5018 45.4929C70.2293 44.209 68.7015 43.5685 66.9183 43.5714C65.135 43.5743 63.6086 44.2148 62.339 45.4929C61.0636 46.7768 60.426 48.3149 60.426 50.1071C60.426 51.8994 61.0622 53.4374 62.3347 54.7214C63.6101 56.0024 65.1394 56.6429 66.9226 56.6429Z" fill="#0E2CA4"/>
</svg>
