<svg width="32" height="32" viewBox="0 0 32 32" fill="none" xmlns="http://www.w3.org/2000/svg">
<path d="M16 12.6667C16.766 12.6667 17.5246 12.5158 18.2323 12.2226C18.9401 11.9295 19.5831 11.4998 20.1248 10.9581C20.6665 10.4164 21.0961 9.77339 21.3893 9.06565C21.6824 8.35792 21.8333 7.59938 21.8333 6.83333C21.8333 6.06729 21.6824 5.30875 21.3893 4.60101C21.0961 3.89328 20.6665 3.25022 20.1248 2.70854C19.5831 2.16687 18.9401 1.73719 18.2323 1.44404C17.5246 1.15088 16.766 1 16 1C14.4529 1 12.9692 1.61458 11.8752 2.70854C10.7812 3.80251 10.1667 5.28624 10.1667 6.83333C10.1667 8.38043 10.7812 9.86416 11.8752 10.9581C12.9692 12.0521 14.4529 12.6667 16 12.6667ZM1 30V31H31V30C31 26.2667 31 24.4 30.2733 22.9733C29.6342 21.719 28.6144 20.6991 27.36 20.06C25.9333 19.3333 24.0667 19.3333 20.3333 19.3333H11.6667C7.93333 19.3333 6.06667 19.3333 4.64 20.06C3.38564 20.6991 2.36581 21.719 1.72667 22.9733C1 24.4 1 26.2667 1 30Z" stroke="#0E2CA4" stroke-width="2" stroke-linecap="round" stroke-linejoin="round"/>
</svg>
