<svg width="17" height="17" viewBox="0 0 17 17" fill="none" xmlns="http://www.w3.org/2000/svg">
<path d="M4.73438 9.42188C5.92188 9.14062 7.01562 9 8.01562 9C9.01562 9 10.1094 9.14062 11.2969 9.42188C12.4844 9.70312 13.5625 10.1719 14.5312 10.8281C15.5312 11.4844 16.0312 12.2188 16.0312 13.0312V16.0312H0V13.0312C0 12.2188 0.484375 11.4844 1.45312 10.8281C2.45312 10.1719 3.54688 9.70312 4.73438 9.42188ZM5.20312 1.21875C5.98438 0.40625 6.92188 0 8.01562 0C9.10938 0 10.0469 0.40625 10.8281 1.21875C11.6094 2 12 2.9375 12 4.03125C12 5.125 11.6094 6.0625 10.8281 6.84375C10.0469 7.625 9.10938 8.01562 8.01562 8.01562C6.92188 8.01562 5.98438 7.625 5.20312 6.84375C4.42188 6.0625 4.03125 5.125 4.03125 4.03125C4.03125 2.9375 4.42188 2 5.20312 1.21875ZM12.0938 11.7188C10.75 11.1875 9.39062 10.9219 8.01562 10.9219C6.64062 10.9219 5.28125 11.1875 3.9375 11.7188C2.59375 12.2188 1.92188 12.6562 1.92188 13.0312V14.1094H14.1094V13.0312C14.1094 12.6562 13.4375 12.2188 12.0938 11.7188ZM9.51562 2.53125C9.10938 2.125 8.60938 1.92188 8.01562 1.92188C7.42188 1.92188 6.92188 2.125 6.51562 2.53125C6.10938 2.9375 5.90625 3.4375 5.90625 4.03125C5.90625 4.625 6.10938 5.125 6.51562 5.53125C6.92188 5.90625 7.42188 6.09375 8.01562 6.09375C8.60938 6.09375 9.10938 5.90625 9.51562 5.53125C9.92188 5.125 10.125 4.625 10.125 4.03125C10.125 3.4375 9.92188 2.9375 9.51562 2.53125Z" fill="#061F7C"/>
</svg>
