<svg width="141" height="165" viewBox="0 0 141 165" fill="none" xmlns="http://www.w3.org/2000/svg">
<path d="M74.4623 48.656C72.372 39.4153 66.2779 31.5894 58.8492 27.0586C50.7131 22.098 41.0494 21.1488 32.0128 22.8501C24.4233 24.2828 16.657 28.4017 13.7466 36.8544C12.203 41.3315 12.0422 46.4354 9.54987 50.4826C8.32784 52.4705 6.73599 54.1359 5.4818 56.0879C4.2276 58.0399 3.24675 60.0278 2.45887 62.1947C-0.805246 71.2921 -0.178129 81.6252 0.722316 91.1524C1.76747 102.22 3.74522 113.18 7.58819 123.495C10.9327 132.485 15.8852 140.92 22.2687 147.617C28.6522 154.315 36.306 159.884 45.0049 160.422C49.4428 160.69 53.6235 159.347 56.9197 155.98C58.399 154.458 59.7336 152.793 61.8239 152.381C63.2389 152.112 64.6217 152.524 65.9402 153.097C72.2916 155.819 78.3213 162.642 85.6696 160.081C88.7247 159.025 83.9491 151.951 81.2156 152.9C76.0863 154.691 71.1017 149.695 66.7603 147.367C64.2198 146.006 61.4863 144.806 58.6241 145.038C55.0545 145.343 53.1572 147.975 50.5362 150.321C44.6512 155.604 36.2577 152.703 30.5495 148.692C24.8414 144.68 19.8246 138.269 16.3676 131.5C12.1548 123.19 9.72675 113.95 8.24745 104.602C6.76815 95.2534 5.80338 86.0306 6.63951 76.8974C7.02542 72.6889 8.00626 68.5163 9.80715 64.7735C11.608 61.0306 14.9525 58.0399 16.6891 53.9927C18.4257 49.9454 18.6187 45.6116 20.1301 41.618C21.4808 38.0543 24.0535 35.2785 27.0764 33.4339C34.3443 28.9569 44.2974 28.2405 52.2406 30.3895C59.7658 32.4132 66.4226 37.6782 68.3843 46.3458C68.8345 48.3157 70.5068 50.3752 72.2594 50.9662C73.8513 51.5034 74.8964 50.5005 74.4784 48.656H74.4623Z" fill="#FDE4C4"/>
<path d="M82.0196 161.515C95.0279 159.33 105.656 149.588 113.857 138.682C122.572 127.095 129.373 113.467 134.052 99.3196C138.732 85.1721 143.009 67.7294 139.793 52.3461C138.442 45.8454 135.596 39.7387 131.271 35.0825C126.495 29.9249 120.192 27.4715 113.6 27.2745C105.849 27.0417 98.1472 29.6205 90.9919 32.7007C83.8366 35.7809 77.0029 40.0968 72.2756 47.0274L78.5626 45.3619C75.5075 38.7358 76.9064 31.1964 79.2701 24.6062C81.9232 17.2279 85.7018 10.3511 89.1268 3.42063C89.995 1.64771 88.6765 -0.0177652 87.0525 0.000143123C84.9943 0.000143123 83.2739 1.6298 82.3413 3.52808C75.6522 17.0489 64.6057 34.5811 71.8897 50.3762C73.1599 53.152 77.1958 50.1434 78.1767 48.7107C81.4086 43.9829 86.2968 41.2788 91.1367 39.1298C96.5715 36.7122 102.36 34.6527 108.229 34.3125C114.098 33.9722 119.774 35.566 124.308 39.8819C128.248 43.6427 130.933 49.0868 132.284 54.6205C135.58 68.1592 132.252 83.2738 128.296 96.2036C124.341 109.151 118.632 121.365 111.3 132.343C103.968 143.32 95.0118 152.812 82.8558 154.871C81.1031 155.158 79.0128 157.128 78.8199 159.151C78.5948 161.372 80.4599 161.838 82.0196 161.569V161.515Z" fill="#FDE4C4"/>
<path d="M73.5297 108.112C72.0022 103.492 70.2013 99.6237 71.2143 94.5915C72.1469 89.9353 73.9156 85.5657 74.7196 80.8916C76.5365 70.5048 77.2762 59.9031 77.0672 49.3372C77.035 47.3673 75.5075 45.7197 74.0925 44.7168C73.5458 44.3407 70.4425 42.729 70.4907 44.6452C70.7158 55.6588 70.0566 66.9769 67.8698 77.7577C66.905 82.4675 64.9434 86.9088 64.3484 91.6903C63.6892 96.9016 65.9564 101.54 67.5161 106.268C68.111 108.094 70.2174 109.885 71.8896 110.315C73.5619 110.745 74.0925 109.742 73.5458 108.094L73.5297 108.112Z" fill="#FDE4C4"/>
<path d="M50.0538 86.0488C48.4619 89.9886 46.6289 93.9105 45.3586 97.9936C44.426 100.984 43.8954 105.605 46.8379 107.503C47.9313 108.201 49.2337 108.183 50.4075 107.789C52.8677 106.966 55.151 105.085 57.1126 103.348C58.4472 102.166 59.7818 100.805 60.441 99.0144C61.052 97.331 61.1968 95.4865 61.1164 93.6956C61.0199 91.4392 60.6501 89.2006 60.3446 86.98C60.0069 84.5087 59.6693 82.0194 59.3316 79.5481C59.2834 79.172 55.9549 81.4284 55.7298 81.6075C54.958 82.2164 54.1701 82.8253 53.4787 83.5416C53.2536 83.7744 52.6747 84.24 52.723 84.634C53.334 89.129 54.1862 93.6598 54.4756 98.1906C54.6042 100.161 54.5238 102.202 53.7681 104.011C53.6234 104.369 53.4465 104.709 53.2375 105.032C52.3371 106.446 53.4143 103.474 56.4212 102.704C56.791 102.614 55.9228 102.829 55.9388 102.829C55.6172 102.9 55.2635 102.936 54.9419 102.918C51.1954 102.686 50.8738 97.3489 51.6296 94.3403C52.1923 92.1555 53.1249 90.0781 53.9611 88.0187L56.6142 81.4105C56.8071 80.9449 56.18 81.2494 56.0514 81.2852C55.3278 81.5896 54.5721 82.1269 53.9289 82.5746C53.0606 83.2014 52.2084 83.846 51.4044 84.5803C50.9703 84.9743 50.295 85.4578 50.0699 86.0309L50.0538 86.0488Z" fill="#FDE4C4"/>
<path d="M76.9065 82.8797C75.2664 85.96 74.8323 89.6491 75.6845 93.1233C76.2472 95.3976 77.1799 97.4571 78.418 99.3733C79.9134 101.683 81.9072 103.868 84.1744 105.193C85.7019 106.089 87.4867 106.555 89.159 105.964C90.6383 105.444 91.9407 104.459 92.7768 102.973C94.8993 99.2479 93.3235 94.8425 91.0563 91.6727C89.2876 89.2014 87.0044 86.927 84.2548 85.96C83.4508 85.6734 82.5986 85.566 81.7625 85.369C81.3926 85.2794 81.0067 85.1899 80.653 85.0466C80.1545 84.7243 80.46 84.975 80.653 85.0466C80.3475 84.8676 80.4118 84.9034 80.862 85.2078C81.9393 86.3898 82.2448 86.6942 81.7946 86.1211C81.2157 85.369 80.3797 84.5452 79.5757 84.0975C79.2219 83.9005 78.434 83.4886 78.032 83.8826C77.6301 84.2766 77.9195 85.1899 78.0803 85.6018C78.4662 86.5868 79.0611 87.4464 79.6882 88.2522C81.071 90.0431 82.9041 91.4936 84.9783 92.0667C85.5733 92.2279 86.1682 92.3353 86.7632 92.4607C87.0687 92.5323 87.3902 92.6039 87.6797 92.6935C87.8083 92.7293 87.953 92.783 88.0816 92.8367C88.564 92.9979 87.8565 92.6756 88.1299 92.8367C88.1781 92.8726 88.5962 93.1054 88.5962 93.1054C88.564 93.1591 87.953 92.5323 88.4193 92.98C88.6123 93.177 88.8535 93.4635 88.1621 92.7293C88.2425 92.8188 88.3711 92.9621 88.4836 93.0337C87.7761 92.5144 87.9209 92.389 88.1621 92.6935C87.3581 91.6727 87.744 92.1383 87.9369 92.407C88.2264 92.8188 87.5189 91.619 87.744 92.0846C88.0817 92.783 87.6797 91.9772 87.6958 91.9592C87.6958 91.9592 87.8726 92.4428 87.8887 92.4965C88.0495 92.8726 87.7923 92.013 87.8727 92.4249C87.937 92.7651 88.0013 93.0875 88.0495 93.4456C88.0495 93.4994 88.0495 93.8754 88.0495 93.5531C88.0495 93.7143 88.0495 93.8575 88.0334 94.0187C88.0012 94.3948 87.953 94.7708 87.8566 95.129C87.2616 97.475 85.0909 99.3196 82.888 99.2658C82.8398 99.2658 82.4378 99.23 82.6629 99.2658C82.9363 99.3017 82.3092 99.1763 82.3413 99.1763C82.1806 99.1226 82.0358 99.0688 81.8911 99.0151C81.9876 99.0509 82.3413 99.2479 81.875 98.9972C81.4087 98.7465 82.0037 99.033 81.9715 99.0867C81.9393 99.1405 81.6017 98.7465 81.5856 98.7644C81.5856 98.7644 82.2127 99.3554 81.7786 98.9256C81.1354 98.2988 82.3896 99.6598 81.9072 99.0509C81.473 98.5137 82.1645 99.427 82.1805 99.427C82.0519 99.3196 81.9715 99.1047 81.875 98.9614C81.5856 98.5495 82.2931 99.7314 82.068 99.2837C82.0037 99.1405 81.9233 99.0151 81.8589 98.8898C81.6177 98.46 82.1805 99.7315 81.9072 98.9972C81.8589 98.8539 81.7946 98.7107 81.7303 98.5674C81.666 98.4241 81.6178 98.2809 81.5695 98.1376C81.5213 98.0122 81.3605 97.2959 81.5052 97.9943C81.3444 97.2243 81.1836 96.49 81.1032 95.7021C81.055 95.1827 81.055 94.5201 81.1354 93.7143C81.2801 92.2458 81.6499 90.7773 82.3252 89.5058C83.5634 87.1777 77.6622 81.4829 76.9226 82.8797H76.9065Z" fill="#FDE4C4"/>
<path d="M56.8555 153.402C56.6625 156.357 56.4696 159.312 56.2766 162.249C56.2284 162.965 56.9037 163.61 57.4022 163.914C58.1097 164.344 58.8975 164.541 59.6854 164.631C61.2773 164.81 63.0622 164.595 64.1555 163.18C65.9564 160.834 67.5804 158.345 69.0115 155.695L61.3095 154.172C60.9236 155.462 60.9075 156.536 61.3577 157.826C61.7114 158.829 62.3868 159.76 63.1264 160.44C64.2198 161.425 65.4097 162.07 66.6961 162.679C68.3844 163.449 70.1049 164.004 71.9701 163.807C73.7388 163.61 75.5397 162.84 75.9738 160.781C76.1829 159.76 75.9095 158.685 75.6683 157.718C75.1377 155.587 73.9479 153.635 72.4846 152.149C71.134 150.788 68.706 150.555 67.0177 151.11C66.3745 151.325 65.4258 151.647 65.1203 152.399C64.8469 153.044 64.9756 153.671 65.474 154.172C65.8921 154.602 66.278 155.05 66.6317 155.551L66.2458 154.996C67.0981 156.232 67.6769 157.629 67.9985 159.133L67.8699 158.524C67.9985 159.169 68.0789 159.813 67.9342 160.476L68.095 159.885C68.0306 160.082 67.9663 160.261 67.8538 160.44L68.2719 159.921C67.6608 160.673 67.902 159.455 69.8637 159.384L72.0022 159.473C71.6163 159.419 71.7289 159.455 72.3399 159.581C72.2113 159.527 72.0826 159.473 71.954 159.419C71.7771 159.348 71.6003 159.276 71.4073 159.187C71.2144 159.097 71.0536 159.025 70.8767 158.954C71.1179 159.079 71.8415 159.33 70.8767 158.954C70.6838 158.846 70.4747 158.721 70.2818 158.596L70.121 158.488C69.8637 158.291 69.9119 158.345 70.2657 158.614C70.1692 158.685 69.3974 157.7 69.3492 157.629L69.735 158.184C69.3813 157.647 69.108 157.073 68.9633 156.429L69.0919 157.038C68.9793 156.465 68.9793 155.909 69.108 155.336L68.9472 155.927L68.9954 155.748C69.2044 155.014 69.1723 154.548 68.6417 153.975C68.0628 153.349 67.0337 152.972 66.278 152.829C65.265 152.65 64.1716 152.596 63.1747 152.937C62.4672 153.169 61.6793 153.474 61.2773 154.226C59.8463 156.859 58.2222 159.366 56.4213 161.712L64.2842 162.643C64.4771 159.688 64.67 156.733 64.863 153.796C64.9112 153.062 64.2198 152.453 63.7375 152.131C62.9496 151.611 61.824 151.361 60.9236 151.343C60.0231 151.325 58.9137 151.397 58.0615 151.898C57.4987 152.22 56.8876 152.668 56.8233 153.456L56.8555 153.402Z" fill="#FDE4C4"/>
</svg>
