<svg width="141" height="160" viewBox="0 0 141 160" fill="none" xmlns="http://www.w3.org/2000/svg">
<path d="M45.7612 21.4412C43.7673 24.9871 47.3209 27.8524 50.0383 28.8732C54.5244 30.5566 58.3352 28.9448 62.4033 26.8675C62.741 26.6884 63.0786 26.5451 63.4163 26.366C64.6062 25.7571 63.8826 26.366 63.545 26.0974C63.0626 25.7213 64.0756 26.9749 64.2364 27.2794C65.0243 28.8374 65.1368 30.9326 64.6062 32.616C63.2716 36.914 58.9623 39.4391 55.7947 41.8388C47.8515 47.856 39.844 53.7836 31.9651 59.9262C25.5655 64.9047 19.2785 70.1697 13.8919 76.5093C8.50527 82.8488 4.14777 90.0659 1.99314 98.4291C-0.563482 108.314 -0.25797 118.63 0.690713 128.766C1.39821 136.448 2.44333 145.08 6.833 151.384C12.2839 159.21 20.9828 160.213 29.2959 159.962C49.0896 159.407 68.8833 158.673 88.677 158.028C97.9548 157.723 107.409 157.455 116.076 153.354C122.604 150.274 128.12 144.937 132.22 138.526C140.726 125.202 142.302 108.046 137.446 92.77C132.204 76.2944 120.675 63.9914 107.377 55.3775C101.348 51.4735 94.1601 47.1218 92.1823 39.0451C91.0085 34.2457 91.716 29.1239 91.6999 24.2349C91.6838 19.8116 91.0085 15.424 88.9021 11.5917C80.5569 -3.57667 59.5733 -3.79157 50.5528 10.553C48.5268 13.7765 47.3691 17.5909 47.144 21.495C46.9671 24.4856 54.9907 24.5931 55.1837 21.3696C55.5857 14.3675 59.7984 7.45487 65.8282 5.03725C71.858 2.61963 77.743 7.06086 80.8785 12.3438C85.4451 20.0981 82.5186 29.0881 83.8693 37.6304C85.2199 46.1726 90.6709 51.0616 96.7006 55.27C102.73 59.4785 108.664 63.0243 113.922 68.2894C119.18 73.5544 123.827 80.0731 127.091 87.2722C133.345 101.026 134.069 117.107 127.878 131.058C125.016 137.505 120.82 143.343 115.385 147.301C108.937 152.011 101.38 153.014 93.8385 153.336C75.3151 154.142 56.7755 154.554 38.236 155.163C33.8946 155.306 29.5049 155.646 25.1635 155.485C21.6904 155.36 18.5067 154.393 15.9179 151.706C11.2227 146.835 9.83986 138.884 9.06805 132.097C7.99073 122.713 7.36363 112.953 8.90725 103.605C10.2579 95.4025 13.7954 87.8094 18.6192 81.4699C28.8457 68.0387 43.2206 58.8159 56.1484 49.0379C59.7985 46.2801 63.561 43.6475 67.0824 40.6927C69.8159 38.4004 72.3886 35.4097 72.871 31.4699C73.3051 27.942 71.7776 24.4319 68.8994 22.8202C64.8634 20.5458 60.2004 21.9427 56.3735 23.9484C55.7947 24.2529 54.2511 24.6827 53.8169 25.2378C54.0742 24.8976 54.3797 25.3274 54.4119 25.0945C54.4119 25.2378 53.431 24.2528 53.4149 24.217C53.0612 23.5544 53.1738 23.1784 53.5275 22.5516C55.0229 19.9011 47.2244 18.8624 45.7612 21.4771V21.4412Z" fill="#FDE4C4"/>
<path d="M72.0348 62.2186C72.5172 65.0839 73.1604 67.8955 73.9483 70.6713C74.1412 71.3698 74.9613 71.0653 75.3954 70.8146C75.7492 70.5997 76.119 70.3311 76.3762 69.9729C76.5209 69.7759 76.8104 69.3819 76.73 69.0954C75.9421 66.3196 75.2989 63.508 74.8165 60.6427C74.6879 59.9084 73.7553 60.2666 73.3694 60.4994C72.9835 60.7322 72.6458 60.9829 72.3886 61.3411C72.2278 61.5739 71.9866 61.9142 72.0348 62.2186Z" fill="#FDE4C4"/>
<path d="M81.2484 78.3C82.2775 75.3988 83.998 72.8738 86.2009 70.9576C86.3295 70.8501 86.2008 70.4561 86.1848 70.3666C86.0722 69.9726 85.8793 69.5786 85.6863 69.2205C85.5898 69.0414 84.818 67.6625 84.5286 67.9132C82.2614 69.8831 80.5088 72.4977 79.4636 75.4705C79.3993 75.6675 79.6083 76.151 79.6565 76.2943C79.8173 76.7061 80.0264 77.1359 80.2676 77.4941C80.3801 77.6553 81.0715 78.7477 81.2484 78.3Z" fill="#FDE4C4"/>
<path d="M94.1922 83.0998C94.2405 82.7596 94.3209 82.4551 94.4495 82.1507L94.2244 82.688C94.4334 82.2044 94.7068 81.8104 95.0605 81.4523L94.6585 81.8463C95.0284 81.506 95.4143 81.2374 95.8645 81.0762L95.3178 81.2732C95.6072 81.1657 95.8966 81.112 96.2022 81.0941H95.559C95.8002 81.0941 96.0253 81.1299 96.2504 81.1657L95.5429 81.0046C95.7037 81.0404 95.9127 81.1657 96.0735 81.1836C96.0253 81.1836 95.2695 80.7718 95.6876 81.0225C95.768 81.0762 95.8484 81.1299 95.9288 81.1657C95.9609 81.1657 95.157 80.5748 95.4786 80.8613C95.559 80.915 95.6233 80.9866 95.7037 81.0404C96.1057 81.3985 95.3821 80.718 95.366 80.6822C95.4303 80.7538 95.5107 80.8255 95.575 80.8971C95.7037 81.0225 95.8162 81.1657 95.9288 81.309C95.9931 81.3806 96.0574 81.4702 96.1217 81.5418C96.4272 81.9537 95.9127 81.2553 95.8805 81.2016C96.0896 81.5597 96.3469 81.8821 96.5559 82.2223C97.0383 82.9745 97.6654 83.6371 98.4211 84.0669C98.9839 84.3892 99.8521 84.7295 100.495 84.5504C101.026 84.4071 101.557 84.0848 101.669 83.4222C101.782 82.7238 101.557 81.9537 101.187 81.3806C100.335 80.0375 99.418 78.8018 98.2925 77.7273C97.1026 76.5812 95.4464 75.65 93.8546 75.5784C92.6647 75.5246 91.3944 75.7932 90.4457 76.6349C89.497 77.4766 88.7896 78.4974 88.6127 79.8584C88.4037 81.4881 89.7061 83.064 90.9442 83.7266C91.5552 84.049 92.327 84.3892 93.0184 84.2101C93.533 84.0669 94.0958 83.7445 94.1922 83.0819V83.0998Z" fill="#FDE4C4"/>
<path d="M48.6393 68.5941C48.4142 69.4895 48.4303 70.4566 48.6715 71.352C48.9449 72.337 49.3629 73.2503 50.0543 73.9308C50.4885 74.3606 50.9387 74.5576 51.5015 74.7008C52.2733 74.9157 53.1737 74.9874 53.9777 74.9337L54.7495 74.8441C55.1515 74.7904 55.5535 74.665 55.9233 74.468C56.1484 74.3069 56.6308 73.9129 56.277 73.5726C55.7303 73.0175 55.3284 72.337 55.0711 71.549L55.1676 71.8713C54.8621 70.9043 54.8139 69.8656 55.055 68.8806C55.1515 68.4688 54.3154 68.0748 54.1385 68.0031C53.4632 67.6987 52.611 67.5733 51.8713 67.5554C51.1317 67.5375 50.3116 67.5375 49.5881 67.8061C49.1861 67.9494 48.7358 68.1106 48.6233 68.612L48.6393 68.5941Z" fill="#FDE4C4"/>
<path d="M43.703 72.856C43.9764 74.3962 44.2497 75.9183 44.523 77.4585C44.523 77.6913 44.6195 77.8525 44.7803 77.9778C44.9572 78.1927 45.1823 78.336 45.4396 78.4255C46.1149 78.7479 46.9832 78.8732 47.7068 78.8911C48.4303 78.909 49.2826 78.8911 49.99 78.5867L50.5045 78.336C50.7618 78.2106 50.9065 77.9957 50.9548 77.6913C50.6814 76.1512 50.4081 74.629 50.1348 73.0889C50.1348 72.856 50.0383 72.6949 49.8775 72.5695C49.7006 72.3546 49.4755 72.2113 49.2182 72.1218C48.5429 71.7994 47.6746 71.6741 46.951 71.6562C46.2274 71.6383 45.3752 71.6562 44.6677 71.9606L44.1532 72.2113C43.896 72.3367 43.7512 72.5516 43.703 72.856Z" fill="#FDE4C4"/>
<path d="M37.609 78.0137C38.1718 79.4285 38.7506 80.8432 39.3134 82.2759C39.4581 82.634 39.8601 82.9922 40.1656 83.1713C40.4711 83.3683 40.9214 83.5653 41.2912 83.5295C41.5645 83.5115 41.9022 83.4399 42.0308 83.1355C42.1595 82.8311 42.0791 82.5266 41.9665 82.2222C41.4037 80.8074 40.8249 79.3926 40.2621 77.96C40.1174 77.6018 39.7154 77.2436 39.4099 77.0646C39.1044 76.8676 38.6541 76.6706 38.2843 76.7064C38.011 76.7243 37.6733 76.7959 37.5447 77.1004C37.416 77.4048 37.4964 77.7093 37.609 78.0137Z" fill="#FDE4C4"/>
<path d="M61.8083 71.5128V67.6625C61.8566 67.376 61.8084 67.1432 61.6476 66.9462C61.535 66.6955 61.3421 66.5343 61.0848 66.4448C60.7793 66.3194 60.4737 66.2478 60.1522 66.2657C59.7662 66.2299 59.3965 66.2657 59.0266 66.3552C58.2227 66.5522 57.3865 66.8746 56.7433 67.4476L56.2127 67.9491C55.9394 68.2535 55.7625 68.5938 55.666 69.0236V72.8738C55.6178 73.1604 55.666 73.3932 55.8268 73.5902C55.9394 73.8409 56.1323 74.0021 56.3896 74.0916C56.6951 74.217 57.0006 74.2886 57.3222 74.2707C57.7081 74.3065 58.0779 74.2707 58.4477 74.1812C59.2517 73.9842 60.0879 73.6618 60.731 73.0888L61.2616 72.5873C61.535 72.2829 61.7119 71.9426 61.8083 71.5128Z" fill="#FDE4C4"/>
<path d="M64.7509 69.2744C65.2011 67.8596 65.6674 66.4449 66.1177 65.0301C66.182 64.8331 65.8764 64.5824 65.78 64.4929C65.4905 64.2422 65.0886 64.0631 64.7509 63.9377C64.4132 63.8124 64.0112 63.687 63.6253 63.687C63.4645 63.687 63.1429 63.687 63.0625 63.9019C62.6123 65.3167 62.146 66.7314 61.6958 68.1462C61.6315 68.3432 61.937 68.5939 62.0335 68.6834C62.3229 68.9341 62.7249 69.1132 63.0625 69.2386C63.4002 69.3639 63.8022 69.4893 64.1881 69.4893C64.3489 69.4893 64.6705 69.4893 64.7509 69.2744Z" fill="#FDE4C4"/>
<path d="M34.4413 88.9199C35.4543 87.4873 36.612 86.1979 37.9144 85.0876C38.1395 84.9085 38.1234 84.5324 38.043 84.2817C37.9144 83.9414 37.5928 83.6191 37.3195 83.44C36.7406 83.0639 35.8402 82.7595 35.2452 83.2609C33.9428 84.3712 32.769 85.6606 31.7721 87.0933C31.6595 87.1828 31.6113 87.3082 31.6113 87.4694C31.5791 87.6126 31.5952 87.7559 31.6595 87.8991C31.7882 88.2394 32.1098 88.5618 32.3831 88.7408C32.7369 88.9736 33.1549 89.1527 33.5569 89.1706C33.8303 89.1706 34.2644 89.1706 34.4574 88.9199H34.4413Z" fill="#FDE4C4"/>
<path d="M48.7519 126.885C49.8936 124.181 51.0191 121.459 52.1608 118.755C52.2733 118.504 51.1317 118.289 51.2121 118.289C50.4724 118.146 49.6685 118.11 48.9288 118.146C48.1892 118.182 47.4013 118.2 46.6616 118.397C46.3561 118.486 45.8737 118.54 45.729 118.898C44.5874 121.603 43.4618 124.325 42.3202 127.029C42.2076 127.279 43.3493 127.494 43.2689 127.494C44.0085 127.638 44.8125 127.673 45.5522 127.638C46.2918 127.602 47.0797 127.584 47.8194 127.387C48.1249 127.297 48.6072 127.244 48.7519 126.885Z" fill="#FDE4C4"/>
<path d="M28.5724 133.959C30.727 132.473 32.8816 131.004 35.0363 129.518C35.6634 129.088 35.1006 128.372 34.6504 128.139C33.9911 127.799 33.0746 127.655 32.4314 128.103C30.2768 129.589 28.1222 131.058 25.9675 132.544C25.3404 132.974 25.9032 133.69 26.3534 133.923C27.0127 134.264 27.9292 134.407 28.5724 133.959Z" fill="#FDE4C4"/>
<path d="M25.4529 127.62C26.9644 126.473 28.4758 125.327 29.9712 124.181C30.6466 123.662 30.6626 122.516 30.1481 121.871C29.6335 121.226 28.6849 120.868 27.9774 121.405C26.4659 122.552 24.9545 123.698 23.4591 124.844C22.7838 125.363 22.7677 126.509 23.2822 127.154C23.7967 127.799 24.7454 128.157 25.4529 127.62Z" fill="#FDE4C4"/>
<path d="M23.9414 119.919C24.7132 119.955 25.485 119.794 26.2246 119.507C26.9643 119.221 27.6397 118.827 28.2185 118.272C28.4919 118.021 28.733 117.681 28.7652 117.269C28.7974 116.911 28.6526 116.481 28.3954 116.266C28.0899 116.015 27.7039 115.854 27.3341 115.89C26.9161 115.908 26.4819 116.033 26.1604 116.337C25.9835 116.517 25.7905 116.66 25.5815 116.803L25.9352 116.57C25.6619 116.749 25.3725 116.911 25.067 117.036L25.469 116.875C25.1634 116.982 24.8418 117.072 24.5202 117.125L24.9544 117.072C24.7132 117.108 24.4881 117.107 24.2469 117.107C23.861 117.107 23.3786 117.287 23.0731 117.555C22.8158 117.77 22.5425 118.164 22.5264 118.558C22.5103 118.952 22.6229 119.328 22.8962 119.561C23.2178 119.83 23.5716 119.919 23.9575 119.937L23.9414 119.919Z" fill="#FDE4C4"/>
<path d="M24.8258 113.078C26.08 113.168 27.3503 112.863 28.4598 112.219C28.6527 112.111 28.6045 111.663 28.5723 111.484C28.4919 111.09 28.2989 110.643 28.0899 110.32C27.8809 109.998 27.6075 109.622 27.2859 109.407C27.093 109.282 26.8679 109.138 26.6428 109.264C26.273 109.479 25.9031 109.64 25.5012 109.783L25.678 109.729C24.9223 109.98 24.1505 110.07 23.3626 110.016C23.1214 110.016 23.041 110.285 23.041 110.482C23.041 110.822 23.2018 111.269 23.3465 111.556C23.5395 111.95 23.7968 112.344 24.1023 112.648C24.3113 112.845 24.5525 113.06 24.8419 113.078H24.8258Z" fill="#FDE4C4"/>
<path d="M25.0509 98.9485C26.5623 100.095 28.0738 101.241 29.5853 102.369C29.73 102.476 30.0033 102.691 30.1962 102.566C30.3892 102.441 30.341 102.047 30.3088 101.868C30.2284 101.456 30.0676 101.044 29.8586 100.686C29.6495 100.327 29.4244 99.9514 29.1028 99.7186C27.5914 98.5725 26.0799 97.4263 24.5684 96.2981C24.4237 96.1907 24.1504 95.9758 23.9575 96.1011C23.7645 96.2265 23.8127 96.6204 23.8449 96.7995C23.9253 97.2114 24.0861 97.6233 24.2951 97.9815C24.5042 98.3397 24.7293 98.7157 25.0509 98.9485Z" fill="#FDE4C4"/>
<path d="M35.3738 107.079C35.197 104.482 35.9366 101.939 37.432 99.9334C37.5767 99.7364 37.3356 99.5394 37.223 99.4678C36.9497 99.3245 36.5316 99.3066 36.2421 99.3066C35.615 99.3425 34.7628 99.4499 34.3287 100.023C32.7851 102.1 32.0133 104.84 32.1902 107.527C32.1902 107.759 32.56 107.867 32.7047 107.903C33.0585 107.992 33.4926 107.992 33.8463 107.921C34.2001 107.849 34.6181 107.777 34.9558 107.58C35.1166 107.473 35.3899 107.33 35.3738 107.061V107.079Z" fill="#FDE4C4"/>
<path d="M45.4717 94.0777C45.7933 93.3613 46.1471 92.6629 46.5169 91.9824C46.7099 91.6422 46.9028 91.3019 47.1119 90.9795C47.1762 90.89 47.2244 90.8005 47.2887 90.7109C47.4495 90.4423 46.8385 91.3735 47.1279 90.9616C47.2405 90.8005 47.337 90.6393 47.4495 90.4781C47.8837 89.8513 48.366 89.2424 48.8484 88.6515C48.8967 88.5798 48.961 88.5261 49.0092 88.4545C49.3469 88.0605 48.8002 88.6873 48.752 88.741C48.8806 88.5977 49.0092 88.4545 49.1378 88.3291C49.4112 88.0426 49.7007 87.7561 49.9901 87.4874C50.4564 87.0397 51.0192 86.3234 51.196 85.6429C51.3086 85.1773 51.2603 84.5684 50.8101 84.3356C50.2795 84.067 49.6042 84.1923 49.0736 84.3893C48.2857 84.6937 47.5621 85.1772 46.9189 85.7682C44.2819 88.2933 42.0308 91.3914 40.4711 94.8656C40.2621 95.3134 40.0048 95.9581 40.2942 96.4595C40.5675 96.9251 41.259 96.9609 41.6931 96.8893C42.4489 96.746 43.2046 96.3879 43.8317 95.9043C44.4588 95.4208 45.1341 94.8298 45.4717 94.0777Z" fill="#FDE4C4"/>
<path d="M49.3468 79.1779C49.8292 80.4494 50.3277 81.7209 50.8101 82.9923C51.0191 83.5475 51.4211 83.9594 51.8231 84.3175C52.4502 84.8906 53.1898 85.41 53.9295 85.786L54.6369 86.1263C55.0068 86.2875 55.3927 86.4128 55.7947 86.4486C56.0198 86.4486 56.5987 86.4307 56.4218 85.9651C55.9394 84.6936 55.4409 83.4221 54.9586 82.1507C54.7495 81.5955 54.3475 81.1836 53.9455 80.8254C53.3185 80.2524 52.5788 79.733 51.8392 79.357L51.1317 79.0167C50.7618 78.8555 50.3759 78.7302 49.9739 78.6943C49.7488 78.6943 49.1699 78.7123 49.3468 79.1779Z" fill="#FDE4C4"/>
<path d="M53.5275 80.8788C53.4632 81.3444 53.4471 81.81 53.4953 82.2935C53.5436 82.9741 53.64 83.6725 53.833 84.3351C54.235 85.714 54.9264 86.9318 55.8108 87.9705C56.1002 88.3107 56.4379 88.5614 56.8238 88.7405C57.1936 88.9912 57.5956 89.1345 58.0297 89.2062C58.4317 89.2957 58.8176 89.2957 59.2035 89.2062C59.5733 89.1703 59.911 89.045 60.2165 88.8301C60.7632 88.4182 61.2134 87.7914 61.1813 87.0213C61.1652 86.1976 60.8275 85.517 60.313 84.9261C60.2165 84.8186 60.1201 84.6932 60.0397 84.5679L60.5059 85.2126C60.2326 84.8186 59.9914 84.4067 59.7984 83.959L60.0879 84.6753C59.8789 84.156 59.7341 83.6008 59.6537 83.0278L59.7502 83.762C59.6859 83.1889 59.6859 82.6159 59.7502 82.0428C59.7502 81.6488 59.6859 81.2907 59.509 80.9504C59.3804 80.5564 59.1713 80.2162 58.898 79.9475C58.6086 79.6073 58.2709 79.3566 57.885 79.1775C57.5152 78.9268 57.1132 78.7835 56.679 78.7119C55.9555 78.6044 55.1033 78.6223 54.4923 79.1059L53.9777 79.5715C53.6883 79.9655 53.5275 80.3953 53.5114 80.9146L53.5275 80.8788Z" fill="#FDE4C4"/>
<path d="M67.5006 85.9471C67.6453 83.1714 67.5327 80.3777 67.1468 77.6377C67.0825 77.2258 66.3911 76.5632 66.182 76.3304C65.5871 75.7036 64.9279 75.1126 64.2526 74.5933C63.738 74.1993 63.1752 73.7337 62.5642 73.5188C62.3552 73.4471 61.9854 73.268 62.0336 73.6799C62.323 75.6857 62.4517 77.7093 62.4517 79.7509V79.536C62.4517 80.2165 62.4195 80.897 62.3873 81.5596C62.3713 81.9536 62.6768 82.2938 62.8858 82.5625C63.3843 83.1893 63.9953 83.7623 64.5902 84.2638C65.1851 84.7652 65.8122 85.2845 66.4876 85.6606C66.584 85.7143 67.4684 86.1799 67.4845 85.9471H67.5006Z" fill="#FDE4C4"/>
<path d="M72.871 86.1082V86.0544C72.8067 86.3231 72.7423 86.5917 72.662 86.8603C72.7906 86.3947 72.9835 85.947 73.2247 85.5351L72.8067 86.2514C73.0318 85.8575 73.3212 85.4814 73.6267 85.159L73.0479 85.75C73.273 85.5172 73.4981 85.3202 73.7554 85.1411C74.0931 84.8904 74.3503 84.5681 74.5433 84.192C74.7845 83.8517 74.9291 83.4577 74.9774 83.0279C75.0578 82.5802 75.0256 82.1684 74.8648 81.7565C74.7844 81.3267 74.6076 80.9685 74.3342 80.6461L73.7554 80.091C73.2891 79.7686 72.7906 79.5716 72.2439 79.5H71.3756C70.8128 79.6074 70.2983 79.8403 69.832 80.2163C69.4622 80.485 69.1566 80.7894 68.8351 81.1297C68.5135 81.4699 68.208 81.7744 67.9507 82.1683C67.6291 82.6519 67.3236 83.1533 67.0824 83.6906C66.8412 84.2278 66.6805 84.8367 66.5197 85.4277C66.4393 85.8754 66.4714 86.2873 66.6322 86.6991C66.7126 87.1289 66.8895 87.4871 67.1628 87.8095C67.4201 88.1497 67.7256 88.4005 68.0954 88.5616C68.4492 88.7944 68.8351 88.9198 69.2531 88.9556H70.1214C70.6842 88.8482 71.1987 88.6153 71.665 88.2393L72.2439 87.6483C72.5816 87.2006 72.7906 86.6992 72.8871 86.1261L72.871 86.1082Z" fill="#FDE4C4"/>
<path d="M80.3318 89.9229C80.4926 89.6364 80.6694 89.3499 80.8463 89.0812L80.3961 89.7438C80.7498 89.2424 81.1357 88.7768 81.5699 88.3649L80.9588 88.938C81.2483 88.6693 81.5538 88.4186 81.8754 88.1858C82.213 87.953 82.5025 87.6486 82.7115 87.2725C82.9527 86.9681 83.1296 86.6278 83.2099 86.2338C83.3225 85.8756 83.3225 85.5175 83.2099 85.1593C83.1778 84.8011 83.0331 84.4788 82.7919 84.2102L82.2774 83.7804C81.8432 83.5296 81.3769 83.4043 80.8785 83.4043L80.0745 83.4938C79.5117 83.6192 78.9811 83.8699 78.4987 84.2281C78.2254 84.4251 77.9681 84.6221 77.7108 84.8549C77.2606 85.2488 76.8104 85.6608 76.4084 86.1264C76.1833 86.3771 75.9742 86.6457 75.7813 86.9322C75.4436 87.4158 75.0899 87.8993 74.8005 88.4365C74.6075 88.7589 74.4949 89.1171 74.4789 89.511C74.3985 89.8692 74.4306 90.2274 74.5753 90.5676C74.704 90.9258 74.8969 91.1944 75.1864 91.3735C75.4436 91.6242 75.7491 91.8033 76.0868 91.857L76.8264 91.9466C77.3892 91.9466 77.9359 91.8212 78.4505 91.5705C79.1901 91.1944 79.8494 90.6572 80.2835 89.8692L80.3318 89.9229Z" fill="#FDE4C4"/>
<path d="M87.2299 90.6213C88.3233 89.6722 89.4328 88.723 90.5262 87.7739C90.7513 87.6306 90.8639 87.4157 90.8799 87.1471C90.9603 86.8785 90.9443 86.6098 90.8317 86.3412C90.7191 86.001 90.5423 85.7144 90.3172 85.4637C90.076 85.1234 89.8026 84.8369 89.481 84.6041C88.8057 84.0848 88.0178 83.6371 87.1977 83.4938L86.5063 83.4222C86.1204 83.4042 85.7667 83.4938 85.429 83.7087C84.3356 84.6578 83.2262 85.607 82.1328 86.5561C81.9076 86.6994 81.7951 86.9143 81.779 87.1829C81.6986 87.4515 81.7147 87.7201 81.8272 87.9888C81.9398 88.329 82.1167 88.6156 82.3418 88.8663C82.583 89.2065 82.8563 89.4931 83.1779 89.7259C83.8532 90.2452 84.6412 90.6929 85.4612 90.8362L86.1526 90.9078C86.5385 90.9257 86.8922 90.8362 87.2299 90.6213Z" fill="#FDE4C4"/>
<path d="M92.2948 90.3527C93.0506 93.218 94.4977 95.8863 96.4272 97.9458C96.8131 98.3577 97.5689 98.4114 98.0512 98.4293C98.8391 98.4293 99.7556 98.2502 100.495 97.9279C101.09 97.6593 101.83 97.3369 102.216 96.7459C102.457 96.3698 102.65 95.9221 102.28 95.5461C101.38 94.579 100.592 93.5045 99.9326 92.3226L100.125 92.6807C99.4341 91.4271 98.9034 90.084 98.5336 88.6693C98.405 88.1499 97.794 87.9708 97.392 87.8992C96.6684 87.7559 95.7841 87.8634 95.0926 88.0783C94.4012 88.2932 93.5651 88.5618 92.9702 89.0991C92.6486 89.3856 92.134 89.8512 92.2788 90.3706L92.2948 90.3527Z" fill="#FDE4C4"/>
<path d="M105.094 89.1525C105.978 88.0959 106.943 87.1468 108.004 86.3051C108.181 86.1618 108.004 85.9469 107.892 85.8574C107.651 85.6604 107.249 85.535 106.959 85.4634C106.557 85.3738 106.139 85.3201 105.721 85.3559C105.448 85.3739 105.174 85.4097 104.949 85.5888C103.888 86.4125 102.923 87.3796 102.039 88.4362C101.894 88.6153 102.007 88.7764 102.152 88.8839C102.393 89.0809 102.795 89.2062 103.084 89.2779C103.486 89.3674 103.904 89.4211 104.322 89.3853C104.563 89.3674 104.917 89.3495 105.094 89.1525Z" fill="#FDE4C4"/>
<path d="M109.596 90.5853C109.805 92.0359 110.03 93.4685 110.239 94.9191C110.272 95.1877 110.657 95.4564 110.818 95.5817C111.156 95.8145 111.574 96.0115 111.976 96.1011C112.298 96.1727 113.391 96.4055 113.278 95.7071C113.069 94.2565 112.844 92.8238 112.635 91.3733C112.603 91.1046 112.217 90.836 112.056 90.7107C111.719 90.4779 111.301 90.2809 110.899 90.1913C110.577 90.1197 109.484 89.8869 109.596 90.5853Z" fill="#FDE4C4"/>
<path d="M111.542 114.009C111.542 114.009 111.622 113.83 111.654 113.741L111.574 113.938C112.249 112.416 113.23 111.09 114.452 110.07L114.259 110.231C114.436 110.088 114.613 109.944 114.806 109.819C114.999 109.694 115.144 109.514 115.047 109.264C114.951 109.013 114.597 108.78 114.388 108.673C114.002 108.494 113.584 108.386 113.182 108.386C112.86 108.386 112.458 108.386 112.185 108.583C110.497 109.801 109.21 111.466 108.374 113.49C108.278 113.723 108.664 114.027 108.76 114.117C109.066 114.332 109.5 114.475 109.854 114.529C110.207 114.583 110.641 114.618 111.011 114.493L111.285 114.386C111.429 114.314 111.51 114.206 111.558 114.027L111.542 114.009Z" fill="#FDE4C4"/>
<path d="M106.541 107.186L108.551 103.981C108.712 103.73 108.631 103.39 108.535 103.139C108.374 102.763 108.069 102.405 107.763 102.154C107.458 101.903 107.088 101.671 106.702 101.617C106.461 101.581 106.139 101.563 105.978 101.832L103.968 105.037C103.808 105.288 103.888 105.628 103.985 105.879C104.145 106.255 104.451 106.613 104.756 106.864C105.062 107.115 105.432 107.347 105.818 107.401C106.059 107.437 106.38 107.455 106.541 107.186Z" fill="#FDE4C4"/>
<path d="M97.6815 112.29C99.3537 113.185 101.026 114.081 102.714 114.976C103.293 115.281 104.161 115.012 104.161 114.188C104.161 113.257 103.534 112.558 102.827 112.182C101.155 111.287 99.4824 110.392 97.7941 109.496C97.2152 109.192 96.3469 109.46 96.3469 110.284C96.3469 111.215 96.974 111.914 97.6815 112.29Z" fill="#FDE4C4"/>
<path d="M93.2918 122.767C96.5077 124.146 99.7557 125.471 103.02 126.706C103.776 126.993 104.676 127.136 105.464 127.154C106.027 127.172 106.895 127.172 107.426 126.885C108.664 126.187 107.088 125.381 106.461 125.148C103.197 123.895 99.9486 122.587 96.7328 121.209C96.0092 120.904 95.0605 120.779 94.2887 120.761C93.7259 120.743 92.8576 120.743 92.327 121.029C91.0728 121.728 92.6808 122.516 93.2918 122.767Z" fill="#FDE4C4"/>
<path d="M79.5278 126.474C79.5439 127.942 79.7529 129.393 80.1388 130.808C80.1871 131.202 80.3317 131.542 80.5568 131.81C80.7498 132.151 81.0071 132.401 81.3448 132.58C81.6824 132.795 82.0522 132.921 82.4542 132.957C82.8723 133.064 83.2903 133.064 83.7084 132.957C84.4802 132.795 85.3163 132.437 85.8309 131.757L86.249 131.112C86.4741 130.646 86.5545 130.163 86.4901 129.643C86.1042 128.229 85.8952 126.778 85.8791 125.31C85.8309 124.916 85.6862 124.575 85.4611 124.307C85.2681 123.967 85.0108 123.716 84.6732 123.537C84.3355 123.322 83.9657 123.196 83.5637 123.161C83.1456 123.053 82.7276 123.053 82.3095 123.161C81.5377 123.322 80.7016 123.68 80.187 124.361L79.769 125.005C79.5439 125.471 79.4635 125.954 79.5278 126.474Z" fill="#FDE4C4"/>
<path d="M86.5866 125.094C86.8761 125.56 87.1655 126.026 87.4228 126.509L86.9886 125.685C87.3585 126.366 87.6961 127.082 87.9855 127.798L87.6318 126.939C87.7283 127.172 87.8248 127.404 87.9052 127.637C88.2268 128.479 88.6288 129.321 89.1755 130.001C89.3845 130.288 89.6256 130.521 89.899 130.718C90.0919 130.897 90.3171 131.004 90.5743 131.058L90.9441 130.986C91.1853 130.807 91.314 130.538 91.3301 130.198C91.4105 129.464 91.2175 128.658 90.9763 127.995C90.1884 125.918 89.2398 123.912 88.066 122.068C87.8569 121.71 87.6157 121.387 87.3424 121.119C87.1333 120.868 86.8922 120.653 86.6188 120.492C86.2651 120.313 85.7827 120.241 85.5576 120.707L85.4289 121.19C85.3968 121.656 85.4289 122.122 85.5415 122.569C85.7505 123.465 86.1043 124.324 86.5866 125.076V125.094Z" fill="#FDE4C4"/>
<path d="M71.1505 129.195V132.24C71.1827 132.58 71.3113 132.849 71.5204 133.082C71.7133 133.368 71.9545 133.583 72.26 133.726C72.5977 133.905 72.9675 134.013 73.3373 134.049C73.7554 134.138 74.1735 134.138 74.5915 134.067L75.4276 133.87C75.9261 133.708 76.3603 133.44 76.7623 133.082L77.2125 132.544C77.4537 132.186 77.5502 131.774 77.518 131.327V128.282C77.4858 127.942 77.3572 127.673 77.1482 127.44C76.9552 127.154 76.714 126.939 76.4085 126.796C76.0708 126.617 75.701 126.509 75.3312 126.473C74.9131 126.384 74.4951 126.384 74.077 126.455L73.2409 126.652C72.7424 126.814 72.3082 127.082 71.9063 127.44L71.456 127.978C71.2149 128.336 71.1184 128.748 71.1505 129.195Z" fill="#FDE4C4"/>
<path d="M38.0591 140.066C40.5193 139.386 42.9794 138.687 45.4396 138.007C45.6325 137.953 45.327 137.81 45.311 137.792C45.0376 137.648 44.6838 137.541 44.3944 137.469C43.9924 137.362 43.5904 137.272 43.1724 137.219C42.9312 137.183 42.6578 137.129 42.4166 137.183C39.9565 137.863 37.4964 138.562 35.0362 139.242C34.8433 139.296 35.1488 139.439 35.1649 139.457C35.4382 139.601 35.7919 139.708 36.0814 139.78C36.4833 139.887 36.8853 139.977 37.3034 140.03C37.5446 140.066 37.818 140.12 38.0591 140.066Z" fill="#FDE4C4"/>
<path d="M52.3054 123.931C52.3054 124.325 52.3054 124.719 52.3054 125.113V124.504C52.2893 125.936 52.1607 127.351 51.9516 128.766C51.8552 129.446 52.1125 130.055 52.5305 130.539C53.0451 131.13 53.8812 131.595 54.6048 131.774C55.3284 131.954 56.2127 132.061 56.9524 131.739C57.4669 131.524 58.094 131.148 58.2065 130.467C58.496 128.479 58.6085 126.456 58.5924 124.432C58.5442 124.092 58.3995 123.787 58.1905 123.555C57.9975 123.232 57.7402 122.964 57.4347 122.767C56.7915 122.283 55.8589 121.925 55.071 121.889C54.3796 121.853 53.5596 121.889 52.9808 122.373L52.5466 122.802C52.3215 123.143 52.225 123.519 52.2893 123.949L52.3054 123.931Z" fill="#FDE4C4"/>
<path d="M62.5481 132.33V128.426C62.5481 127.727 62.1461 127.172 61.6637 126.796C61.3582 126.545 61.0044 126.384 60.6507 126.295C60.2487 126.133 59.8467 126.044 59.4126 126.044C58.6408 126.044 57.7725 126.133 57.1132 126.617C56.6309 126.975 56.1163 127.459 56.1163 128.175V132.079C56.1163 132.777 56.5183 133.333 57.0007 133.709C57.3062 133.959 57.6599 134.121 58.0137 134.21C58.4157 134.371 58.8176 134.461 59.2518 134.461C60.0236 134.461 60.8919 134.371 61.5511 133.888C62.0335 133.53 62.5481 133.046 62.5481 132.33Z" fill="#FDE4C4"/>
<path d="M61.5834 125.847V128.676C61.5834 129.053 61.6959 129.393 61.9049 129.679C62.0657 130.02 62.2909 130.288 62.5964 130.485C62.918 130.736 63.2717 130.897 63.6576 130.987C64.0596 131.13 64.4777 131.184 64.9118 131.148L65.764 131.005C66.2786 130.861 66.7448 130.611 67.1468 130.252L67.6292 129.697C67.9025 129.303 68.0312 128.856 68.0151 128.354V125.525C68.0151 125.149 67.9025 124.808 67.6935 124.522C67.5327 124.181 67.3076 123.913 67.0021 123.716C66.6805 123.465 66.3268 123.304 65.9409 123.214C65.5389 123.071 65.1208 123.017 64.6867 123.053L63.8345 123.196C63.3199 123.34 62.8537 123.59 62.4517 123.949L61.9693 124.504C61.6959 124.898 61.5673 125.345 61.5834 125.847Z" fill="#FDE4C4"/>
<path d="M60.0236 139.475V144.024C60.0236 144.239 60.9722 144.364 60.9561 144.364C61.6958 144.489 62.4837 144.543 63.2233 144.561C63.963 144.579 64.7509 144.597 65.5066 144.507C65.6513 144.489 66.4553 144.454 66.4553 144.221V139.672C66.4553 139.457 65.5066 139.332 65.5227 139.332C64.783 139.206 63.9952 139.153 63.2555 139.135C62.5159 139.117 61.728 139.099 60.9722 139.188C60.8275 139.206 60.0236 139.242 60.0236 139.475Z" fill="#FDE4C4"/>
<path d="M66.4553 135.929C67.597 138.92 68.4331 142.054 68.9476 145.259C69.028 145.779 69.7194 146.334 70.041 146.585C70.6842 147.104 71.5043 147.534 72.2761 147.802C72.7584 147.964 75.0899 148.698 74.8809 147.408C74.3825 144.203 73.5463 141.069 72.3886 138.078C72.1635 137.505 71.7455 137.093 71.2952 136.753C70.6521 136.234 69.832 135.804 69.0602 135.535C68.4653 135.338 67.7256 135.052 67.0985 135.195C66.8091 135.267 66.2785 135.446 66.4553 135.929Z" fill="#FDE4C4"/>
<path d="M72.8548 135.822C72.6137 136.878 72.678 138.078 72.9674 139.117C73.498 141.015 74.5432 142.555 75.8135 143.916C76.119 144.239 76.4406 144.507 76.8104 144.758C77.0998 144.991 77.4214 145.17 77.7591 145.313C78.0485 145.421 78.8042 145.671 79.0615 145.277C79.3349 144.848 79.158 144.257 78.965 143.827C78.6113 143.057 78.0806 142.43 77.5339 141.821C77.5018 141.785 77.4696 141.749 77.4375 141.714L78.0324 142.394C77.9199 142.269 77.8234 142.143 77.7108 142L78.1932 142.681C78.0646 142.502 77.952 142.322 77.8556 142.125L78.2093 142.77C78.0646 142.502 77.952 142.233 77.8556 141.946L78.0485 142.537C77.8877 142.054 77.7912 141.57 77.7591 141.069L77.7912 141.552C77.7591 140.997 77.7913 140.442 77.9199 139.905C77.936 139.618 77.8877 139.368 77.7752 139.117C77.6787 138.777 77.534 138.454 77.325 138.168C76.8747 137.434 76.2315 136.717 75.5723 136.216L74.9131 135.75C74.5593 135.517 74.1734 135.356 73.7553 135.267C73.3373 135.231 72.9835 135.302 72.8548 135.822Z" fill="#FDE4C4"/>
<path d="M78.3702 136.305V137.827C78.4184 138.078 78.531 138.293 78.6757 138.49C78.8526 138.777 79.0616 139.045 79.3027 139.26C79.6083 139.564 79.9138 139.833 80.2675 140.066C80.6213 140.335 80.9911 140.585 81.377 140.8L82.0845 141.14C82.4704 141.32 82.8563 141.427 83.2583 141.463L83.6602 141.427C83.8854 141.337 83.9819 141.176 83.9497 140.908V139.385C83.9015 139.135 83.7889 138.92 83.6442 138.723C83.4673 138.436 83.2583 138.168 83.0171 137.953C82.7116 137.648 82.4061 137.38 82.0523 137.147C81.6986 136.878 81.3288 136.628 80.9429 136.413L80.2354 136.072C79.8495 135.893 79.4636 135.786 79.0616 135.75L78.6596 135.786C78.4345 135.875 78.338 136.037 78.3702 136.305Z" fill="#FDE4C4"/>
<path d="M92.52 141.642V136.645C92.52 135.804 92.1663 134.98 91.6357 134.389C91.3462 134.049 90.9925 133.78 90.6066 133.619C90.2207 133.386 89.8187 133.243 89.3685 133.225C88.6127 133.171 87.7605 133.314 87.1495 133.87C86.5707 134.407 86.1687 135.123 86.1687 135.983V140.979C86.1687 141.821 86.5224 142.645 87.053 143.236C87.3425 143.576 87.6962 143.844 88.0821 144.006C88.468 144.238 88.87 144.382 89.3202 144.4C90.076 144.453 90.9282 144.31 91.5392 143.755C92.1181 143.218 92.52 142.501 92.52 141.642Z" fill="#FDE4C4"/>
<path d="M96.1057 138.973V134.855C96.1057 134.496 95.7358 134.156 95.5268 133.923C94.9801 133.35 94.353 132.831 93.7259 132.365C93.0988 131.9 92.4556 131.434 91.7482 131.094C91.6517 131.058 90.7673 130.628 90.7673 130.843V134.962C90.7673 135.32 91.1371 135.66 91.3462 135.893C91.8929 136.466 92.52 136.986 93.1471 137.451C93.7742 137.917 94.4173 138.382 95.1248 138.723C95.2213 138.759 96.1057 139.188 96.1057 138.973Z" fill="#FDE4C4"/>
<path d="M102.216 136.287V134.765C102.216 134.658 102.216 134.568 102.135 134.497C102.071 134.371 101.975 134.282 101.846 134.21C101.701 134.103 101.54 134.013 101.364 133.959C101.171 133.87 100.978 133.798 100.769 133.762L100.351 133.673C100.109 133.637 99.8682 133.637 99.627 133.673L99.3536 133.745C99.225 133.78 99.1286 133.87 99.0803 134.013V135.535C99.0803 135.643 99.0803 135.732 99.1607 135.804C99.225 135.929 99.3215 136.019 99.4501 136.09C99.5948 136.198 99.7557 136.287 99.9325 136.341C100.125 136.431 100.318 136.502 100.527 136.538L100.945 136.628C101.187 136.664 101.428 136.664 101.669 136.628L101.942 136.556C102.071 136.52 102.168 136.431 102.216 136.287Z" fill="#FDE4C4"/>
<path d="M51.6784 137.29C51.5819 139.045 51.7106 140.782 52.0482 142.502C52.1447 142.985 52.7396 143.182 53.1094 143.272C53.8169 143.451 54.7013 143.415 55.4088 143.272C56.1163 143.128 56.9524 142.949 57.6117 142.519C57.9172 142.322 58.5282 141.946 58.4156 141.445C58.078 139.744 57.9493 137.989 58.0458 136.234C58.078 135.768 57.2097 135.517 56.9846 135.464C56.2771 135.284 55.3927 135.32 54.6852 135.464C53.9777 135.607 53.1416 135.786 52.4824 136.216C52.0964 136.466 51.7105 136.753 51.6784 137.29Z" fill="#FDE4C4"/>
<path d="M63.545 98.2681C62.6606 99.5217 62.1139 101.151 62.1139 102.763C62.1139 104.679 62.6928 106.255 63.6736 107.795C64.5258 109.156 65.3137 110.285 65.6031 111.968C65.8926 113.651 65.6675 115.442 65.5067 117.126C65.3459 118.666 67.3879 119.436 68.4331 119.579C69.3978 119.704 71.7133 119.704 71.8741 118.146C72.051 116.373 72.1796 114.618 72.0027 112.846C71.8258 111.073 71.1827 109.443 70.2179 107.939C69.4783 106.775 68.6582 105.682 68.4974 104.214C68.3366 102.745 68.7708 101.402 69.5586 100.292C70.443 99.0203 68.4974 97.8025 67.6452 97.5339C66.4071 97.1578 64.4615 96.9787 63.561 98.2681H63.545Z" fill="#FDE4C4"/>
<path d="M77.4053 112.774C77.2445 110.034 77.0677 107.276 76.9069 104.536C76.9551 104.106 76.9069 103.73 76.73 103.354C76.6174 102.96 76.4245 102.62 76.1512 102.333C75.6045 101.724 74.7201 101.277 73.9643 101.223C73.2086 101.169 72.276 101.312 71.6329 101.868C71.1022 102.315 70.4751 103.085 70.5234 103.891C70.6842 106.631 70.861 109.389 71.0218 112.129C70.9736 112.559 71.0218 112.935 71.1987 113.311C71.3112 113.705 71.5042 114.045 71.7776 114.332C72.3243 114.941 73.2086 115.388 73.9643 115.442C74.7201 115.496 75.6527 115.353 76.2959 114.797C76.8265 114.35 77.4536 113.58 77.4053 112.774Z" fill="#FDE4C4"/>
<path d="M73.4176 98.2144C74.0768 100.739 75.2667 102.996 76.8746 104.912C77.0676 105.02 77.2606 105.073 77.4696 105.073C77.7751 105.127 78.0806 105.145 78.3861 105.127C79.2062 105.127 80.0584 105.02 80.8462 104.823C81.4573 104.679 82.1648 104.554 82.7115 104.178L83.017 103.945C83.1456 103.784 83.1295 103.658 82.9687 103.551C82.7919 103.336 82.615 103.121 82.4381 102.888L82.5828 103.068C81.2965 101.348 80.3478 99.3605 79.7851 97.2115C79.6886 96.8712 78.965 96.8354 78.7881 96.8175C78.0484 96.7459 77.2445 96.8175 76.5048 96.9429C75.7652 97.0682 74.9773 97.1936 74.2859 97.5159C74.0929 97.6055 73.3372 97.8562 73.4176 98.1964V98.2144Z" fill="#FDE4C4"/>
<path d="M90.0276 98.7513C89.5292 97.1575 88.9664 95.5816 88.3393 94.0415C88.082 93.4326 87.4388 93.1282 86.8761 93.0386C86.5062 92.9849 86.1204 93.0028 85.7666 93.1102C85.3486 93.164 84.9465 93.3072 84.5767 93.5221C83.8853 93.8982 83.1617 94.4355 82.7758 95.1876C82.4864 95.7607 82.2613 96.4233 82.5347 97.068C83.1617 98.6081 83.7245 100.184 84.223 101.778C84.4159 102.387 85.1877 102.709 85.6862 102.781C86.056 102.834 86.4419 102.817 86.7957 102.709C87.2137 102.655 87.6157 102.512 87.9855 102.297C88.6769 101.921 89.4006 101.384 89.7865 100.632L90.0759 99.987C90.2045 99.5751 90.1884 99.1632 90.0437 98.7513H90.0276Z" fill="#FDE4C4"/>
<path d="M80.9429 110.41C80.9911 111.055 81.1519 111.664 81.3288 112.272C81.4574 112.702 81.6182 113.114 81.8433 113.49C82.1488 114.045 82.4704 114.6 82.8885 115.066C83.1779 115.406 83.4834 115.729 83.821 116.033C84.1748 116.356 84.5768 116.606 84.9627 116.893C85.3486 117.126 85.7506 117.287 86.1687 117.376C86.5546 117.502 86.9566 117.573 87.3746 117.555C87.7284 117.555 88.066 117.502 88.3876 117.34C88.677 117.251 88.9343 117.09 89.1433 116.839L89.4167 116.32C89.5292 115.908 89.481 115.496 89.3041 115.12L88.9504 114.529C88.6127 114.099 88.2107 113.759 87.7605 113.49L87.7123 113.454L88.3715 113.938C88.1303 113.759 87.9052 113.562 87.6962 113.347L88.2107 113.902C87.9213 113.598 87.664 113.239 87.4389 112.863L87.7926 113.454C87.5193 112.989 87.3103 112.469 87.1656 111.932L87.3263 112.541C87.2299 112.183 87.1816 111.825 87.1495 111.467C87.1012 110.768 86.5706 110.106 86.1204 109.712C85.7988 109.425 85.4451 109.192 85.0592 109.049C84.6733 108.834 84.2552 108.709 83.8371 108.637C83.1618 108.547 82.3257 108.512 81.7307 108.924L81.2805 109.3C81.0233 109.622 80.9107 109.98 80.9589 110.41H80.9429Z" fill="#FDE4C4"/>
<path d="M75.3472 115.048V118.952C75.3793 119.221 75.4597 119.453 75.6044 119.65C75.7492 119.955 75.9421 120.241 76.1833 120.492C76.4566 120.814 76.7621 121.119 77.0837 121.388C77.4214 121.692 77.7591 121.961 78.145 122.193L78.8364 122.587C79.2062 122.784 79.5921 122.91 79.9941 122.981C80.3478 122.981 80.7338 122.946 80.7338 122.444V118.54C80.7016 118.271 80.6212 118.039 80.4765 117.842C80.3318 117.537 80.1388 117.251 79.8976 117C79.6243 116.678 79.3188 116.373 78.9972 116.105C78.6595 115.8 78.3218 115.532 77.9359 115.299L77.2445 114.905C76.8747 114.708 76.4888 114.582 76.0868 114.511C75.7331 114.511 75.3472 114.547 75.3472 115.048Z" fill="#FDE4C4"/>
<path d="M62.3067 110.875C61.6153 106.345 61.9852 101.724 63.3519 97.3904C63.4323 97.1218 63.0625 96.5308 62.9821 96.3875C62.5962 95.6712 62.1138 94.9728 61.6475 94.3281C61.1812 93.6834 60.6828 93.0028 60.1361 92.4298C60.0717 92.3581 59.3803 91.6597 59.3321 91.803C57.9332 96.2264 57.5634 101.008 58.2708 105.628C58.3352 106.076 58.8015 106.739 59.0105 107.079C59.4768 107.831 59.9913 108.565 60.5219 109.264C60.94 109.801 61.3581 110.374 61.8565 110.804C61.953 110.893 62.355 111.269 62.2907 110.875H62.3067Z" fill="#FDE4C4"/>
<path d="M54.1385 89.7256V94.5071C54.1385 95.3667 54.428 96.28 54.8139 96.9964C55.0229 97.4083 55.2641 97.7843 55.5696 98.1067C55.8108 98.429 56.1003 98.6798 56.4218 98.8947C56.8881 99.1633 57.5474 99.4498 58.0298 99.0737C58.5122 98.6977 58.689 98.0709 58.689 97.4262V92.6447C58.689 91.7851 58.3996 90.8717 58.0137 90.1554C57.8047 89.7435 57.5635 89.3674 57.258 89.0451C57.0168 88.7227 56.7273 88.472 56.4057 88.2571C55.9394 87.9885 55.2802 87.702 54.7978 88.078C54.3154 88.4541 54.1385 89.0809 54.1385 89.7256Z" fill="#FDE4C4"/>
<path d="M65.3137 93.5582L71.3756 96.1728C72.0831 96.4773 72.9835 96.6026 73.7393 96.3877C74.302 96.2087 75.0095 95.761 75.2025 95.0804C75.6688 93.3971 74.302 91.9644 73.0318 91.4092L66.9699 88.7946C66.2624 88.4902 65.3619 88.3648 64.6062 88.5797C64.0434 88.7588 63.3359 89.2065 63.143 89.887C62.6767 91.5704 64.0434 93.0031 65.3137 93.5582Z" fill="#FDE4C4"/>
<path d="M49.974 105.95C52.4342 104.804 54.8943 103.64 57.3544 102.494C57.7725 102.297 58.0619 101.831 57.9333 101.33C57.7886 100.757 57.1293 100.238 56.6952 99.9869C55.4249 99.2527 53.6723 98.787 52.2895 99.4317C49.8293 100.578 47.3692 101.742 44.909 102.888C44.491 103.085 44.2015 103.551 44.3301 104.052C44.4749 104.625 45.1341 105.145 45.5683 105.395C46.8386 106.129 48.5912 106.595 49.974 105.95Z" fill="#FDE4C4"/>
<path d="M40.9212 105.789C40.5514 108.028 40.7765 110.392 41.5644 112.487C41.6608 112.738 41.9663 112.952 42.1593 113.078C42.497 113.311 42.915 113.49 43.317 113.597C43.4939 113.651 44.7963 113.937 44.5873 113.364C43.8155 111.341 43.6065 109.138 43.9602 106.989C43.9924 106.756 43.7673 106.559 43.6386 106.434C43.3492 106.183 42.9633 105.986 42.6095 105.861C42.2558 105.735 41.8699 105.592 41.484 105.592C41.3393 105.592 40.9534 105.574 40.9212 105.789Z" fill="#FDE4C4"/>
<path d="M32.9298 116.499C33.3479 118.182 33.9749 119.812 34.8271 121.28C34.9719 121.531 35.3256 121.549 35.5507 121.531C35.9206 121.495 36.3386 121.28 36.628 121.03C36.9175 120.779 37.2551 120.474 37.432 120.081C37.5445 119.812 37.641 119.507 37.4802 119.239C36.9014 118.236 36.419 117.161 36.0331 116.033L36.1135 116.266C35.9688 115.836 35.8401 115.389 35.7276 114.941C35.6472 114.654 35.5025 114.493 35.2291 114.457C34.9075 114.404 34.4895 114.547 34.2161 114.708C33.8463 114.923 33.4926 115.192 33.2514 115.568C33.0906 115.8 32.8494 116.176 32.9298 116.499Z" fill="#FDE4C4"/>
<path d="M55.9234 110.535C55.9234 110.535 55.9234 110.392 55.9234 110.338V111.108C55.9234 110.678 55.9717 110.248 56.0682 109.836L55.8913 110.607C55.9717 110.248 56.1003 109.89 56.2611 109.568L55.8913 110.32C55.9877 110.141 56.0842 109.962 56.1968 109.801C56.438 109.46 56.5827 109.084 56.647 108.672C56.7756 108.296 56.7917 107.92 56.7113 107.508C56.6631 107.114 56.5023 106.774 56.2611 106.488C56.0682 106.165 55.7948 105.932 55.4571 105.789L54.7657 105.574C54.2351 105.485 53.7206 105.538 53.206 105.718L52.4181 106.094C51.9197 106.398 51.5177 106.81 51.18 107.329C50.8906 107.777 50.6494 108.261 50.4404 108.744C50.3278 108.995 50.2313 109.263 50.167 109.532C50.0384 110.033 49.9097 110.535 49.8615 111.054C49.8133 111.574 49.8293 112.111 49.8615 112.648C49.9097 113.042 50.0705 113.382 50.3117 113.669C50.5047 113.991 50.778 114.224 51.1157 114.367C51.4534 114.546 51.8232 114.618 52.193 114.6C52.595 114.654 52.9809 114.6 53.3668 114.439L54.1547 114.063C54.6532 113.758 55.0551 113.346 55.3928 112.827L55.7626 112.075C55.9556 111.574 56.0038 111.054 55.9234 110.535Z" fill="#FDE4C4"/>
<path d="M61.8888 120.242C61.6798 118.236 61.7763 116.194 62.1622 114.224C62.1622 113.902 62.0818 113.615 61.921 113.347C61.7763 113.007 61.5833 112.702 61.3261 112.434C60.7794 111.807 59.9593 111.252 59.2036 110.983C58.5765 110.768 57.7725 110.535 57.1293 110.786L56.647 111.037C56.3736 111.269 56.2289 111.574 56.2128 111.95C55.8269 113.92 55.7304 115.961 55.9395 117.967C56.0038 118.684 56.3253 119.239 56.7756 119.758C57.3223 120.385 58.1423 120.94 58.8981 121.209C59.5251 121.424 60.3291 121.656 60.9723 121.406C61.4064 121.227 61.9371 120.868 61.8727 120.242H61.8888Z" fill="#FDE4C4"/>
<path d="M84.4642 106.756C85.5576 108.44 86.8279 109.998 88.2268 111.395C88.5162 111.663 88.8217 111.878 89.1755 112.021C89.5453 112.236 89.9473 112.362 90.3653 112.433C90.7834 112.523 91.2014 112.541 91.6195 112.469C91.9893 112.469 92.3591 112.38 92.7129 112.218C93.2114 111.968 93.8063 111.556 93.8706 110.893C93.9349 110.231 93.6133 109.657 93.1631 109.21C92.6164 108.655 92.0858 108.082 91.5874 107.473L92.0215 107.992C91.3944 107.24 90.8155 106.434 90.2688 105.61C89.8508 104.966 89.1755 104.536 88.5162 104.285C88.1142 104.124 87.6962 104.034 87.262 104.016C86.86 103.945 86.458 103.963 86.04 104.052L85.3486 104.267C84.9627 104.428 84.6411 104.679 84.3838 105.055L84.1908 105.592C84.1426 106.022 84.2391 106.398 84.4642 106.738V106.756Z" fill="#FDE4C4"/>
<path d="M92.2949 105.413C92.7452 105.413 93.1793 105.467 93.6134 105.539L92.7612 105.413C93.2275 105.485 93.6777 105.575 94.128 105.7L93.2919 105.467C93.5009 105.521 93.6938 105.593 93.9029 105.646C94.6747 105.897 95.543 106.058 96.363 106.022C96.6846 106.022 97.0062 105.969 97.3117 105.843C97.5529 105.79 97.778 105.664 97.9549 105.485L98.1317 105.127C98.1478 104.805 98.0514 104.536 97.8262 104.321C97.3439 103.802 96.6685 103.479 96.0414 103.282C94.4335 102.745 92.7451 102.405 91.0568 102.333C90.687 102.279 90.3171 102.297 89.9473 102.351C89.6418 102.351 89.3524 102.441 89.063 102.566C88.7253 102.745 88.3555 103.121 88.5645 103.587L88.8218 103.999C89.1273 104.321 89.481 104.572 89.8669 104.751C90.6227 105.109 91.4588 105.378 92.2788 105.413H92.2949Z" fill="#FDE4C4"/>
</svg>
