<svg width="121" height="138" viewBox="0 0 121 138" fill="none" xmlns="http://www.w3.org/2000/svg">
<path d="M33.8 32.0385C26.3392 22.4934 17.5438 14.381 7.75142 7.95188L0.451376 8.93684C14.4404 11.7305 28.124 16.1539 41.3091 22.0457C42.515 22.583 44.5089 22.1532 45.7309 22.0457C46.3741 21.9741 48.8503 22.0457 49.1719 21.2757C51.0853 16.7628 53.6741 12.6439 56.8739 9.15173C58.5783 7.30718 60.4435 5.6417 62.4373 4.19113C63.2896 3.56433 64.1579 2.99127 65.0583 2.45402C65.5889 2.13167 66.1356 1.82724 66.6823 1.5407C67.5667 1.07509 69.1907 0.75273 66.0874 1.05717L62.6142 1.11089C64.383 1.28998 64.3508 4.13741 64.5437 5.57007C64.7849 7.43254 65.0261 9.29499 65.2834 11.1575C65.7979 15.0257 66.2964 18.8938 66.8109 22.7441C66.9074 23.5321 74.0627 22.8337 74.6898 22.2248C83.7104 13.4497 96.0915 7.23555 108.231 9.18756C109.63 9.42037 111.399 9.74271 111.93 11.444C112.364 12.8229 111.608 14.0765 110.724 14.9719C108.682 17.0672 105.819 17.9805 103.472 19.5386C98.6481 22.7262 93.7117 27.4003 91.6696 33.4175C88.1804 43.7685 96.4452 50.7886 102.298 57.2355C105.707 60.9784 108.553 64.954 110.081 70.0579C111.801 75.8243 112.187 82.0027 111.656 88.0378C110.563 100.323 105.819 112.644 98.2783 121.741C91.7661 129.603 82.633 134.564 73.2105 136.265C64.6081 137.805 54.5585 135.692 46.0525 132.468C36.7747 128.958 27.9471 123.389 21.0812 115.545C14.2153 107.701 9.80959 96.9383 9.31112 85.5665C8.81266 74.1947 11.7873 62.8408 18.4764 54.3702C20.1969 52.1854 22.1585 50.2871 24.3132 48.6396C24.7795 48.2814 21.6922 48.2635 21.4671 48.2814C20.1647 48.353 17.7045 48.156 16.5629 49.0335C-2.04092 63.396 -3.24687 94.9862 10.8387 113.486C24.9242 131.967 48.2071 139.148 69.2872 137.715C80.1407 136.981 91.2355 134.349 100.208 127.132C109.18 119.915 115.708 107.683 118.442 95.3802C121.175 83.0772 120.613 69.1804 112.782 59.4383C107.154 52.454 96.5899 45.3623 99.243 34.3487C100.931 27.3645 106.543 22.0995 111.994 18.679C114.358 17.1926 117.204 16.2792 119.085 13.987C121.433 11.1216 119.021 8.88312 116.351 8.34587C109.212 6.89529 101.542 7.43254 94.4192 8.70403C87.7463 9.88597 81.2663 12.232 75.3812 15.939C72.3744 17.8372 69.5766 20.0937 66.9717 22.6188L74.8506 22.0994C74.0145 15.8136 73.3552 9.4741 72.3583 3.20619C71.9081 0.35877 70.4609 -0.0173202 68.0812 0.000588064C65.2995 0.0184964 62.357 0.287132 59.7843 1.52281C51.6159 5.49845 44.943 13.0378 41.1644 21.9741L49.0272 21.1861C35.5687 15.1689 21.6279 10.7635 7.34944 7.91606C5.77366 7.59371 3.89236 7.91608 2.33266 8.13097C1.99499 8.1847 -0.368672 8.61449 0.0493921 8.90102C9.74525 15.2406 18.412 23.2993 25.7925 32.737C26.3874 33.4891 29.0405 32.9519 29.8284 32.8981C30.1821 32.8623 33.8161 32.0744 33.8 32.0744V32.0385Z" fill="#FDE4C4"/>
<path d="M40.1353 62.2859C42.8366 65.7243 45.9399 68.7509 49.3166 71.3296C49.6703 71.5983 50.4582 72.0101 50.8924 71.652C51.3265 71.2938 51.1818 70.3268 51.0532 69.8791C50.5065 67.8554 49.188 65.993 47.6443 64.811C47.3067 64.5424 46.969 64.2917 46.6313 64.0052C46.1811 63.647 47.1941 64.4887 46.9208 64.2559C46.8243 64.1842 46.7439 64.0947 46.6474 64.0231C46.4866 63.8798 46.3258 63.7365 46.165 63.5932C45.4897 63.0023 44.8465 62.4113 44.2194 61.7666C43.9139 61.4622 43.6084 61.1577 43.3029 60.8354C43.2386 60.7637 43.1743 60.6921 43.11 60.6205C43.6245 61.1756 43.7853 61.3368 43.5602 61.104C43.528 61.0682 43.4959 61.0324 43.4637 60.9965C43.319 60.8354 43.1743 60.6742 43.0296 60.513C42.4185 59.8146 41.8236 59.1162 41.2448 58.3819C40.7624 57.7731 39.9584 56.9672 39.2348 56.7165C38.8007 56.5553 38.2058 56.5374 38.045 57.1463C37.852 57.8805 38.1414 58.7759 38.4148 59.4027C38.865 60.4593 39.4599 61.3905 40.1514 62.268L40.1353 62.2859Z" fill="#FDE4C4"/>
<path d="M56.8417 60.1186C58.2245 63.5749 59.6074 67.0312 61.0063 70.4875C61.4083 71.4904 62.0836 72.35 62.8554 73.0126C63.5629 73.6036 64.6241 74.2483 65.5406 74.302C66.1999 74.3557 67.0843 74.302 67.4863 73.6036C67.8882 72.9051 67.8561 72.0634 67.5506 71.3292C66.1677 67.8729 64.7849 64.4166 63.386 60.9603C62.984 59.9574 62.3087 59.0978 61.5369 58.4352C60.8294 57.8443 59.7682 57.1996 58.8516 57.1458C58.1924 57.0921 57.308 57.1458 56.906 57.8442C56.504 58.5427 56.5362 59.3844 56.8417 60.1186Z" fill="#FDE4C4"/>
<path d="M78.4203 75.1619C79.7709 70.8281 82.0542 66.9062 85.0771 63.7722C85.3022 63.5394 84.6269 62.5007 84.6108 62.4649C84.1123 61.5874 83.4692 60.7457 82.8421 59.9757C82.215 59.2056 81.5557 58.3997 80.8 57.755C80.6231 57.6118 79.9156 56.8596 79.6905 57.1103C76.6676 60.2264 74.3682 64.1483 73.0337 68.5C72.905 68.894 73.3392 69.5387 73.5 69.8073C73.9984 70.6848 74.6416 71.5265 75.2687 72.2966C75.8958 73.0666 76.555 73.8725 77.3108 74.5172C77.4072 74.6067 78.3399 75.4305 78.4203 75.1619Z" fill="#FDE4C4"/>
<path d="M82.9707 82.5579H88.8397C89.8366 82.5579 90.8818 82.3609 91.7179 81.7162C92.345 81.2327 93.0042 80.3193 92.9881 79.406C92.9721 78.4927 92.5862 77.5615 91.9108 76.9705C91.1229 76.29 90.1099 75.8423 89.113 75.8423H83.244C82.2471 75.8423 81.202 76.0393 80.3658 76.684C79.7387 77.1675 79.0795 78.0808 79.0956 78.9942C79.1116 79.9075 79.4975 80.8387 80.1729 81.4297C80.9608 82.1102 81.9738 82.5579 82.9707 82.5579Z" fill="#FDE4C4"/>
<path d="M67.8722 84.9217C69.6731 88.1273 71.4739 91.3329 73.2588 94.5385C73.5321 95.022 74.0467 95.0937 74.529 95.1653C75.4456 95.2907 76.4907 95.2011 77.3912 95.0399C78.2916 94.8788 79.3046 94.6817 80.1568 94.234C80.3659 94.1266 81.4271 93.6072 81.218 93.2132C79.4172 90.0077 77.6163 86.8021 75.8315 83.5965C75.5581 83.113 75.0436 83.0413 74.5612 82.9697C73.6447 82.8443 72.5995 82.9339 71.6991 83.0951C70.7986 83.2562 69.7856 83.4532 68.9334 83.901C68.7244 84.0084 67.6632 84.5278 67.8722 84.9217Z" fill="#FDE4C4"/>
<path d="M85.1414 91.906V102.526C85.1414 103.546 85.4309 104.513 86.1544 105.194C86.8298 105.821 87.9071 106.125 88.7754 105.982C89.8045 105.821 90.8657 105.337 91.5732 104.478C92.2163 103.708 92.7952 102.705 92.7952 101.612V90.9927C92.7952 89.9719 92.5058 89.0049 91.7822 88.3243C91.1069 87.6976 90.0295 87.3931 89.1613 87.5364C88.1322 87.6976 87.071 88.1811 86.3635 89.0407C85.7203 89.8107 85.1414 90.8136 85.1414 91.906Z" fill="#FDE4C4"/>
<path d="M68.0651 107.361C71.5544 110.029 75.3491 112.124 79.4011 113.485C80.607 113.897 79.4493 110.405 79.3207 110.047C78.9348 108.99 78.4685 107.934 77.8736 107.003C77.5359 106.483 77.0857 105.66 76.5068 105.463C74.5934 104.818 72.7282 104.03 70.9112 103.063C70.0429 102.597 69.1746 102.096 68.3385 101.559C67.3576 100.932 66.8592 100.591 65.9587 99.893C65.6532 99.6602 65.2673 99.3558 65.0583 99.893C64.8493 100.43 65.1708 101.594 65.3156 102.042C65.6371 103.134 66.0552 104.209 66.5858 105.194C66.9878 105.928 67.422 106.877 68.0651 107.361Z" fill="#FDE4C4"/>
<path d="M91.943 70.6308C93.5992 70.6308 91.5732 69.0549 91.123 68.7504C89.7401 67.7834 87.682 66.5298 85.9776 66.5298C84.2732 66.5298 86.3474 68.1057 86.7976 68.4102C88.1804 69.3772 90.2386 70.6308 91.943 70.6308Z" fill="#FDE4C4"/>
<path d="M50.5708 84.1694L60.0897 86.6765C61.0706 86.9273 62.2765 86.8019 63.1931 86.3005C63.9488 85.8886 64.801 85.029 65.0422 84.0799C65.5889 81.8592 64.1257 79.9968 62.2283 79.4953L52.7093 76.9881C51.7285 76.7374 50.5225 76.8628 49.606 77.3643C48.8503 77.7761 47.9981 78.6357 47.7569 79.5849C47.2102 81.8055 48.6734 83.668 50.5708 84.1694Z" fill="#FDE4C4"/>
<path d="M67.8561 93.3568C64.3347 92.4435 60.7168 92.4077 57.1311 92.9271C56.1181 93.0703 55.0891 93.3031 54.0921 93.6075C53.3686 93.8224 52.4681 94.0553 51.8089 94.4851C51.6481 94.5925 51.0692 94.8969 51.5034 95.076C52.034 95.3088 52.8701 95.076 53.3847 95.0223C53.5454 95.0044 53.7223 94.9865 53.8831 94.9506C52.9023 95.1297 53.5776 94.9865 53.8188 94.9506C54.1565 94.9148 54.4941 94.897 54.8318 94.8791C55.0248 94.8791 54.9444 94.8791 54.6067 94.8791C54.7193 94.8791 54.8318 94.8791 54.9444 94.8791C55.1051 94.8791 55.282 94.8791 55.4428 94.8791C55.7805 94.8791 56.1181 94.879 56.4558 94.9148C56.7935 94.9507 57.1311 94.9686 57.4527 95.0044C57.6135 95.0044 57.7904 95.0402 57.9512 95.0581C57.6779 95.0223 58.1442 95.0939 58.1924 95.0939C58.916 95.2014 59.6235 95.3626 60.331 95.5417C60.9098 95.6849 61.6495 95.5596 62.2122 95.4879C63.2252 95.3447 64.2704 95.1118 65.2512 94.8074C66.007 94.5746 66.8431 94.3776 67.5345 93.9299C67.6631 93.8583 68.3063 93.4643 67.84 93.3389L67.8561 93.3568Z" fill="#FDE4C4"/>
<path d="M52.7093 103.618C50.9889 106.591 49.2523 109.581 47.5318 112.554C47.0816 113.324 47.0494 114.596 47.3871 115.42C47.7247 116.297 48.5609 117.013 49.397 117.228C50.3778 117.479 51.4552 117.407 52.3878 116.924L53.3204 116.333C53.8671 115.885 54.2851 115.348 54.6067 114.685C56.3272 111.713 58.0638 108.722 59.7843 105.749C60.2345 104.979 60.2667 103.707 59.929 102.884C59.5913 102.006 58.7552 101.29 57.9191 101.075C56.9382 100.824 55.8609 100.896 54.9283 101.379L53.9957 101.97C53.449 102.418 53.0309 102.955 52.7093 103.618Z" fill="#FDE4C4"/>
<path d="M47.7408 96.1501C44.2838 96.1322 40.6498 97.2425 37.6912 99.2661C36.9355 99.7855 36.2119 100.43 35.9546 101.433C35.7295 102.293 35.9546 103.367 36.5013 104.03C37.1445 104.8 38.045 105.319 38.9776 105.427C39.9906 105.552 41.1644 105.48 42.0487 104.871C42.8527 104.316 43.6888 103.851 44.5732 103.475L43.6406 103.887C44.6053 103.475 45.6023 103.17 46.6313 102.991L45.5701 103.188C46.4062 103.045 47.2584 102.973 48.0946 102.973C49.0111 102.973 50.1849 102.454 50.8763 101.791C51.4712 101.218 52.018 100.215 51.9215 99.302C51.825 98.3887 51.3587 97.4932 50.619 96.9739C49.7186 96.3471 48.7699 96.168 47.7248 96.168L47.7408 96.1501Z" fill="#FDE4C4"/>
<path d="M32.6745 84.474C33.4784 84.5277 34.2824 84.6531 35.0864 84.8143L34.1698 84.6172C35.4401 84.9038 36.6622 85.3157 37.852 85.8708L36.9355 85.441C37.5947 85.7454 38.2379 86.1036 38.865 86.4976C39.6207 86.9811 40.682 87.2856 41.5503 87.0886C42.2899 86.9274 43.0617 86.3365 43.2868 85.4769C43.8496 83.3458 42.3864 81.2147 40.7945 80.2118C37.7877 78.3314 34.395 77.1853 30.954 76.9167C30.1661 76.863 29.2656 77.1137 28.735 77.8121C28.2044 78.5105 28.1079 79.5671 28.333 80.3909C28.8797 82.4683 30.6967 84.3128 32.6905 84.4561L32.6745 84.474Z" fill="#FDE4C4"/>
<path d="M31.2112 74.2485C33.4141 75.323 35.617 76.3975 37.8198 77.472C38.6077 77.8659 39.8137 77.651 40.5373 77.1675C41.3091 76.6482 41.9201 75.6095 42.0326 74.6245C42.1613 73.4963 42.0005 72.2964 41.4216 71.3294L40.7624 70.3803C40.28 69.843 39.7172 69.449 39.074 69.2162C36.8712 68.1417 34.6683 67.0672 32.4654 65.9927C31.6775 65.5987 30.4716 65.8136 29.748 66.2972C28.9762 66.8165 28.3652 67.8552 28.2526 68.8401C28.124 69.9684 28.2848 71.1682 28.8636 72.1353L29.5229 73.0844C30.0053 73.6217 30.568 74.0157 31.2112 74.2485Z" fill="#FDE4C4"/>
<path d="M65.605 118.482C67.631 118.482 68.6601 116.1 68.2902 114.13C67.8722 111.91 66.0391 110.101 63.981 110.101C61.9228 110.101 60.9259 112.483 61.2957 114.453C61.7138 116.673 63.5468 118.482 65.605 118.482Z" fill="#FDE4C4"/>
<path d="M32.98 95.5771L39.6047 92.3894C40.3443 92.0312 41.2287 91.2075 41.5824 90.3658C41.8719 89.6673 41.904 88.7003 41.4056 88.0914C40.087 86.4618 37.7394 86.9274 36.1476 87.6795L29.5229 90.8672C28.7832 91.2254 27.8989 92.0492 27.5451 92.8908C27.2557 93.5893 27.2236 94.5564 27.722 95.1652C29.0405 96.7949 31.3881 96.3292 32.98 95.5771Z" fill="#FDE4C4"/>
<path d="M46.9851 92.282C51.9536 92.282 50.619 83.6323 46.1007 83.6323C41.1322 83.6323 42.4668 92.282 46.9851 92.282Z" fill="#FDE4C4"/>
</svg>
