<svg width="79" height="85" viewBox="0 0 79 85" fill="none" xmlns="http://www.w3.org/2000/svg">
<path d="M13.153 19.0496C9.26949 18.3535 5.51825 20.2945 3.37813 23.949C1.23801 27.6034 0.817196 32.4761 0.420432 36.8801C-0.325005 45.0993 -0.613559 54.0815 4.29189 60.8952C6.69652 64.2417 10.0871 66.5843 13.5257 68.4049C17.4452 70.4798 21.5572 72.153 25.609 73.8665C34.2175 77.4942 43.0065 81.1219 51.9277 83.7188C56.0516 84.9102 60.6324 85.6732 64.6361 83.5715C67.9425 81.8447 70.1307 78.4714 71.802 74.9775C75.7456 66.6647 77.9458 57.1068 78.6912 47.7766C79.8935 32.7572 78.0179 12.3832 65.2493 3.58844C56.8451 -2.20782 47.1064 -0.11957 38.4617 3.78923C29.0356 8.04607 20.3188 13.9762 11.6621 19.8528C9.6422 21.2182 13.7661 23.6679 15.2089 22.6907C21.99 18.0858 28.7831 13.4675 35.9369 9.62565C42.5496 6.07828 50.6412 1.79468 58.1797 3.50813C64.047 4.84676 67.9906 10.469 70.3953 16.2251C73.2327 23.0387 74.1946 30.7091 74.3268 38.1518C74.4951 46.8529 73.2688 55.554 70.792 63.8C68.8322 70.3057 65.8024 80.4124 58.6606 81.5368C54.8974 82.1258 50.9538 80.3454 47.419 79.1139C43.5115 77.7485 39.628 76.3162 35.7565 74.8169C31.8851 73.3176 27.6769 71.5908 23.6853 69.864C20.3548 68.4316 16.9643 67.0261 13.8142 65.1386C10.4838 63.1441 7.76659 60.3597 6.23965 56.4509C4.71271 52.5421 4.53235 48.1648 4.65258 44.0017C4.78484 39.5039 5.06138 34.6848 6.10739 30.3342C6.96104 26.8003 9.5941 21.5127 13.5978 22.2355C14.3673 22.3694 15.774 22.2355 15.7019 21.0442C15.6297 19.8528 13.9826 19.1969 13.165 19.0496H13.153Z" fill="#FDE4C4"/>
<path d="M11.133 19.6653C5.83082 29.357 12.0227 41.9803 17.0484 50.1459C22.6392 59.2486 29.9613 66.8921 37.9327 73.3711C42.5015 77.0791 47.2987 80.4257 52.2042 83.5447C53.0338 84.0667 54.1399 83.8793 54.2601 82.7013C54.3924 81.4296 53.2742 80.1981 52.3845 79.6359C37.4277 70.1316 21.9779 57.3879 15.0526 39.1825C13.0567 33.9619 12.1069 27.9113 14.8963 22.8245C15.8581 21.0575 12.3113 17.5235 11.1451 19.6653H11.133Z" fill="#FDE4C4"/>
<path d="M22.8076 13.8962C22.3628 35.5284 32.0174 55.4338 45.5434 70.3596C49.2946 74.4959 53.3344 78.2843 57.5666 81.7781C58.4443 82.5009 59.7307 82.7419 60.8008 82.5545C61.3178 82.4608 62.7125 81.8986 61.7987 81.1489C47.0223 68.9272 34.446 52.703 29.5646 32.5701C28.1339 26.6667 27.4606 20.5626 27.5928 14.4584C27.6289 12.8253 22.8437 12.3969 22.8076 13.8962Z" fill="#FDE4C4"/>
<path d="M32.5103 10.8172C44.0285 25.9839 52.4327 43.9215 57.0375 63.1175C58.3361 68.5523 59.346 74.0808 60.0313 79.6495C60.1876 80.9748 61.0052 82.1126 62.1835 82.5008C63.0251 82.7685 64.4799 82.4473 64.3236 81.122C61.8228 60.5339 55.2942 40.6419 45.1106 23.2263C42.201 18.2466 39.0268 13.4543 35.5762 8.91636C34.9149 8.03286 33.5563 7.18952 32.5343 7.84545C31.5124 8.50138 31.8971 10.014 32.5103 10.8306V10.8172Z" fill="#FDE4C4"/>
<path d="M43.0065 3.56199C46.8298 5.77072 49.2825 9.71969 51.1461 13.923C53.2622 18.7019 54.9094 23.7887 56.3642 28.8621C59.4181 39.5711 61.2937 50.6951 61.9189 61.9128C62.2676 68.2312 62.2195 74.5763 61.7746 80.8946C61.7506 81.2426 66.4636 81.1757 66.5358 80.1316C68.0627 57.8434 64.8766 34.3772 56.3041 14.0702C54.3563 9.45196 51.7473 4.98093 47.5753 2.57139C46.8058 2.12965 45.3991 2.53124 44.6056 2.70526C44.4132 2.74542 42.5856 3.30765 43.0185 3.54861L43.0065 3.56199Z" fill="#FDE4C4"/>
</svg>
