<svg width="106" height="143" viewBox="0 0 106 143" fill="none" xmlns="http://www.w3.org/2000/svg">
<path d="M33.3669 52.5801C33.3187 42.4082 21.7898 38.3788 14.7631 42.8559C11.3864 45.0228 8.2188 49.2133 7.78465 53.6546C7.35051 58.0958 9.89101 61.9103 13.123 63.9877C17.5287 66.8351 23.0922 66.5127 27.6105 64.2384C28.2537 63.916 27.6748 63.3072 27.2889 63.0564C26.7422 62.6983 25.7292 62.3759 25.1021 62.6983C22.1596 64.1847 18.4131 65.1159 15.3741 63.4146C12.7693 61.9461 10.8236 58.6689 10.8397 55.3917C10.8558 51.6847 13.123 48.0493 15.5831 45.7391C18.0433 43.4289 21.2591 42.1216 24.3785 42.9275C27.8356 43.8229 30.2315 47.7986 30.2475 51.6488C30.2475 52.8487 33.3508 53.4576 33.3508 52.5801H33.3669Z" fill="#FDE4C4"/>
<path d="M55.0419 57.5222C53.836 50.5916 46.7289 48.4426 41.2459 49.0336C35.7628 49.6246 30.0064 52.6511 27.498 58.3818C26.3403 61.0143 26.0026 64.0587 26.6297 66.9061C27.289 69.9684 29.2346 72.2249 31.6786 73.7113C36.6311 76.7378 43.2719 76.8452 48.2725 73.9262C53.2732 71.0071 57.1001 63.8438 54.7364 57.3789C54.254 56.0895 51.3115 57.5042 51.7939 58.8295C53.3858 63.1812 51.8743 68.5716 48.4816 71.3474C44.7833 74.356 39.5575 74.159 35.4573 72.3681C33.2705 71.4011 31.2606 69.8431 30.1993 67.4434C29.2346 65.2406 29.1059 62.6081 29.6848 60.2621C30.9068 55.3552 34.8302 52.4183 39.1877 51.5945C44.3331 50.6275 50.9578 52.4541 52.0994 59.0085C52.3246 60.28 55.2992 59.0085 55.0419 57.558V57.5222Z" fill="#FDE4C4"/>
<path d="M78.8072 60.8714C78.2444 57.7553 76.2827 55.1407 74.0477 53.2782C71.8126 51.4158 68.8541 50.6099 66.0241 50.7711C60.3963 51.0934 55.3474 54.9616 53.3053 60.8714C52.3245 63.683 52.035 66.8348 52.5656 69.8076C53.1606 73.1744 55.1866 75.7532 57.711 77.6335C62.3258 81.0719 68.6933 82.1285 73.5492 78.6901C79.4825 74.5175 81.0261 65.9931 78.7107 58.9731C78.4856 58.3105 77.9067 57.7374 77.4404 57.2718C77.3278 57.1643 76.331 56.3764 76.4114 56.645C78.2122 62.107 77.7781 68.3749 74.4336 72.9953C71.3624 77.2575 66.5386 78.9767 61.763 77.938C60.6535 77.7052 59.5763 77.3291 58.5311 76.8277C57.3573 76.2546 55.894 75.592 55.3795 74.231C54.463 71.8312 54.3987 68.9301 54.8007 66.405C55.6368 61.2116 58.708 56.7704 63.0655 54.6751C65.4613 53.511 68.1305 53.0812 70.7192 53.4752C72.1181 53.6901 73.517 54.1199 74.7391 54.9258C75.7038 55.5705 76.2345 57.0569 76.4917 58.5612C76.6043 59.188 77.3439 59.8506 77.762 60.2625C77.8585 60.3699 78.8394 61.2116 78.7911 60.8893L78.8072 60.8714Z" fill="#FDE4C4"/>
<path d="M100.032 57.1999C95.1921 53.7615 89.0016 52.9736 83.9044 56.3045C79.6916 59.0803 77.4726 64.0588 78.4052 69.4492C79.3378 74.8396 82.9879 78.3675 87.6348 79.1555C92.5069 79.9793 97.8292 77.7945 100.772 73.3353C104.39 67.8374 103.875 60.0832 99.1155 55.624C98.2472 54.8181 95.4012 56.394 96.3499 57.2715C99.7587 60.4592 101.061 65.7959 99.4049 70.4521C97.9417 74.5531 94.6615 77.2393 90.6738 77.1677C86.6861 77.096 83.5185 74.5531 82.0713 70.6311C80.6242 66.7092 81.0101 62.268 83.5667 59.2415C87.2168 54.9256 93.1661 55.9105 97.2824 58.8296C97.9095 59.2773 98.7296 59.0803 99.3406 58.7042C99.63 58.5251 100.659 57.6118 100.048 57.182L100.032 57.1999Z" fill="#FDE4C4"/>
<path d="M59.705 78.9943C57.5182 83.4893 57.5342 88.9692 59.3994 93.5896C61.2647 98.2099 65.2202 101.648 69.5456 103.278C73.8709 104.908 78.8073 104.603 83.02 102.454C86.9595 100.448 91.2688 96.3117 92.2014 91.3869C93.4234 84.9041 88.9373 79.5495 85.1586 75.3768C84.628 74.8038 83.6954 74.4456 82.9718 74.6784C82.3286 74.8754 82.1196 75.5022 82.6181 76.0574C85.6892 79.442 89.0337 83.2028 89.2588 88.3066C89.4518 92.9449 85.9626 97.0638 82.6663 99.374C79.37 101.684 75.3502 102.794 71.5233 101.792C67.6964 100.789 64.5449 98.1383 62.744 94.3776C60.6054 89.9005 60.6376 84.4026 62.8083 79.9614C63.355 78.8511 60.3321 77.7049 59.7211 78.9764L59.705 78.9943Z" fill="#FDE4C4"/>
<path d="M89.0819 97.5481C93.2303 99.8046 98.6008 99.4464 101.688 95.2917C104.55 91.4235 104.679 85.8182 102.122 81.7351C100.579 79.2816 98.3436 77.455 95.8352 76.4163C95.4493 76.2551 94.3076 75.8432 94.0825 76.4879C93.8574 77.1326 94.9669 77.7236 95.3207 77.8669C99.646 79.6577 101.865 85.2272 100.579 90.0804C99.9193 92.5696 98.5044 94.7186 96.4462 95.9543C94.6936 97.0109 92.2495 97.4944 90.3843 96.4915C89.918 96.2408 88.8406 95.7036 88.3583 96.1871C87.8759 96.6706 88.7603 97.369 89.0819 97.5481Z" fill="#FDE4C4"/>
<path d="M38.5284 73.3717C34.3799 73.9268 31.5981 77.9025 30.8103 82.2363C30.0706 86.3015 30.0385 91.1725 31.3248 95.1123C32.7398 99.4641 36.1808 101.649 40.0881 102.58C44.3491 103.601 48.8031 102.956 52.7104 100.771C56.6177 98.5866 59.737 94.79 61.5219 90.3129C61.8595 89.4891 61.0556 88.7728 60.3963 88.7012C59.5441 88.5937 58.8045 89.1668 58.4668 89.9906C55.7976 96.6704 49.5106 100.771 42.9823 100.037C39.9594 99.6969 36.5024 98.4791 34.9266 95.3452C33.4634 92.4082 33.4312 88.7549 33.5759 85.4956C33.7367 81.9856 34.7175 76.7563 38.5605 76.2549C39.3002 76.1654 40.1363 75.4848 40.1363 74.5894C40.1363 73.694 39.2519 73.2642 38.5605 73.3717H38.5284Z" fill="#FDE4C4"/>
<path d="M27.6748 66.3695C24.1374 65.4562 20.4391 64.8652 17.0463 66.7277C14.0073 68.3931 12.6567 71.6525 12.11 75.2341C11.5311 79.0307 11.7402 83.3108 13.1391 86.8924C14.4576 90.2771 17.1911 92.05 20.2783 93.035C24.0087 94.2169 28.0446 94.3244 31.5821 92.3724C31.968 92.1575 32.8202 91.6202 32.3861 91.0292C31.9841 90.492 30.7621 90.886 30.344 91.1188C27.4015 92.7305 23.7675 91.9426 20.8411 90.6174C19.3136 89.9189 17.8985 88.9161 16.9499 87.376C15.9529 85.7463 15.4706 83.7227 15.1811 81.8065C14.6023 78.0815 14.747 73.3896 16.5157 70.0407C18.5417 66.2262 22.5616 67.4082 25.7935 68.232C26.4688 68.4111 27.4819 68.035 27.9642 67.4977C28.4466 66.9605 28.2858 66.5486 27.6587 66.3874L27.6748 66.3695Z" fill="#FDE4C4"/>
<path d="M14.1359 84.7965C11.4989 86.4083 8.0097 86.4799 5.5174 84.4563C3.5718 82.8803 2.54269 80.1941 2.47838 77.5437C2.3015 71.0967 7.60772 66.333 13.0104 65.7242C14.4575 65.563 13.0747 62.3574 11.7562 62.5186C6.53041 63.1095 1.48148 67.2464 0.291605 73.1203C-0.898268 78.9942 1.64224 85.2263 6.28918 87.9663C9.29602 89.7392 12.9782 89.5959 15.9208 87.7872C17.1106 87.053 15.374 84.0444 14.152 84.7965H14.1359Z" fill="#FDE4C4"/>
<path d="M13.0105 42.7302C10.7433 40.8678 7.65606 41.3692 5.51751 43.2138C3.37895 45.0583 1.88358 48.1744 1.20825 51.165C0.484677 54.4244 0.838398 57.7553 2.2373 60.7281C3.52365 63.4501 5.64612 66.6736 8.81376 65.7603C8.862 65.7603 7.75254 62.5189 7.17368 62.6801C5.99989 63.0203 4.84215 62.7696 3.82915 62.0354C3.5558 61.8384 3.33068 61.4981 3.07341 61.3191C2.91262 61.1042 2.9287 61.1579 3.12165 61.4444L3.00913 61.1042C2.8805 60.3878 2.67145 59.7073 2.59105 58.9731C2.30162 56.1794 2.84833 53.3499 3.95781 50.8427C4.92257 48.6579 6.35364 46.5805 8.3314 45.4523C10.3092 44.3241 12.6728 44.3062 14.4737 45.7746C14.6828 45.9537 14.1682 44.6106 14.136 44.539C13.8466 43.948 13.4929 43.1421 12.9944 42.7302H13.0105Z" fill="#FDE4C4"/>
<path d="M10.4859 87.7521C7.80068 88.3073 5.32448 90.1698 4.02205 92.8918C2.71962 95.6139 2.43018 99.1239 2.55882 102.222C2.67137 104.908 3.20196 107.809 4.98677 109.779C6.94845 111.946 9.82666 112.376 12.4798 112.412C15.374 112.448 18.5256 111.606 20.2622 108.794C20.6802 108.114 19.6673 108.203 19.3778 108.293C18.6864 108.49 17.9468 108.974 17.5287 109.636C17.0946 110.352 16.0494 110.352 15.2133 110.37C13.9591 110.406 12.6566 110.317 11.4185 110.048C8.81366 109.475 6.93239 107.648 6.06411 104.837C5.27622 102.258 5.34052 99.4284 5.59779 96.76C5.75859 95.1304 6.0641 93.4828 6.75551 92.0322C7.18965 91.1189 7.88106 89.9549 8.8619 89.7579C9.5694 89.6146 10.4055 89.2206 10.8718 88.5759C11.2256 88.0924 11.1452 87.6089 10.4859 87.7521Z" fill="#FDE4C4"/>
<path d="M23.285 91.3518C20.5033 91.0653 18.1236 93.2143 17.2714 96.0617C16.3548 99.124 17.1427 102.616 18.5256 105.338C21.5646 111.266 27.8516 114.794 33.8974 113.039C34.8461 112.77 32.8041 110.173 31.8071 110.46C27.4335 111.714 22.5936 110.012 20.5194 105.32C19.5064 103.028 19.1205 100.288 19.9084 97.8346C20.648 95.5424 22.6579 93.7336 24.893 93.9664C25.6165 94.0381 25.3271 93.1068 25.102 92.7128C24.7161 92.0681 23.9926 91.4055 23.269 91.3339L23.285 91.3518Z" fill="#FDE4C4"/>
<path d="M37.869 98.9083C32.1608 98.7651 29.765 106.072 31.3247 111.337C32.1126 113.987 34.4763 115.742 36.5827 116.996C38.6891 118.249 41.3261 118.858 43.8023 119.037C46.7931 119.252 50.0089 118.572 51.9706 115.814C52.0832 115.653 49.5105 113.504 49.3175 113.79C47.4362 116.441 44.3811 117.193 41.4708 117.014C40.0558 116.924 38.6247 116.691 37.2419 116.297C36.6148 116.118 36.0038 115.921 35.425 115.635C35.2642 115.563 35.1194 115.474 34.9587 115.402C34.5888 115.187 34.7336 115.294 35.3767 115.76C35.3767 115.599 34.8622 115.169 34.7496 114.99C33.1256 112.537 33.1417 108.597 34.1386 105.857C35.1355 103.117 37.5635 100.878 40.3774 100.95C40.6025 100.95 39.6377 100.108 39.5734 100.054C39.1714 99.7321 38.3996 98.9262 37.869 98.9262V98.9083Z" fill="#FDE4C4"/>
<path d="M50.0895 99.661C47.1148 102.311 47.0665 106.717 47.4685 110.585C47.9187 114.811 49.6553 118.429 53.1767 120.381C59.3511 123.784 68.8541 122.351 72.9543 115.761C75.2215 112.125 75.6717 106.878 73.1312 103.261C72.6166 102.526 71.7644 102.186 70.9604 102.562C70.3173 102.867 69.7545 103.869 70.269 104.604C72.0056 107.093 71.9896 110.388 70.7515 113.128C69.5133 115.868 66.7959 117.73 64.1267 118.501C61.4575 119.271 58.6115 119.324 55.9906 118.339C53.2249 117.301 51.4883 115.026 50.8773 111.857C50.3146 108.866 49.8161 104.12 52.2441 101.953C53.8359 100.539 51.4723 98.4253 50.0895 99.661Z" fill="#FDE4C4"/>
<path d="M72.3433 112.608C72.5684 116.28 76.347 118.035 79.1931 118.285C82.7306 118.59 86.3323 118.644 89.4999 116.602C92.1048 114.919 94.9669 112.734 95.8834 109.385C96.8 106.036 95.7227 102.06 94.6936 98.7295C94.4685 97.9773 93.7127 97.3506 93.0856 97.0461C92.748 96.8849 91.8636 96.6521 92.1048 97.4222C92.957 100.162 93.8092 103.063 93.5037 106C93.1982 108.937 91.4777 110.925 89.4356 112.591C87.0881 114.489 84.7083 115.832 81.7497 115.975C80.399 116.047 79.0484 115.975 77.7138 115.868C77.0224 115.814 76.2827 115.796 75.6074 115.527C75.125 115.348 75.0446 115.026 74.9964 114.417C74.9481 113.683 74.2245 113.038 73.6939 112.68C73.501 112.555 72.295 111.892 72.3272 112.608H72.3433Z" fill="#FDE4C4"/>
<path d="M55.5885 121.151C56.4729 124.428 56.489 127.956 55.6046 131.233C54.8007 134.188 53.1445 137.823 50.5075 139.184C49.0603 139.937 47.2595 139.793 45.7158 139.56C44.1722 139.328 42.6447 138.826 41.2779 137.967C38.7535 136.373 36.8883 133.4 36.7114 130.123C36.5827 127.866 37.1455 125.61 37.837 123.497C38.3997 121.76 39.1394 120.076 40.6669 119.199C41.3261 118.823 40.5704 117.784 40.2489 117.497C39.7182 117.014 38.866 116.656 38.2067 117.032C36.6953 117.891 35.7949 119.539 35.1999 121.258C34.4442 123.389 33.8171 125.735 33.7689 128.045C33.6885 132.164 35.7466 135.979 38.6248 138.45C41.7442 141.101 45.8927 142.444 49.8161 142.211C53.7394 141.978 56.1513 138.898 57.6628 135.209C59.3833 131 59.6727 126.201 58.4668 121.795C58.2577 121.007 57.4216 120.416 56.7141 120.273C56.1835 120.166 55.3795 120.363 55.5885 121.169V121.151Z" fill="#FDE4C4"/>
<path d="M14.9078 110.477C13.2998 113.897 13.7983 117.873 15.0364 121.329C16.162 124.463 17.6573 128.17 20.1657 130.23C22.6741 132.289 25.8257 133.167 28.8003 132.826C31.968 132.468 34.7979 130.713 37.0491 128.278C37.6279 127.651 34.7979 126.254 34.1869 126.917C30.9871 130.355 25.0056 133.632 21.4681 128.958C20.5677 127.776 19.9567 126.362 19.3135 125.001C18.6382 123.55 18.0111 122.064 17.577 120.506C16.7408 117.551 16.6283 114.363 17.9629 111.551C18.2844 110.889 15.3258 109.564 14.8917 110.477H14.9078Z" fill="#FDE4C4"/>
<path d="M56.1996 131.126C55.9102 135.495 60.0747 136.928 63.1941 137.447C64.995 137.752 66.8441 137.805 68.6129 137.232C70.2208 136.713 71.684 135.692 73.0186 134.6C75.7199 132.397 78.1962 130.141 78.9841 126.362C79.6594 123.085 78.9519 119.485 77.4887 116.584C77.0867 115.778 76.2667 115.241 75.4145 115.545C74.6909 115.796 74.1763 116.799 74.5783 117.605C75.6878 119.808 76.2988 122.297 75.9933 124.822C75.6556 127.633 74.0156 129.371 72.086 131.018C69.9796 132.809 67.9215 134.474 65.1558 134.403C63.8856 134.385 62.5509 134.116 61.3128 133.74C60.4767 133.489 59.2707 132.934 59.3511 131.752C59.4798 129.711 56.3604 128.959 56.2157 131.108L56.1996 131.126Z" fill="#FDE4C4"/>
<path d="M42.0819 49.7681C42.1462 38.647 38.866 27.7409 32.8523 18.8763L30.2796 20.0582C37.8208 25.4665 43.6415 33.4894 46.8413 42.8197C47.2433 43.9837 49.816 44.0374 50.009 42.6764C50.9255 36.0145 52.244 27.6334 58.0326 23.998L55.3152 23.1205C53.5465 30.8748 53.8037 39.041 55.9584 46.6879C56.2799 47.834 58.2416 47.6907 58.8848 47.0639C67.3104 38.9873 77.167 29.6033 88.9532 29.6213L87.8759 27.7588C80.8814 31.5016 75.945 39.2559 75.141 47.8698C75.0767 48.4966 75.8646 48.8369 76.2827 48.9443C76.9098 49.1055 77.6012 48.9801 78.1157 48.5324C85.3675 42.372 94.4524 39.1306 103.569 39.5066L102.492 37.6442C96.6552 41.0647 91.9601 46.6879 89.3713 53.4572C88.8085 54.9257 91.9761 55.4271 92.4424 54.1556C94.8704 47.7803 99.1957 42.4794 104.711 39.238C106.013 38.468 104.454 37.4114 103.634 37.3756C93.4876 36.9637 83.438 40.4737 75.3822 47.3147L78.3569 47.9773C79.1126 40.026 83.6309 32.8089 90.1109 29.3347C91.4294 28.6184 89.8376 27.4723 89.0336 27.4723C76.0415 27.4364 65.5256 36.8741 56.1513 45.8462L59.0778 46.2223C56.9714 38.7724 56.8106 30.8032 58.5311 23.228C58.6436 22.7086 57.8718 22.3147 57.5824 22.2072C57.0357 22.0281 56.3282 22.0281 55.8136 22.3505C49.4141 26.3799 47.8222 35.0296 46.8092 42.4794L49.9768 42.3362C46.6323 32.6119 40.4739 24.2488 32.6111 18.6076C31.8876 18.0883 29.0093 18.2674 30.0384 19.7896C35.827 28.3319 38.9303 38.9157 38.866 49.589C38.866 51.0575 42.0658 51.1649 42.0819 49.7323V49.7681Z" fill="#FDE4C4"/>
<path d="M65.8794 40.0799C65.8151 26.6307 74.4657 15.7962 83.9365 8.70452C86.8147 6.53761 89.8537 4.63933 92.9249 2.83059C94.1309 2.11426 91.9923 -0.518261 90.9793 0.0906211C80.2704 6.39435 69.4972 14.5963 65.0271 27.7231C63.8373 31.2332 63.2102 34.9581 63.2263 38.7009C63.2263 39.9366 65.8794 41.817 65.8794 40.0799Z" fill="#FDE4C4"/>
<path d="M36.7596 26.4337C38.7373 29.6393 40.281 33.1493 41.3422 36.8563C41.8889 38.7367 42.307 40.6708 42.5964 42.6407C42.7411 43.5899 42.8537 44.539 42.9341 45.506C42.9662 45.9537 42.9984 46.4015 43.0305 46.8492C43.0305 47.0999 43.0627 47.3685 43.0627 47.6192C42.7894 48.3356 43.1431 48.8907 44.1239 49.2847C44.14 48.9265 43.9792 48.3356 43.9471 47.9595C43.9149 47.5655 43.8988 47.1715 43.8667 46.7775C43.7702 45.7209 43.6576 44.6823 43.4968 43.6257C43.2074 41.7274 42.8215 39.8649 42.323 38.0204C41.31 34.2417 39.8629 30.6421 38.0459 27.2754C37.7243 26.6665 37.2581 26.0934 36.7757 25.6278C36.7274 25.5741 35.9074 24.9294 36.0039 25.3055C36.9686 29.1737 38.7374 32.6479 40.1845 36.3012C40.9081 38.1099 41.5512 39.9903 41.8889 41.9423C42.1623 43.5003 42.516 45.8284 40.9885 46.7059L43.1752 49.2489C43.1752 48.1923 43.1752 47.1178 43.1752 46.0612L40.9563 43.6436C41.2618 44.8076 41.1493 45.9358 40.5865 46.9745L42.7733 49.5175C42.6285 48.4072 42.5803 47.2969 42.6446 46.1687C42.6768 45.5777 41.8246 44.736 41.4869 44.3599C41.3744 44.2346 40.4739 43.3033 40.4257 43.7331C40.3292 44.736 40.4096 45.6672 40.6508 46.6343C40.8116 47.2969 42.0819 49.3563 42.8376 49.1772C43.1913 49.0877 43.5129 49.0698 43.8667 49.1414C44.4455 49.2668 44.7189 49.8936 44.0114 48.8549C44.14 49.034 45.5228 50.7174 45.6354 50.1801C47.6453 41.602 41.6477 34.2596 38.1424 27.3649L36.6792 26.4874C39.2358 29.8721 41.101 33.8656 42.1623 38.1278C43.2235 42.39 43.1753 46.4731 45.3138 50.0906C45.4264 50.2697 46.9217 52.2396 47.1468 51.8635C48.1759 50.198 48.0152 48.2102 47.5328 46.3477C46.97 44.1092 46.1017 41.9602 45.2656 39.8291C43.529 35.4416 41.503 31.1973 39.1876 27.15C38.8338 26.5411 38.4158 25.9681 37.9173 25.5025C37.8691 25.4487 37.0651 24.7861 37.1455 25.1801C37.9977 29.0483 39.6378 32.5404 41.8568 35.6386C41.9532 35.7818 43.4486 37.4831 43.4808 36.9638C43.6415 35.1729 43.2235 33.5433 42.3874 32.0211C42.0336 31.3585 41.5352 30.7317 40.9885 30.2661C40.8438 30.1407 40.1202 29.6214 40.3935 30.2482C42.2748 34.582 43.4004 39.2023 43.7702 44.0018C43.8185 44.5748 44.4455 45.2553 44.7832 45.6314C44.8636 45.7209 45.8766 46.7775 45.957 46.5447C47.2433 42.6765 45.6675 38.7188 44.1239 35.2625C43.8023 34.5283 43.2878 33.8836 42.725 33.3642C42.5803 33.2389 41.712 32.5404 42.0015 33.2209C44.0114 38.0383 45.2656 43.178 45.7319 48.4609C45.7801 48.9623 47.79 51.3262 47.9187 51.0039C49.6713 46.7596 48.9156 42.0139 47.3076 37.8592C47.0504 37.1966 46.5358 36.5877 46.0535 36.1042C45.957 35.9967 45.153 35.2088 45.1369 35.6386C44.9118 40.241 45.5872 44.8076 47.0665 49.1056C47.2916 49.7682 47.8544 50.395 48.3207 50.8606C48.4493 50.986 49.1729 51.756 49.2372 51.3262C49.9929 46.6343 50.7326 41.9423 51.4883 37.2324C51.5687 36.6952 50.6361 35.7639 50.3306 35.4237C50.1859 35.2804 49.3658 34.3671 49.2693 34.7969C48.0634 40.3664 48.2563 46.1149 49.7356 51.5949L51.5526 53.0634C51.1346 52.4007 51.1828 51.4337 51.3114 50.6815L49.1407 48.443C49.8804 50.6099 50.6039 52.7947 51.3436 54.9616C51.5687 55.6242 52.1315 56.251 52.5978 56.7166C52.6943 56.8241 53.4982 57.6121 53.5143 57.1823C53.7073 52.0247 51.5687 47.1536 51.9546 41.9602C52.1476 39.4172 52.855 36.9817 53.9484 34.7431C54.9293 32.7195 56.0709 30.7496 56.087 28.3678C56.087 27.9022 54.2539 25.4308 53.9002 25.8248C50.5557 29.5856 50.427 35.2625 50.411 40.241C50.3949 46.0433 50.5396 51.9172 53.048 57.1644C53.3374 57.7732 53.852 58.3642 54.3183 58.8119C54.4148 58.9015 55.074 59.5462 55.0901 59.1343C55.3956 51.2546 51.9546 42.6944 55.5725 35.2446L53.4178 32.5942C51.0703 39.5963 52.6138 47.082 54.1735 54.0662C54.3343 54.7646 54.881 55.3914 55.3312 55.875C55.4438 55.9824 56.3603 56.9315 56.3925 56.5017C56.698 50.1622 57.0035 43.8406 57.309 37.501L55.0901 35.0834C54.9453 38.3069 54.8006 41.5304 54.6559 44.7539L56.8749 47.1715L55.894 37.501C55.8297 36.8384 55.1383 36.14 54.7363 35.6923C54.6238 35.5848 53.6911 34.6357 53.6751 35.0655L53.3696 43.6973L55.5885 46.1149V42.2646C54.8328 41.4588 54.0932 40.6529 53.3535 39.847C53.9645 45.3449 54.1092 50.8964 53.8037 56.4122C53.7716 56.8957 55.6207 59.3492 55.9905 58.9552L56.28 58.6507C56.6498 58.2747 54.463 55.6421 54.1253 56.0003L53.8359 56.3048L56.0227 58.8477C56.3282 53.3141 56.1835 47.7804 55.5725 42.2825C55.4921 41.6199 54.8167 40.9215 54.4148 40.4738C54.3183 40.3664 53.3535 39.4172 53.3535 39.847V43.6973C53.3696 44.3241 54.1574 45.1121 54.5273 45.506C54.6398 45.6135 55.5724 46.5626 55.5885 46.1328L55.894 37.501L53.6751 35.0834L54.6559 44.7539C54.7202 45.4165 55.4117 46.1149 55.8136 46.5626C55.9262 46.6701 56.8588 47.6192 56.8749 47.1894C57.0196 43.9659 57.1643 40.7424 57.309 37.5189C57.3412 36.9101 56.505 36.0863 56.1513 35.7102C56.0387 35.6028 55.1222 34.6536 55.0901 35.0834C54.7845 41.423 54.479 47.7446 54.1735 54.0841L56.3925 56.5017C54.8489 49.625 53.2731 42.1572 55.5885 35.2446C55.8458 34.4924 53.5143 32.3972 53.4339 32.5942C49.7839 40.1335 53.2088 48.7295 52.9033 56.6987L54.9453 58.6687C52.5656 53.6901 52.6139 47.7804 52.646 42.2825C52.6782 37.4652 52.855 32.0748 56.087 28.4573L53.9002 25.9144C53.8841 28.4036 52.5656 30.4272 51.5848 32.5583C50.6039 34.6894 49.9447 37.0891 49.7678 39.5068C49.3819 44.6823 51.5204 49.5533 51.3275 54.7288L53.4982 56.9674C52.7586 54.8005 52.035 52.6156 51.2954 50.4487C51.0702 49.7861 50.5075 49.1593 50.0412 48.6937C49.9125 48.5684 49.1889 47.7983 49.1246 48.2281C48.8674 49.6966 49.3337 50.9323 50.0733 52.1321C50.427 52.7052 50.9094 53.3141 51.424 53.7081C51.6491 53.8692 52.035 54.1199 51.8903 53.6185C50.4431 48.2818 50.3466 42.6049 51.5204 37.1966L49.3015 34.779C48.5457 39.4709 47.8061 44.1629 47.0504 48.8728L49.2211 51.1113C47.774 46.9387 47.163 42.4974 47.3881 38.0204L45.2174 35.7818C46.7449 39.7217 47.4363 44.2704 45.7801 48.2997L47.9669 50.8427C47.4845 45.4165 46.1982 40.1515 44.1239 35.2088L42.0015 33.1672C43.4486 36.4265 45.0083 40.1873 43.7863 43.8406L45.9731 46.3836C45.6033 41.4767 44.4295 36.6952 42.4999 32.2539L40.5061 30.481C41.1814 31.7166 41.3904 33.0956 41.2618 34.5283L42.8858 35.8535C41.1653 33.4358 39.9915 30.5705 39.3323 27.5798L37.2902 25.6099C39.4609 29.3707 41.3583 33.3105 42.9823 37.3936C43.7541 39.3277 44.5259 41.3155 45.1369 43.3212C45.7479 45.327 46.0535 47.4043 44.9601 49.1772L46.7931 50.9502C45.6836 49.0698 45.4425 46.6522 45.1048 44.4853C44.7671 42.3184 44.333 40.241 43.6898 38.1815C42.3552 33.9731 40.2649 30.0691 37.6922 26.6665C37.4027 26.2725 36.8561 25.4308 36.3576 25.2876C35.9556 25.1801 36.0521 25.4487 36.229 25.789C39.6378 32.4867 45.346 39.3814 43.3843 47.7088L45.0083 49.034C43.9471 47.4939 42.4838 46.0075 40.6186 46.4731L42.8054 49.0161C42.5643 48.0311 42.4838 47.1178 42.5803 46.1149L40.3613 43.6973C40.297 44.8255 40.3453 45.9358 40.49 47.0462C40.5543 47.476 42.4678 50.001 42.6768 49.5891C43.2717 48.4788 43.4164 47.279 43.0949 46.0254C42.918 45.327 42.3874 44.7181 41.9371 44.2166C41.8407 44.1092 40.8759 43.1601 40.8759 43.5899C40.8759 44.6464 40.8759 45.7209 40.8759 46.7775C40.8759 47.3148 42.516 49.625 43.0627 49.3205C44.4455 48.5325 44.333 46.5089 44.14 45.0583C43.8667 43.0884 43.2878 41.1722 42.5964 39.3277C41.1493 35.4416 39.1393 31.7883 38.1263 27.7052L36.0842 25.7353C38.3997 30.0154 40.0398 34.7252 40.9402 39.6142C41.1493 40.7782 41.3261 41.9602 41.4548 43.1421C41.5673 44.2346 41.5512 45.3807 41.7442 46.4552C41.9211 47.4222 42.3874 48.246 42.9662 48.9803C43.4647 49.625 44.2365 50.6278 45.0887 50.5204C45.1852 50.5383 45.2334 50.5025 45.2174 50.395C44.9279 42.1035 42.4195 34.1522 38.1907 27.3291C37.853 26.7919 37.2259 25.7711 36.631 25.6099C36.036 25.4487 36.5023 26.1293 36.6792 26.4337H36.7596Z" fill="#FDE4C4"/>
<path d="M56.6176 58.1311C56.2478 54.2808 57.5502 50.52 60.1551 47.9412C60.7822 47.3145 58.4989 45.5773 58.0326 45.5594C56.1514 45.5057 55.0097 47.0458 54.5113 48.9441C53.8198 51.6304 54.9454 54.442 54.3665 57.164C54.2057 57.952 56.6016 59.9577 56.9071 59.2772C58.3864 55.9104 59.7692 52.472 61.3932 49.1948C62.9208 46.0967 65.0593 44.0014 67.7124 42.1569C73.308 38.2708 78.984 34.4384 85.046 31.5551L82.7144 29.1912C76.0576 34.2772 71.3142 41.3868 67.7445 49.3739C67.3586 50.2335 69.7706 52.3646 70.2208 51.6483C73.4688 46.4369 76.4917 41.0465 79.2574 35.495C79.6754 34.6533 77.4565 32.6475 76.7812 33.2206C71.4268 37.7693 66.5064 42.909 62.1168 48.6039L64.593 50.8782C65.0271 49.5351 65.6703 48.3531 66.5547 47.3145C67.0853 46.6877 64.6734 44.3238 64.0784 45.0401C63.2102 46.0788 62.567 47.2607 62.1168 48.6039C61.8434 49.4455 64.0302 51.6304 64.593 50.8782C68.9827 45.1834 73.8869 40.0258 79.2574 35.495L76.7812 33.2206C74.0155 38.7722 70.9926 44.1626 67.7445 49.3739L70.2208 51.6483C73.7743 43.6612 78.5338 36.5516 85.1907 31.4656C85.7374 31.0358 83.5184 28.7794 82.8592 29.1017C76.7973 31.9849 71.1373 35.8173 65.5256 39.6676C62.8725 41.4943 60.6375 43.5 59.0778 46.5623C57.3573 49.9291 55.9423 53.5107 54.4148 56.9849L56.9553 59.0981C57.4698 56.6268 56.6176 54.1912 56.9232 51.7378C57.1322 50.144 58.0969 47.995 59.7853 48.0308L57.6628 45.649C55.0097 48.2815 53.6429 52.2571 54.0288 56.197C54.0932 56.9312 54.7846 57.558 55.2991 57.952C55.4438 58.0594 56.682 58.8116 56.6176 58.1311Z" fill="#FDE4C4"/>
<path d="M67.0211 41.3158C62.7922 44.5393 59.2548 48.712 56.5695 53.5472C55.6852 55.1411 57.9523 55.6604 58.8206 54.8366C61.2004 52.5443 63.9339 50.8252 66.9568 49.8223L66.0081 47.4942C64.4002 48.5687 62.7922 49.6432 61.1843 50.7356C59.8979 51.5952 60.718 53.5472 62.133 53.0637C63.3872 52.6339 64.6413 52.1862 65.8955 51.7564C66.9407 51.3982 68.1627 51.1475 69.0632 50.4312C69.8028 49.8402 70.3174 49.0164 70.4782 48.0135C70.5586 47.5479 70.5586 47.0644 70.5907 46.5809C70.6068 46.366 70.8158 45.7213 70.5907 45.9183C71.1214 45.4348 71.5555 44.5931 71.0088 43.9125C70.4621 43.232 69.4491 43.5902 68.8702 43.9842C67.1015 45.184 65.6865 46.9928 64.8825 49.1239C64.7057 49.6074 64.6413 50.073 64.9951 50.4849C67.2784 53.1353 70.9927 51.6847 72.9865 49.4104C74.1603 48.0673 75.0126 46.3839 75.913 44.808C76.9421 43.0171 77.9711 41.2263 79.0002 39.4355C79.7881 38.0565 78.0194 37.4118 77.119 37.9133C75.0447 39.0415 74.2729 41.3158 73.3724 43.5186C72.279 46.1511 71.1856 48.7657 70.1083 51.3982C69.3687 53.1711 71.3947 53.3502 72.3595 52.6876C74.2086 51.4161 75.704 49.6074 76.717 47.4763C77.5049 45.7929 75.3985 45.4168 74.4659 46.1869C72.7293 47.6375 71.2982 49.4999 70.3335 51.6847C69.5777 53.386 71.6359 53.7263 72.5846 52.9741C80.2705 46.8853 89.2911 42.9276 98.6493 41.6203L98.4723 39.0057C94.0183 40.7607 89.6448 42.7485 85.3677 44.9691C81.0906 47.1898 77.0707 49.4641 73.3564 52.4727L75.0929 54.3889C76.9903 52.7592 78.8234 51.0221 80.5921 49.2134C81.6212 48.1568 80.4474 46.9032 79.3379 47.1898C76.9582 47.8345 74.7553 49.0522 72.8901 50.8072C72.3755 51.2908 71.9092 52.1325 72.472 52.813C72.9865 53.4219 74.096 53.2249 74.6106 52.7413C76.0577 51.3803 77.6656 50.4133 79.4987 49.9118L78.2445 47.8882C76.6687 49.4999 75.0447 51.0221 73.3564 52.4727C72.8097 52.9383 72.3916 53.8158 72.9383 54.4784C73.485 55.1411 74.5301 54.8545 75.0768 54.4068C78.6625 51.4878 82.6663 49.285 86.6861 47.2077C90.706 45.1303 95.1118 43.1246 99.4532 41.4233C100.675 40.9398 100.9 38.5759 99.2763 38.8087C89.0337 40.2234 79.2736 44.3961 70.848 51.0759L73.0991 52.3653C73.8388 50.6819 74.8517 49.285 76.1863 48.1568L73.9352 46.8674C73.1473 48.5329 72.07 49.8223 70.6229 50.8072L72.874 52.0966C73.7905 49.876 74.7231 47.6554 75.6396 45.4348C76.0738 44.3782 76.5079 43.3216 76.9582 42.265C77.2154 41.6382 77.5209 40.707 78.1159 40.3846L76.2346 38.8624C74.7553 41.4233 73.3242 44.0379 71.7967 46.563C70.9123 48.0135 69.1114 50.2879 67.5357 48.4792L67.6482 49.8402C68.2753 48.1747 69.224 46.9032 70.6068 45.972L68.8702 44.0558C68.2431 44.6289 67.809 45.2736 67.6321 46.169C67.5035 46.8316 67.6803 47.8524 67.3909 48.4613C67.3105 48.6403 67.5195 48.3538 67.3909 48.515C67.3427 48.5687 67.0693 48.6403 67.0372 48.6403C66.4744 48.8373 65.9116 49.0343 65.3327 49.2313C64.2072 49.6253 63.0656 50.0193 61.94 50.4133L62.8887 52.7413C64.4966 51.6668 66.1046 50.5923 67.7125 49.4999C69.0149 48.6224 68.1788 46.7062 66.7638 47.1719C63.1942 48.3538 59.8979 50.27 57.068 52.9741L59.3191 54.2635C61.731 49.8939 64.9469 46.1869 68.7416 43.3037C69.3044 42.8739 69.6742 41.9426 69.1596 41.2979C68.6451 40.6532 67.5839 40.9398 67.0211 41.3696V41.3158Z" fill="#FDE4C4"/>
<path d="M70.06 42.8919C69.449 44.2351 68.7576 45.5424 68.018 46.8139C67.7125 47.3511 67.9376 47.8525 68.4199 48.1033C69.047 48.4256 69.7706 48.2644 70.3655 47.9958C72.9704 46.8139 75.5592 45.5961 78.1319 44.3604L75.6396 43.465C75.6396 43.465 75.6557 43.5546 75.6074 43.5187L76.2827 43.1427H76.3793C76.6526 43.1427 76.9259 43.1427 77.1993 43.1606L77.0385 43.1248C76.3953 43.0173 74.9321 43.1248 74.7713 44.1097C74.5784 45.2737 74.2407 46.3841 73.7744 47.4407L76.9099 47.566C77.1189 46.6885 77.2314 45.8289 77.2636 44.9335L74.0799 45.3991C74.1924 46.5631 74.5623 47.7451 75.2215 48.6584C76.0416 49.8046 77.344 49.912 78.5178 49.3568C79.579 48.8554 80.576 48.157 81.589 47.5481C82.6502 46.9034 83.7114 46.2766 84.7887 45.6319L82.3768 45.3275C82.3125 45.2379 82.5055 45.2558 82.3447 45.3633C82.1357 45.5066 81.9266 45.6498 81.7015 45.7752C81.2352 46.0438 80.7528 46.2587 80.2543 46.4378C79.7076 46.6348 78.9519 47.2078 79.3057 47.9421C79.6594 48.6763 80.785 48.6226 81.3638 48.4256C82.4572 48.0316 83.5345 47.5302 84.4832 46.8139C85.1746 46.3124 86.0268 45.2379 85.3837 44.3067C84.853 43.5366 83.6792 43.5725 82.9718 44.0023C81.9427 44.6111 80.9297 45.2379 79.9006 45.8468C79.4021 46.1333 78.9198 46.4378 78.4213 46.7243L77.6817 47.172L77.3118 47.3869C76.9259 47.5839 76.9902 47.6018 77.4887 47.4586L78.2284 47.6376C78.0033 47.5123 77.7299 46.796 77.6013 46.4915C77.4083 46.008 77.3279 45.4886 77.2797 44.9514C77.135 43.4292 74.1603 43.9664 74.096 45.417C74.0638 46.1154 73.9512 46.796 73.7744 47.4586C73.5814 48.2644 74.4819 48.6047 75.0446 48.6405C75.8004 48.6763 76.5722 48.354 76.9099 47.6018C77.3922 46.5452 77.7138 45.4349 77.9068 44.2709L75.6396 45.2558C76.7973 45.4528 78.4696 45.0947 78.7751 43.6083C79.0806 42.1219 76.942 42.4084 76.2827 42.7129C73.71 43.9485 71.1213 45.1663 68.5164 46.3482L70.8801 47.5302C71.7162 46.0796 72.4719 44.5753 73.1794 43.0352C73.5332 42.2831 72.3433 41.8712 71.9092 41.8533C71.1535 41.8174 70.3816 42.1398 70.044 42.8919H70.06Z" fill="#FDE4C4"/>
<path d="M67.8249 52.6512C69.9152 53.2422 72.1502 53.8152 73.8868 55.3375C75.752 56.9492 76.7329 59.5459 77.6655 61.874C78.0835 62.9127 80.2221 63.2887 80.6884 62.1784C81.83 59.4564 82.9877 56.7343 84.1294 54.0122C84.4349 53.2959 83.2129 52.687 82.7948 52.5796C82.1677 52.4005 81.3155 52.4184 81.01 53.1526C79.8683 55.8747 78.7106 58.5968 77.569 61.3188L80.5919 61.6233C79.4503 58.7938 78.2122 56.0538 75.9611 54.1376C73.71 52.2214 70.9604 51.4155 68.2912 50.6634C67.7606 50.5201 66.6993 50.4664 66.5064 51.2364C66.3134 52.0065 67.3586 52.5258 67.841 52.6691L67.8249 52.6512Z" fill="#FDE4C4"/>
<path d="M83.2291 55.5172C85.3516 53.1354 87.8439 51.255 90.4005 49.5C91.6708 48.6225 92.9571 47.7808 94.2274 46.9212C95.3208 46.1691 96.9448 45.399 97.4111 43.9664C97.8292 42.677 95.4655 40.3131 94.9992 41.7278C94.7902 42.3725 94.2595 42.7128 93.761 43.0709C93.15 43.5007 92.5391 43.9305 91.9281 44.3603C90.6578 45.2199 89.3714 46.0616 88.1172 46.9391C85.641 48.6583 83.2291 50.5029 81.1549 52.8131C80.2384 53.8517 82.3769 56.5201 83.2613 55.5172H83.2291Z" fill="#FDE4C4"/>
<path d="M85.1103 31.4303C85.7374 31.4303 86.3645 31.0005 86.1233 30.2305C85.8821 29.4604 84.853 29.0127 84.1776 29.0127C83.5505 29.0127 82.9235 29.4425 83.1647 30.2126C83.4059 30.9826 84.4349 31.4303 85.1103 31.4303Z" fill="#FDE4C4"/>
<path d="M91.1079 46.0075C90.8024 47.3327 89.9823 48.3355 89.3231 49.4638C88.6638 50.592 88.1332 51.7202 87.699 52.938C87.3774 53.8155 87.1202 55.0512 88.3744 54.8184C89.5482 54.6035 90.722 53.6543 91.2687 52.4903L88.4226 54.0304C88.5995 54.2811 88.4548 54.5318 88.7281 54.299L90.1592 53.4394C89.9501 53.529 89.5321 53.3678 89.307 53.3678C88.905 53.3499 88.5191 53.3678 88.1332 53.4215C87.3614 53.511 86.6217 53.7259 85.8821 54.0125C84.2902 54.6572 82.7788 55.678 81.5889 57.039C81.2191 57.4688 81.2834 57.8628 81.8944 57.6837C83.9847 57.1106 86.0268 56.4122 88.0528 55.5705C88.6316 55.3198 89.307 54.9974 89.7411 54.4781C89.9663 54.2095 90.1753 53.8334 89.6929 53.7976C87.3614 53.5827 85.1264 54.5855 83.0039 55.5705L83.4219 56.448C86.2519 54.2453 89.0819 52.0426 91.8958 49.8219C91.9762 49.7682 92.9731 48.9802 92.7319 48.7653C92.0566 48.1744 91.1883 48.5325 90.4647 48.8728C89.4999 49.3384 88.5673 49.9652 87.6669 50.5741C85.9303 51.756 84.3063 53.1529 82.8109 54.7109C82.5858 54.9437 82.3929 55.2482 82.7627 55.3914C83.1486 55.5347 83.9043 55.087 84.1937 54.9079C85.4962 54.0662 86.8469 53.3141 88.2297 52.6514L87.0559 52.4903L86.0751 54.2095C85.7052 54.8542 86.6057 54.6214 86.879 54.5318C87.5544 54.299 88.294 53.8334 88.7442 53.2066L89.0336 52.8126C89.4839 52.1858 88.4226 52.4186 88.2297 52.4903L81.6532 55.1407C80.7689 55.4989 79.4664 55.9466 78.984 56.9315C78.775 57.3613 78.8876 57.8449 78.8232 58.2926C78.7428 58.8835 78.566 59.385 78.2605 59.8685L81.01 58.5254C79.8845 56.2152 78.4373 54.1557 76.7168 52.347C76.1219 51.7381 73.5492 53.6185 73.8869 54.0304C75.0607 55.4989 76.4596 56.6808 78.0514 57.5225C78.566 57.7911 81.0583 56.4838 80.7849 55.7496C80.2221 54.2632 79.5629 52.8484 78.7911 51.4695L75.9611 53.1529C76.54 54.1378 77.1992 55.0333 77.9549 55.8749L80.6885 54.102C79.7076 53.5648 79.0483 52.6873 78.7107 51.5232L75.9772 53.2961C77.2796 54.102 78.373 55.1407 79.2896 56.448C79.7559 57.1106 82.1838 55.5168 82.1195 54.7646C81.9748 53.0275 81.6693 51.3262 81.203 49.6608C81.0261 49.034 78.4052 50.5562 78.3569 51.2009C78.2604 52.6514 78.2765 54.102 78.373 55.5526L81.203 53.8692C81.0261 52.347 80.7849 50.8427 80.4794 49.3384L77.6494 51.0218C78.3248 52.3112 79.0805 53.511 79.9327 54.6393C80.4312 55.3019 82.634 53.7439 82.7787 53.0992L83.9847 47.8699L81.1387 49.41C81.1869 49.9831 81.1065 50.4845 80.9135 51.0039C80.7206 51.5232 81.9266 51.0755 81.9909 51.0576C82.5697 50.8069 83.3254 50.4129 83.6792 49.8219C84.3545 48.6758 85.1103 47.6371 85.9946 46.688L83.5023 47.458C82.2964 49.034 81.2834 50.7532 80.4151 52.6156C80.1417 53.1887 82.0391 52.4007 82.0552 52.3828C84.0651 51.0755 85.6248 49.2668 87.2488 47.4401C89.0015 45.4702 90.738 43.4824 92.4746 41.4946C92.8123 41.1006 92.8445 40.7962 92.2978 40.832C91.6707 40.8678 90.8667 41.3692 90.4165 41.799C87.2488 44.7539 84.1777 47.8341 81.203 51.0397C80.8493 51.4158 80.8492 51.7381 81.3799 51.7023C82.023 51.6665 82.7788 51.1472 83.2612 50.7353C84.8209 49.3742 86.5092 48.3355 88.3744 47.6013C90.0788 46.9387 92.1369 46.0433 92.9409 44.0734C93.0856 43.7152 92.4585 43.8227 92.362 43.8406C90.4325 44.2704 88.5995 45.1658 86.9755 46.4014C86.7665 46.5626 86.0589 47.0282 86.1393 47.3864C86.2197 47.7446 86.8307 47.5118 87.0398 47.4401C87.9241 47.082 88.8085 46.8492 89.7572 46.7596L89.709 46.0791L90.947 45.3269C90.3039 45.2195 89.5803 45.6672 89.0497 46.0433C88.9532 46.1149 87.8277 47.1178 88.3262 47.1894C89.6607 47.4043 91.0918 46.5626 92.0083 45.5239C92.2013 45.309 92.4746 44.7897 91.9601 44.8434C90.6255 44.9688 89.3391 45.2911 88.0689 45.8105L88.1332 46.8492C88.9211 46.2403 89.7089 45.9 90.6415 45.6851L90.0627 45.4523C90.0627 45.4523 89.7089 46.0075 89.9501 45.7568C90.0788 45.6314 90.0788 45.6672 89.9823 45.703C89.6607 45.8463 89.3391 45.9537 89.0176 46.097C88.085 46.4731 87.1845 46.9029 86.3001 47.3864C84.5796 48.3176 82.9556 49.4638 81.4281 50.7711L83.4862 50.4666C86.3001 47.4401 89.2105 44.5211 92.2013 41.7095L90.1431 42.0139C88.6477 43.7331 87.1523 45.4523 85.6409 47.1536C84.9334 47.9595 84.2098 48.7653 83.4862 49.5712C82.9074 50.2159 82.3125 50.986 81.605 51.4516L83.2451 51.2188C84.033 49.4996 85.0299 47.9237 86.1393 46.4552C86.5574 45.9179 85.7052 46.0254 85.4962 46.0791C84.8369 46.2761 84.1455 46.688 83.647 47.2252C82.6501 48.3176 81.7497 49.5175 80.9779 50.8248L83.7435 49.6249C83.9686 48.9802 84.0008 48.4072 83.9526 47.7267C83.9043 47.1715 81.2512 48.64 81.1065 49.2668L79.9005 54.496L82.7466 52.9559C81.8944 51.8277 81.1226 50.6099 80.4633 49.3384C80.1256 48.6937 77.4726 50.2517 77.6334 51.0218C77.9389 52.5261 78.18 54.0304 78.3569 55.5526C78.4052 55.9466 81.2673 54.8542 81.1869 53.8692C81.0904 52.5261 81.0904 51.183 81.1869 49.8219L78.3409 51.362C78.8072 53.0275 79.1126 54.7288 79.2574 56.4659L82.0873 54.7825C81.1226 53.4036 79.9327 52.2933 78.5499 51.4516C78.0192 51.1292 75.6074 52.4724 75.8164 53.2245C76.1701 54.4781 76.9419 55.4093 78.0032 55.9824C78.5499 56.2689 81.1065 54.6214 80.7367 54.2095C79.981 53.3857 79.3217 52.4724 78.7429 51.4874C78.3409 50.8069 75.5752 52.5977 75.9129 53.1708C76.6847 54.5318 77.36 55.9466 77.9067 57.4509L80.6402 55.6779C79.1288 54.8721 77.8102 53.7618 76.7007 52.3649L73.8708 54.0483C75.5913 55.8391 77.0384 57.9165 78.164 60.2267C78.5338 60.9788 80.6723 59.2775 80.9135 58.8835C81.203 58.4179 81.4442 57.9165 81.5728 57.3613C81.7014 56.8062 81.5889 56.1794 81.7657 55.66L81.2512 56.3226C80.1096 57.3076 80.399 56.8778 81.0582 56.6092L81.8622 56.2868L83.631 55.5705L87.1523 54.1557L86.3484 53.8334L86.059 54.2274L88.7281 53.2245L89.709 51.5053C90.1753 50.6994 88.7281 51.2546 88.5352 51.3441C86.8951 52.1321 85.2871 53.0275 83.7435 54.0125L85.1263 54.1916C85.8981 53.3857 86.7182 52.6335 87.5865 51.953C87.9885 51.6307 88.4226 51.3262 88.8407 51.0397C89.0658 50.8964 89.2748 50.7532 89.516 50.6099L89.7733 50.4487C90.0788 50.2159 90.127 50.2338 89.8859 50.4845L90.722 49.428C87.892 51.6307 85.062 53.8334 82.2482 56.054C82.0391 56.2152 81.2673 56.7166 81.412 57.1106C81.5567 57.4867 82.4893 57.0032 82.6662 56.9315C84.2259 56.2152 85.7535 55.6063 87.4739 55.7496L89.114 53.9767C87.3131 54.7288 85.4801 55.3735 83.5988 55.8929L83.9043 56.5376C85.046 55.2482 86.3002 55.3914 87.8277 55.4093C88.7281 55.4093 92.4103 53.905 91.2687 52.3828C90.9792 52.0067 90.0949 52.5261 89.8215 52.6694C89.2909 52.9559 88.696 53.332 88.4226 53.9229L88.2618 54.1378L89.9501 53.0454L89.7572 53.1171L90.5451 53.0096C89.6768 52.8126 91.5741 49.3026 91.8475 48.8012C92.6032 47.458 93.6162 46.2582 93.97 44.6822C94.0986 44.0913 92.8445 44.6464 92.7158 44.7181C92.2495 44.9509 91.2687 45.4344 91.124 46.0791L91.1079 46.0075Z" fill="#FDE4C4"/>
</svg>
